<svg version="1.1" id="Layer_1" xmlns="http://www.w3.org/2000/svg" xmlns:xlink="http://www.w3.org/1999/xlink" x="0px" y="0px"
	 viewBox="0 0 1920 1080" style="enable-background:new 0 0 1920 1080;" xml:space="preserve">

<a href="/choose-flat" data-build="8"><path class="s3d-svg__house" data-build="8"  d="M894.6,631.3V620l8-2.2v-25.4l18.1-6l12.7,6.3l12-3.4L974,604v6l3,1.1l9.1-2.3l14,6.4v5.9l4.7,2.2l7.3-2.8
	l26.8,10.8v6.2l3.5,1l7.6-1.7l16.1,6v6.3l5.5,1.8l8.8-2.5l28.3,13.5h5.8v8.1l3.8,1.5v7l7.8,3.2v25.4h1.8v59.3l-33.4,12.6
	c0,0-3,1.9-8-1.7c-5-3.5-191.9-92.1-191.9-92.1V631.3z"/></a>
<a href="/choose-flat" data-build="10"><polygon class="s3d-svg__house" data-build="10" points="686.8,591.5 686.8,543.6 691.6,543.6 691.6,527 699.8,527 699.8,505.7 715.9,501.2 729.4,506.1
736.5,503.7 764.9,515 764.9,521 769.4,521 774.8,519.9 787.9,525.4 787.9,531.2 792.1,532 798.5,529.8 821.8,538.8 821.8,545.3
824.5,546.4 831.8,543.5 838.1,544 844.1,544.5 846.9,550 846.9,554.9 850.4,556.6 859.9,554.8 888.1,567.1 888.1,574 890.9,574.1
890.9,580.6 899.3,584.3 899.3,618.7 894.6,620 894.6,660.4 862.6,671.3 "/></a>
<a href="/choose-flat" data-build="11"><polygon class="s3d-svg__house" data-build="11" points="686.8,571.1 677.6,571.1 633.9,460 633.9,414.1 638.6,414.1 638.6,393.5 641.9,393.5 641.9,388
648.5,388 648.5,381 670.3,381 670.3,385 680.5,385 686.8,398 686.8,401.8 688.1,407.1 688.1,412.6 692.1,412.6 697.3,422.4
697.3,429.2 699.4,429.1 702.4,434.1 702.4,438.6 704.6,438.6 709.4,449.5 709.4,454.7 711.9,454.7 723.5,480.3 723.5,491.4
725.9,494.9 725.9,505 715.9,501.2 699.8,505.7 699.8,527 691.6,527 691.6,543.6 686.8,543.6 "/></a>
<a href="/choose-flat" data-build="6"><polygon class="s3d-svg__house" data-build="6" points="612.4,302.8 632.5,301.8 633.4,305.9 641.9,305.9 647.3,316.2 647.3,320.7 649.1,320.7 651.2,325.5
651.2,330 653.8,330 657.1,338.4 657.1,344.1 659.9,344.1 669.3,363.6 669.3,375.9 671,377.1 671,385 670.3,385 670.3,381
648.5,381 648.5,388 641.9,388 641.9,393.5 638.6,393.5 638.6,414.1 633.9,414.1 633.9,445.9 627.3,445.9 599.7,374.9 599.7,333.6
604.1,330.4 604.1,314.5 606.9,313.5 606.9,308.8 612.4,308 "/></a>
<a href="/choose-flat" data-build="9"><polygon class="s3d-svg__house" data-build="9" points="1088.1,652.1 1090.2,651.6 1090.2,576.3 1082,573.3 1082,567 1077,565.3 1077,560 1045.8,546.5
1037.3,548.4 1032.3,546.5 1032.3,541.8 1018.2,535.6 1010.5,537.8 1005.9,536.4 1005.9,530.8 982.1,521.2 975.2,523.1 970,521.7
970,517 954.6,511 949.2,512 944.9,510.3 944.9,506.1 914.3,494.9 906.8,496.6 894.9,491.8 876.6,496.3 876.6,520.4 869.5,523
869.5,534.1 864.2,535.9 864.2,556.8 888.1,567.1 888.1,574 890.9,574.1 890.9,580.6 899.3,584.3 899.3,618.7 902.6,617.8
902.6,592.4 920.7,586.4 933.4,592.7 945.4,589.3 974,604 974,610 977,611.1 986.1,608.8 1000.1,615.2 1000.1,621.1 1004.7,623.3
1012,620.5 1038.8,631.3 1038.8,637.4 1042.3,638.4 1049.9,636.8 1066.1,642.7 1066.1,649.1 1071.6,650.9 1080.4,648.4 "/></a>
<a href="/choose-flat" data-build="12"><polygon class="s3d-svg__house" data-build="12" points="797.3,530.3 797.3,476.1 800,474.4 800,463 810.2,463 810.2,458.9 849.1,457 849.1,460.2 862.4,460.2
870.6,474.1 870.6,495.9 872.4,499.9 872.4,521.9 869.5,523 869.5,534.1 864.2,535.9 864.2,556.8 859.9,554.8 850.4,556.6
846.9,554.9 846.9,550 844.1,544.5 831.8,543.5 824.5,546.4 821.8,545.3 821.8,538.8 798.5,529.8 "/></a>
<a href="/choose-flat" data-build="2"><polygon class="s3d-svg__house" data-build="2" points="1040,547.8 1040,526.6 1044.9,525.3 1044.9,491.8 1069.4,484.9 1075.2,487.7 1082.7,485.6
1335.8,580.9 1335.8,617.6 1343.9,620.1 1343.9,671.2 1306,683 1090.2,595.7 1090.2,576.3 1082,573.3 1082,567 1077,565.3 1077,560
1045.8,546.5 "/></a>
<a href="/choose-flat" data-build="1"><polygon class="s3d-svg__house" data-build="1" points="1244,534.5 1244,546.3 1335.8,580.9 1335.8,617.6 1343.9,620.1 1343.9,622.3 1380.5,637.3
1415.8,625.7 1415.9,573.4 1411.1,575.5 1411.1,563.8 1404.3,561.2 1404.3,542.9 1395.2,540 1395.2,536 1384.3,531.8 1384.3,528.5
1361.5,520.4 1353.5,525.4 1352.6,524.5 1352.6,521.9 1341.8,518.7 1341.8,517.3 1338.7,517.3 1334.2,518.5 1334.2,520.5
1328.1,523.3 1328.1,521.1 1325.2,521.1 1322.4,523 1322.4,526.9 1320.1,526.9 1318.5,527.9 1312.1,530.3 1312.1,536.8 1311,536.8
1311,540.3 1273.8,526.5 "/></a>
<a href="/choose-flat" data-build="4"><polygon class="s3d-svg__house" data-build="4" points="797.3,476.1 723.6,445.9 723.6,402.3 727.9,401.4 727.9,389.2 733.7,388.1 733.7,373 734.9,372.5
734.9,371.2 733.8,370.2 733.8,368 752.4,363.8 761.9,368.7 768.7,366.6 794,376.6 794,381 796.8,382.2 803.9,380.2 816.4,385.3
816.4,389.9 819.3,390.6 826.7,388.7 847.8,397 847.8,402 849.6,402.2 858.9,400.7 870.9,405.9 870.9,410.1 875.5,411.9 875.5,414
882.6,410.7 902.8,418.4 902.8,422.2 907.2,424 913.3,421.5 926.5,426.6 926.5,431.1 930.6,432.7 937.3,430.9 960,439.7 960,443.7
964.4,444.9 970.8,443 983.9,448.4 983.9,452.9 987.8,454.2 995.8,452.7 1024.8,464.1 1024.8,469.2 1029,470.6 1029,478.1
1037.5,480.3 1037.5,540 1031.3,541.4 1018.2,535.6 1010.5,537.8 1005.9,536.4 1005.9,530.8 982.1,521.2 975.2,523.1 970,521.7
970,517 954.6,511 949.2,512 944.9,510.3 944.9,506.1 914.3,494.9 906.8,496.6 894.9,491.8 876.6,496.3 876.6,506.9 872.4,505.7
872.4,499.9 870.6,495.9 870.6,474.1 862.4,460.2 849.1,460.2 849.1,457 810.2,458.9 810.2,463 800,463 800,474.4 "/></a>
<a href="/choose-flat" data-build="3"><polygon class="s3d-svg__house" data-build="3" points="907.8,409.9 935.4,401.8 961.6,412.1 961.6,397.7 982.9,392.5 991.1,394.9 997,394.1 998.1,394.1
998.1,395.9 999.8,396.7 1007.4,393.3 1015.9,396.2 1015.9,399.6 1022.4,402.3 1027.1,400.6 1041.1,405.5 1041.1,409.8
1058.8,416.1 1066.2,413.6 1099.9,426.3 1099.9,430.4 1112.2,435.3 1117.8,437.3 1123.3,435.7 1140.3,440.9 1140.3,443.9
1147.3,447 1151.9,445.8 1152.9,447 1159.9,447 1159.9,452.1 1179.4,459.7 1187.1,457.8 1209,465.3 1209,468.9 1218.6,471.6
1218.6,479.3 1220.2,480.3 1220.2,487.5 1226.1,489.4 1226.1,492.9 1229.7,494 1229.7,497.4 1232.4,499.2 1232.4,507.6
1237.3,509.2 1237.3,543.8 1082.7,485.6 1075.2,487.7 1069.4,484.9 1044.9,491.8 1044.9,510.1 1037.5,506.9 1037.5,480.3
1029,478.1 1029,470.6 1024.8,469.2 1024.8,464.1 995.8,452.7 987.8,454.2 983.9,452.9 983.9,448.4 970.8,443 964.4,444.9
960,443.7 960,439.7 937.3,430.9 930.6,432.7 926.5,431.1 926.5,426.6 913.3,421.5 907.8,423.8 "/></a>
<a href="/choose-flat" data-build="5"><polygon class="s3d-svg__house" data-build="5" points="720.9,381 720.9,319.7 728,318 728,308.4 744.2,304.2 754.3,310 759.8,307 771.8,312.2 775.4,310.7
792.4,316.5 792.4,319.7 808.2,325.5 814.7,324.3 825.9,328.3 825.9,331.3 832.6,333.9 837.4,332.3 842.4,334.5 842.4,338
857.1,343.8 857.1,345.9 860.1,347.3 868,346 889.7,354 889.7,367.6 895.4,369.4 895.4,374.8 901.6,378.4 901.6,386.2 906.7,388.4
906.7,424 902.8,422.2 902.8,418.4 882.6,410.7 875.5,414 875.5,411.9 870.9,410.1 870.9,405.9 858.9,400.7 849.6,402.2 847.8,402
847.8,397 826.7,388.7 819.3,390.6 816.4,389.9 816.4,385.3 803.9,380.2 796.8,382.2 794,381 794,376.6 768.7,366.6 761.9,368.7
752.4,363.8 733.8,368 733.8,370.2 734.9,371.2 734.9,372.5 733.7,373 733.7,386.1 "/></a>
<a href="/choose-flat" data-build="7"><polygon class="s3d-svg__house" data-build="7" points="690.3,375.3 669.3,364.7 669.3,363.6 659.9,344.1 657.1,344.1 657.1,338.4 653.8,330 651.2,330
651.2,325.5 649.1,320.7 647.3,320.7 647.3,316.2 641.9,305.9 633.4,305.9 632.5,301.8 612.4,302.8 612.4,308 606.9,308.8
606.9,313.5 604.1,314.5 604.1,330.4 599.7,333.6 599.7,274.5 606,274.5 606,264.1 619.6,260.6 630.8,264.1 635.3,263.4
646.8,267.4 652.2,265.5 668.5,271.3 668.5,275.9 680,279.5 686.7,278.2 702.7,284.2 702.7,288.2 710.3,288.2 710.3,293.6
742,304.8 728,308.4 728,318 720.9,319.7 720.9,366 "/></a>
<g class="js-s3d-svg__point-group s3d-svg__point-group" data-type="tennis court">
	<path class="s3d-svg__point-bg" d="M769.3,182.4c-17.2,0-31.1,13.7-31.1,30.5c-0.1,24.6,30,45,31.1,45.8c0,0,31.3-21.2,31.1-45.8
		C800.5,196.1,786.5,182.4,769.3,182.4z"/>
	<g>
		<path class="s3d-svg__point" d="M776.7,202.9l-1.9-1.9l-1.9,1.9l1.9,1.9L776.7,202.9z"/>
		<path class="s3d-svg__point" d="M776.7,208.4l-1.9-1.9l-1.9,1.9l1.9,1.9L776.7,208.4z"/>
		<path class="s3d-svg__point" d="M767.4,208.4l1.9,1.9l1.9-1.9l-1.9-1.9L767.4,208.4z"/>
		<path class="s3d-svg__point" d="M784.6,205.2l-1.4-1.4l-1.9,1.9l2.4,2.4C784.1,207.1,784.4,206.1,784.6,205.2z"/>
		<path class="s3d-svg__point" d="M783,209.2l-2.6-2.6l-1.9,1.9l2.9,2.9C782,210.6,782.6,209.9,783,209.2z"/>
		<path class="s3d-svg__point" d="M779.5,205.7l-1.9-1.9l-1.9,1.9l1.9,1.9L779.5,205.7z"/>
		<path class="s3d-svg__point" d="M782.3,202.9l-1.9-1.9l-1.9,1.9l1.9,1.9L782.3,202.9z"/>
		<path class="s3d-svg__point" d="M774,205.7l-1.9-1.9l-1.9,1.9l1.9,1.9L774,205.7z"/>
		<path class="s3d-svg__point" d="M762.1,212.4l-2.5,4.9l3.6,3.6l0.1,0.1l4.8-2.5c-1.4-0.5-2.6-1.3-3.6-2.3
			C763.4,215.1,762.6,213.8,762.1,212.4z"/>
		<path class="s3d-svg__point" d="M766.2,214.4c-1.8-1.8-2.7-4.4-2.4-7.3c0.3-3,1.8-6,4.1-8.4c2.7-2.7,6.1-4.2,9.4-4.2c2.5,0,4.6,0.8,6.2,2.4
			c3.8,3.8,3.1,10.9-1.7,15.7c-0.3,0.3-0.5,0.5-0.8,0.8c0.4,0.1,0.9,0.3,1.3,0.5c0.1-0.1,0.3-0.3,0.4-0.4c5.3-5.3,6.1-13.1,1.7-17.4
			c-1.8-1.8-4.3-2.8-7.1-2.8c-3.7,0-7.4,1.7-10.3,4.5c-5.3,5.3-6.1,13.1-1.7,17.4c1.4,1.4,3.3,2.4,5.5,2.7c0.2-0.4,0.4-0.8,0.7-1.2
			C769.4,216.6,767.6,215.8,766.2,214.4z"/>
		<path class="s3d-svg__point" d="M752.1,225c-0.5,0.5-0.7,1.1-0.7,1.7c0,1.3,1.1,2.4,2.4,2.4c0.6,0,1.3-0.3,1.7-0.7l6.7-6.7l-3.4-3.4
			L752.1,225z M754.3,227.1l-0.9-0.9l3.1-3.1l0.9,0.9L754.3,227.1z M759.9,221.5l-1.2,1.2l-0.9-0.9l1.2-1.2L759.9,221.5z"/>
		<path class="s3d-svg__point" d="M772.4,215.6C772.4,215.6,772.4,215.6,772.4,215.6c0.1-0.1,0.2-0.1,0.2-0.2l-0.6-0.6l-0.7,0.7
			C771.7,215.6,772.1,215.6,772.4,215.6z"/>
		<path class="s3d-svg__point" d="M777.6,202l1.9-1.9l-1.9-1.9l-1.9,1.9L777.6,202z"/>
		<path class="s3d-svg__point" d="M778.2,195.8c-0.3,0-0.6,0-0.9,0c-0.1,0-0.2,0-0.4,0l0.6,0.6L778.2,195.8z"/>
		<path class="s3d-svg__point" d="M772.1,209.3l-1.9,1.9l1.9,1.9l1.9-1.9L772.1,209.3z"/>
		<path class="s3d-svg__point" d="M771.2,214l-1.9-1.9l-1.8,1.8c0.7,0.6,1.5,1,2.5,1.3L771.2,214z"/>
		<path class="s3d-svg__point" d="M765,209.1l0.6-0.6l-0.7-0.7C765,208.2,765,208.7,765,209.1z"/>
		<path class="s3d-svg__point" d="M768.4,211.2l-1.9-1.9l-1.2,1.2c0.3,0.9,0.7,1.8,1.3,2.5L768.4,211.2z"/>
		<path class="s3d-svg__point" d="M778.5,213.1c0.3,0,0.6,0,0.9,0c0.4-0.3,0.8-0.6,1.1-0.9l-2.9-2.9l-1.9,1.9l1.9,1.9
			C777.9,213.1,778.2,213.1,778.5,213.1z"/>
		<path class="s3d-svg__point" d="M776.2,213.4l-1.3-1.3l-1.9,1.9l0.6,0.6C774.4,214.1,775.2,213.7,776.2,213.4z"/>
		<path class="s3d-svg__point" d="M784.1,221.1c0.6,0,1.2-0.1,1.8-0.3c-0.2-1.6-0.9-3.1-2.1-4.3c-1.2-1.2-2.7-1.9-4.3-2.1
			c-0.2,0.6-0.3,1.2-0.3,1.8C779.2,218.9,781.4,221.1,784.1,221.1z"/>
		<path class="s3d-svg__point" d="M784.7,202.2l-0.7,0.7l0.7,0.7C784.8,203.1,784.8,202.7,784.7,202.2z"/>
		<path class="s3d-svg__point" d="M773,222.3c-0.6,0-1.2,0.1-1.8,0.3c0.2,1.6,0.9,3.1,2.1,4.3c1.2,1.2,2.7,1.9,4.3,2.1c0.2-0.6,0.3-1.2,0.3-1.8
			C777.9,224.6,775.7,222.3,773,222.3z"/>
		<path class="s3d-svg__point" d="M777.9,216.2c0-0.6,0.1-1.2,0.3-1.8c-1.9,0.1-3.6,0.8-4.9,2.2c-1.4,1.4-2.1,3.1-2.1,4.9
			c0.6-0.2,1.2-0.3,1.8-0.3c3.4,0,6.2,2.8,6.2,6.2c0,0.6-0.1,1.2-0.3,1.8c1.9-0.1,3.6-0.8,4.9-2.2c1.4-1.4,2.1-3.1,2.1-4.9
			c-0.6,0.2-1.2,0.3-1.8,0.3C780.7,222.3,777.9,219.6,777.9,216.2z"/>
		<path class="s3d-svg__point" d="M778.5,197.3l1.9,1.9l1.8-1.8c-0.7-0.6-1.6-1-2.5-1.3L778.5,197.3z"/>
		<path class="s3d-svg__point" d="M772.5,196.9l2.3,2.3l1.9-1.9l-1.3-1.3C774.4,196.2,773.5,196.5,772.5,196.9z"/>
		<path class="s3d-svg__point" d="M781.3,200.1l1.9,1.9l1.3-1.3c-0.3-0.9-0.7-1.7-1.3-2.5L781.3,200.1z"/>
		<path class="s3d-svg__point" d="M765.2,206.2l1.4,1.4l1.9-1.9l-2.3-2.3C765.7,204.3,765.4,205.2,765.2,206.2z"/>
		<path class="s3d-svg__point" d="M769.2,199.2l2.8,2.8l1.9-1.9l-2.6-2.6C770.6,198,769.9,198.6,769.2,199.2z"/>
		<path class="s3d-svg__point" d="M766.7,202.2l2.6,2.6l1.9-1.9l-2.8-2.8C767.7,200.7,767.2,201.5,766.7,202.2z"/>
	</g>
	<rect x="699.2" y="141.3" class="s3d-svg__text-bg" width="140.2" height="31.1"/>
	<text transform="matrix(1 0 0 1 710.3074 161.8206)" class="s3d-svg__text">Тенісний корт</text>
</g>
<g class="js-s3d-svg__point-group s3d-svg__point-group" data-type="skate park">
	<path class="s3d-svg__point-bg" d="M890.8,236.8c-17.2,0-31.1,13.7-31.1,30.5c-0.1,24.6,30,45,31.1,45.8c0,0,31.3-21.2,31.1-45.8
		C921.9,250.5,908,236.8,890.8,236.8z"/>
	<g>
		<path class="s3d-svg__point" d="M908.2,269.6c-0.3-0.3-0.8-0.3-1.1-0.1l-2.2,2c-1.7,1.6-3.8,2.8-6.1,3.5l-14.7,4.7c-2.2,0.7-4.7,1-7,0.7
			l-3-0.3c-0.4,0-0.8,0.3-0.9,0.7c0,0.4,0.3,0.8,0.7,0.9l3,0.3c0.6,0.1,1.3,0.1,2,0.1c1.9,0,3.8-0.3,5.7-0.9l14.7-4.7
			c2.5-0.8,4.8-2.1,6.7-3.8l2.2-2C908.4,270.4,908.5,269.9,908.2,269.6z"/>
		<path class="s3d-svg__point" d="M884.7,284.6c0.8-0.2,1.2-1.1,0.9-1.8c-0.2-0.8-1.1-1.2-1.8-0.9c-0.8,0.2-1.2,1.1-0.9,1.8
			C883.1,284.4,883.9,284.8,884.7,284.6z"/>
		<path class="s3d-svg__point" d="M901.1,279.3c0.8-0.2,1.2-1.1,0.9-1.8c-0.2-0.8-1.1-1.2-1.8-0.9c-0.8,0.2-1.2,1.1-0.9,1.8
			C899.5,279.1,900.3,279.6,901.1,279.3z"/>
		<path class="s3d-svg__point" d="M892.8,253.9c0-0.4-0.1-0.9-0.2-1.2c0,0-0.1,0-0.1,0h-6.8c0,0-0.1,0-0.1,0c-0.1,0.4-0.2,0.8-0.2,1.2
			c0,1.3,0.7,2.5,1.7,3.1c0.1,0.1,0.3,0.2,0.5,0.3c0.1,0,0.2,0.1,0.3,0.1c0.1,0,0.3,0.1,0.4,0.1c0.1,0,0.1,0,0.2,0
			c0.2,0,0.4,0.1,0.7,0.1s0.4,0,0.7-0.1c0.1,0,0.1,0,0.2,0c0.1,0,0.3-0.1,0.4-0.1c0.1,0,0.1-0.1,0.2-0.1c0.1-0.1,0.3-0.1,0.4-0.2
			c0.1,0,0.1-0.1,0.2-0.1C892.1,256.3,892.8,255.2,892.8,253.9z"/>
		<path class="s3d-svg__point" d="M885.7,251.9h6.8c0.3,0,0.6-0.1,0.8-0.4c0.2-0.3,0.2-0.6,0.1-0.9c-0.7-1.8-2.4-2.9-4.3-2.9
			c-1.9,0-3.6,1.1-4.3,2.9c-0.1,0.3-0.1,0.6,0.1,0.9C885.1,251.7,885.3,251.9,885.7,251.9z"/>
		<path class="s3d-svg__point" d="M878.6,265.4l6.8-4v7.4h-2.8c0,0-0.1,0-0.1,0c-0.1,0-0.3,0-0.4,0c-0.8,0.1-1.4,0.9-1.3,1.8l1,6.4
			c0.1,0.8,0.9,1.4,1.8,1.3c0.9-0.1,1.4-0.9,1.3-1.8l-0.7-4.1h3.3h2.5h1.1c0.1,0,0.3,0,0.4,0c0.4,0,0.7-0.2,1-0.4l3.3-3l0.3,1.9
			c0.1,0.8,0.9,1.4,1.8,1.3c0.8-0.1,1.4-0.9,1.3-1.8l-0.8-5.1c-0.1-0.8-0.9-1.3-1.6-1.3c-0.5,0-1,0.1-1.4,0.5l-2.3,2.1v-5.2l7.1,3.8
			c0.7,0.4,1.7,0.1,2.1-0.6c0.4-0.7,0.1-1.7-0.6-2.1l-9.6-5.2c-0.8,0.7-1.9,1.2-3.1,1.2c-1.1,0-2.1-0.4-2.8-1l-9.1,5.3
			c-0.7,0.4-1,1.4-0.6,2.1C877,265.6,877.9,265.8,878.6,265.4z"/>
	</g>
	<rect x="830" y="195.6" class="s3d-svg__text-bg" width="121.5" height="31.1"/>
	<text transform="matrix(1 0 0 1 844.8592 216.1655)" class="s3d-svg__text">Скейт парк</text>
</g>
<g class="js-s3d-svg__point-group s3d-svg__point-group" data-type="workout zone">
	<path class="s3d-svg__point-bg" d="M1223.6,315.4c-17.2,0-31.1,13.7-31.1,30.5c-0.1,24.6,30,45,31.1,45.8c0,0,31.3-21.2,31.1-45.8
		C1254.7,329.1,1240.7,315.4,1223.6,315.4z"/>
	<path class="s3d-svg__point" d="M1236.5,329h-1.7c-0.3,0-0.6,0.3-0.6,0.6v1.3h-3.2c-0.2-0.4-0.6-0.6-1.1-0.6c-0.5,0-0.9,0.2-1.2,0.6h-2.1
		c0.3,0.4,0.5,0.9,0.6,1.5h1.2c-0.1,1.4-0.2,2.8-0.3,3.4c-0.5,0.3-2.2,0.8-3.7,0.8h-2c-1.5,0-3.2-0.4-3.7-0.8
		c-0.1-0.6-0.2-2-0.3-3.4h1.4c0.1-0.5,0.3-1,0.6-1.5h-2.3c-0.2-0.4-0.7-0.7-1.2-0.6c-0.4,0-0.8,0.3-1,0.6h-3v-1.3
		c0-0.3-0.3-0.6-0.6-0.6h-1.7c-0.3,0-0.6,0.3-0.6,0.6v30.6c0,0.3,0.3,0.6,0.6,0.6h1.7c0.3,0,0.6-0.3,0.6-0.6v-27.9h2.9
		c0.1,1.3,0.2,3.4,0.5,4.3c0.4,1.4,2.5,2,4.1,2.3l0.2,5.6l-1.8,9.5c-0.2,0.8,0.4,1.6,1.2,1.8c0.1,0,0.2,0,0.3,0
		c0.7,0,1.4-0.5,1.5-1.3l1.7-9.1l1.7,9.1c0.2,0.8,1,1.4,1.8,1.2c0.8-0.2,1.4-1,1.2-1.8l-1.8-9.5l0.2-5.6c1.6-0.3,3.5-0.9,3.9-2.3
		c0.2-0.8,0.4-3,0.5-4.3h3v27.9c0,0.3,0.3,0.6,0.6,0.6h1.7c0.3,0,0.6-0.3,0.6-0.6v-30.6C1237,329.3,1236.8,329,1236.5,329z"/>
	<path class="s3d-svg__point" d="M1223.6,335.8c1.5,0,2.7-1.2,2.7-2.7s-1.2-2.7-2.7-2.7s-2.7,1.2-2.7,2.7S1222.1,335.8,1223.6,335.8z"/>
	<rect x="1155" y="274.3" class="s3d-svg__text-bg" width="137" height="31.1"/>
	<text transform="matrix(1 0 0 1 1167.2195 294.205)" class="s3d-svg__text">Воркаут зона</text>
</g>
<g class="js-s3d-svg__point-group s3d-svg__point-group" data-type="workout zone">
	<path class="s3d-svg__point-bg" d="M1466.5,407.3c-17.2,0-31.1,13.7-31.1,30.5c-0.1,24.6,30,45,31.1,45.8c0,0,31.3-21.2,31.1-45.8
		C1497.7,421,1483.7,407.3,1466.5,407.3z"/>
	<path class="s3d-svg__point" d="M1479.5,420.9h-1.7c-0.3,0-0.6,0.3-0.6,0.6v1.3h-3.2c-0.2-0.4-0.6-0.6-1.1-0.6c-0.5,0-0.9,0.2-1.2,0.6h-2.1
		c0.3,0.4,0.5,0.9,0.6,1.5h1.2c-0.1,1.4-0.2,2.8-0.3,3.4c-0.5,0.3-2.2,0.8-3.7,0.8h-2c-1.5,0-3.2-0.4-3.7-0.8
		c-0.1-0.6-0.2-2-0.3-3.4h1.4c0.1-0.5,0.3-1,0.6-1.5h-2.3c-0.2-0.4-0.7-0.7-1.2-0.6c-0.4,0-0.8,0.3-1,0.6h-3v-1.3
		c0-0.3-0.3-0.6-0.6-0.6h-1.7c-0.3,0-0.6,0.3-0.6,0.6v30.6c0,0.3,0.3,0.6,0.6,0.6h1.7c0.3,0,0.6-0.3,0.6-0.6v-27.9h2.9
		c0.1,1.3,0.2,3.4,0.5,4.3c0.4,1.4,2.5,2,4.1,2.3l0.2,5.6l-1.8,9.5c-0.2,0.8,0.4,1.6,1.2,1.8c0.1,0,0.2,0,0.3,0
		c0.7,0,1.4-0.5,1.5-1.3l1.7-9.1l1.7,9.1c0.2,0.8,1,1.4,1.8,1.2c0.8-0.2,1.4-1,1.2-1.8l-1.8-9.5l0.2-5.6c1.6-0.3,3.5-0.9,3.9-2.3
		c0.2-0.8,0.4-3,0.5-4.3h3v27.9c0,0.3,0.3,0.6,0.6,0.6h1.7c0.3,0,0.6-0.3,0.6-0.6v-30.6C1480,421.2,1479.8,420.9,1479.5,420.9z"/>
	<path class="s3d-svg__point" d="M1466.5,427.7c1.5,0,2.7-1.2,2.7-2.7s-1.2-2.7-2.7-2.7s-2.7,1.2-2.7,2.7S1465.1,427.7,1466.5,427.7z"/>
	<rect x="1398" y="366.2" class="s3d-svg__text-bg" width="137" height="31.1"/>
	<text transform="matrix(1 0 0 1 1410.1934 386.152)" class="s3d-svg__text">Воркаут зона</text>
</g>
<g class="js-s3d-svg__point-group s3d-svg__point-group" data-type="channel">
	<path class="s3d-svg__point-bg" d="M952.6,313.5c-17.2,0-31.1,13.7-31.1,30.5c-0.1,24.6,30,45,31.1,45.8c0,0,31.3-21.2,31.1-45.8
		C983.7,327.2,969.8,313.5,952.6,313.5z"/>
	<g>
		<path class="st7" d="M968.4,333.9c-3-2.1-5.9-2.1-8.9,0c-2.1,1.4-4.1,1.4-6.3,0c-2.9-2.1-5.9-2.1-8.8,0c-2.2,1.4-4.1,1.4-6.3,0
			c-1-0.7-2.2-1.5-4.4-1.5v2.1c1.6,0,2.3,0.5,3.2,1.1c2.9,2,5.9,2,8.8,0c2.2-1.5,4.2-1.5,6.3,0c2.9,2,5.9,2,8.8,0
			c2.2-1.5,4.2-1.5,6.3,0c1,0.7,2.2,1.4,4.5,1.4v-2.1C969.9,334.9,969.2,334.5,968.4,333.9z"/>
		<path class="st7" d="M968.4,339.5c-3-2.1-5.9-2.1-8.9,0c-2.1,1.4-4.1,1.4-6.3,0c-2.9-2.1-5.9-2.1-8.8,0c-2.2,1.4-4.1,1.4-6.3,0
			c-1-0.7-2.2-1.5-4.4-1.5v2.1c1.6,0,2.3,0.5,3.2,1.1c2.9,2,5.9,2,8.8,0c2.2-1.5,4.2-1.5,6.3,0c2.9,2,5.9,2,8.8,0
			c2.2-1.5,4.2-1.5,6.3,0c1,0.7,2.2,1.4,4.5,1.4v-2.1C969.9,340.6,969.2,340.1,968.4,339.5z"/>
		<path class="st7" d="M968.4,345.1c-3-2.1-5.9-2.1-8.9,0c-2.1,1.4-4.1,1.4-6.3,0c-2.9-2.1-5.9-2.1-8.8,0c-2.2,1.4-4.1,1.4-6.3,0
			c-1-0.7-2.2-1.5-4.4-1.5v2.1c1.6,0,2.3,0.5,3.2,1.1c2.9,2,5.9,2,8.8,0c2.2-1.5,4.2-1.5,6.3,0c2.9,2,5.9,2,8.8,0
			c2.2-1.5,4.2-1.5,6.3,0c1,0.7,2.2,1.4,4.5,1.4v-2.1C969.9,346.2,969.2,345.8,968.4,345.1z"/>
		<path class="st7" d="M968.4,350.8c-3-2.1-5.9-2.1-8.9,0c-2.1,1.4-4.1,1.4-6.3,0c-2.9-2.1-5.9-2.1-8.8,0c-2.2,1.4-4.1,1.4-6.3,0
			c-1-0.7-2.2-1.5-4.4-1.5v2.1c1.6,0,2.3,0.5,3.2,1.1c2.9,2,5.9,2,8.8,0c2.2-1.5,4.2-1.5,6.3,0c2.9,2,5.9,2,8.8,0
			c2.2-1.5,4.2-1.5,6.3,0c1,0.7,2.2,1.4,4.5,1.4v-2.1C969.9,351.9,969.2,351.4,968.4,350.8z"/>
	</g>
	<rect x="913.7" y="272.4" class="s3d-svg__text-bg" width="77.9" height="31.1"/>
	<text transform="matrix(1 0 0 1 927.265 292.3431)" class="s3d-svg__text">канал</text>
</g>
<g class="js-s3d-svg__point-group s3d-svg__point-group" data-type="stadium">
	<path class="s3d-svg__point-bg" d="M1338,366.2c-17.2,0-31.1,13.7-31.1,30.5c-0.1,24.6,30,45,31.1,45.8c0,0,31.3-21.2,31.1-45.8
		C1369.1,379.9,1355.2,366.2,1338,366.2z"/>
	<path class="s3d-svg__point" d="M1321.9,384.9v0.9h1.2v1c0.2,0,0.3-0.1,0.5-0.1v-1.8C1322.9,384.9,1322.4,384.9,1321.9,384.9z M1352.5,384.9
		v1.8c0.2,0,0.3,0.1,0.5,0.1v-1h1.2v-0.9C1353.6,384.9,1353.1,384.9,1352.5,384.9z M1319.1,385.8v0.9h1.2v0.9
		c0.1-0.1,0.3-0.1,0.5-0.2v-1.7C1320.2,385.8,1319.6,385.8,1319.1,385.8z M1338,385.8c-11.5,0-20.8,2.5-20.8,5.5
		c0,0.9,0.8,1.8,2.3,2.5c1.9-1.5,5.1-3.1,7.9-3.8c3.2-0.7,6.9-1.1,10.6-1.1c3.7,0,7.4,0.3,10.6,0.9c3,0.6,6.5,2.4,8.3,3.8
		c1.2-0.7,1.9-1.5,1.9-2.3C1358.8,388.3,1349.5,385.8,1338,385.8L1338,385.8z M1355.3,385.8v1.7c0.2,0.1,0.3,0.1,0.5,0.2v-0.9h1.2
		v-0.9C1356.4,385.8,1355.8,385.8,1355.3,385.8z M1316.3,387.7v0.9h1.2v0.5c0.1-0.1,0.3-0.2,0.5-0.3v-1.1
		C1317.4,387.7,1316.9,387.7,1316.3,387.7z M1358.1,387.7v1.1c0.2,0.1,0.3,0.2,0.5,0.3v-0.5h1.2v-0.9
		C1359.1,387.7,1358.6,387.7,1358.1,387.7z M1338,390.8c-3.6,0-7.2,0.4-10.2,1.1c-2.3,0.5-4.7,1.7-6.3,2.8c0.4,0.1,0.8,0.3,1.2,0.4
		c3.5-1.8,9.7-3.3,15.2-3.3s11.8,1.4,15.3,3.3c0.6-0.2,1.1-0.3,1.6-0.5c-1.6-1.1-4.2-2.4-6.7-2.9
		C1345.2,391.1,1341.6,390.8,1338,390.8z M1338,393.7c-4.2,0-9,1-12.2,2.2c3.4,0.7,7.6,1.1,12.2,1.1c4.6,0,8.8-0.4,12.2-1.1
		C1347,394.7,1342.2,393.7,1338,393.7z M1358.3,393.8c-1.2,0.8-3,1.5-5.1,2.1c-4,1.1-9.3,1.7-15.2,1.7c-5.9,0-11.3-0.6-15.2-1.7
		c-2-0.5-3.7-1.2-4.9-1.9l2.6,10.4c3.6,1.7,7.2,2.9,10.8,3.5l-0.7-2.9c-0.1-0.3,0-0.6,0.2-0.9l2.3-2.3c0.1-0.1,0.4-0.2,0.6-0.3
		c2.8,0,5.6,0,8.4,0c0.2,0,0.5,0.1,0.7,0.3l2.3,2.3c0.2,0.2,0.3,0.6,0.2,0.9l-0.7,2.9c3.8-0.6,7.5-1.8,11.3-3.6L1358.3,393.8z
		 M1333.8,402.4l-1.4,1.4h11.1l-1.4-1.4H1333.8z M1333.6,405.6l1,4.2h6.8l1-4.2H1333.6z"/>
	<rect x="1291.3" y="325.1" class="s3d-svg__text-bg" width="93.4" height="31.1"/>
	<text transform="matrix(1 0 0 1 1305.083 345.007)" class="s3d-svg__text">стадіон</text>
</g>
<g class="js-s3d-svg__point-group s3d-svg__point-group" data-type="park">
	<path class="s3d-svg__point-bg" d="M1559.3,463.7c-17.2,0-31.1,13.7-31.1,30.5c-0.1,24.6,30,45,31.1,45.8c0,0,31.3-21.2,31.1-45.8
		C1590.5,477.4,1576.5,463.7,1559.3,463.7z"/>
	<g>
		<path class="s3d-svg__point" d="M1558.1,500h-1.8v-1.8c0-0.3-0.3-0.6-0.6-0.6s-0.6,0.3-0.6,0.6v1.8H1545v-1.8c0-0.3-0.3-0.6-0.6-0.6
			c-0.3,0-0.6,0.3-0.6,0.6v1.8h-1.8c-0.3,0-0.6,0.3-0.6,0.6v2.4c0,0.3,0.3,0.6,0.6,0.6h1.8v1.2h-1.8c-0.3,0-0.6,0.3-0.6,0.6v2.4
			c0,0.3,0.3,0.6,0.6,0.6h0.6v3c0,0.3,0.3,0.6,0.6,0.6h2.4c0.3,0,0.6-0.3,0.6-0.6v-3h7.8v3c0,0.3,0.3,0.6,0.6,0.6h2.4
			c0.3,0,0.6-0.3,0.6-0.6v-3h0.6c0.3,0,0.6-0.3,0.6-0.6v-2.4c0-0.3-0.3-0.6-0.6-0.6h-1.8v-1.2h1.8c0.3,0,0.6-0.3,0.6-0.6v-2.4
			C1558.7,500.3,1558.5,500,1558.1,500z M1545,510.8h-1.2v-2.4h1.2V510.8z M1556.4,510.8h-1.2v-2.4h1.2V510.8z M1555.2,504.8H1545
			v-1.2h10.1V504.8z"/>
		<path class="s3d-svg__point" d="M1574.3,481.5L1574.3,481.5c-0.3-1.7-1.8-3-3.6-3c-0.9,0-1.8,0.4-2.4,0.9v-2.7c0-0.3-0.3-0.6-0.6-0.6
			c-0.3,0-0.6,0.3-0.6,0.6v2.7c-0.6-0.6-1.5-0.9-2.4-0.9c-1.8,0-3.2,1.3-3.5,3h-0.1c-1.6,0-3,1.3-3,3c0,0.3,0.3,0.6,0.6,0.6h1.2v1.2
			c0,1,0.8,1.8,1.8,1.8c1,0,1.8-0.8,1.8-1.8v-1.2h1.2c0.3,0,0.6-0.3,0.6-0.6c0-1.6-1.3-2.9-2.9-3c0.3-1,1.2-1.8,2.3-1.8
			c1.3,0,2.4,1.1,2.4,2.4v8.5c-0.7,0.2-1.2,0.9-1.2,1.7V504c-0.8,0.3-1.5,0.9-1.9,1.6c-0.1,0-0.2-0.1-0.3-0.1c-0.1,0-0.1,0-0.2-0.1
			c-0.2,0-0.4-0.1-0.6-0.1c-1.6,0-3,1.3-3,3v3c0,0.3,0.3,0.6,0.6,0.6h14.3c0.3,0,0.6-0.3,0.6-0.6v-3c0-1.6-1.3-3-3-3
			c-0.2,0-0.4,0-0.6,0.1c-0.1,0-0.1,0-0.2,0.1c-0.1,0-0.2,0-0.3,0.1c-0.4-0.7-1.1-1.3-1.9-1.6v-11.7c0-0.8-0.5-1.4-1.2-1.7v-8.5
			c0-1.3,1.1-2.4,2.4-2.4c1.1,0,2,0.8,2.3,1.8c-1.6,0-2.9,1.4-2.9,3c0,0.3,0.3,0.6,0.6,0.6h1.2v1.2c0,1,0.8,1.8,1.8,1.8
			c1,0,1.8-0.8,1.8-1.8v-1.2h1.2c0.3,0,0.6-0.3,0.6-0.6C1577.2,482.9,1575.9,481.5,1574.3,481.5z"/>
		<path class="s3d-svg__point" d="M1543.8,482.7h6c1.3,0,2.4-1.1,2.4-2.4c0-1.4-1.2-2.5-2.6-2.4c-0.5-1.1-1.5-1.8-2.7-1.8
			c-1.2,0-2.3,0.7-2.7,1.8c-1.4-0.2-2.6,1-2.6,2.4C1541.4,481.6,1542.5,482.7,1543.8,482.7z"/>
		<path class="s3d-svg__point" d="M1556.7,489.3c-0.5-1.1-1.5-1.8-2.7-1.8c-1.2,0-2.3,0.7-2.7,1.8c-1.4-0.2-2.6,1-2.6,2.4
			c0,1.3,1.1,2.4,2.4,2.4h6c1.3,0,2.4-1.1,2.4-2.4C1559.3,490.3,1558.1,489.1,1556.7,489.3z"/>
	</g>
	<rect x="1525.1" y="422.6" class="s3d-svg__text-bg" width="68.5" height="31.1"/>
	<text transform="matrix(1 0 0 1 1539.6279 442.5034)" class="s3d-svg__text">парк</text>
</g>
<g class="js-s3d-svg__point-group s3d-svg__point-group" data-type="beach">
	<path class="s3d-svg__point-bg" d="M671,847.2c-17.2,0-31.1,13.7-31.1,30.5c-0.1,24.6,30,45,31.1,45.8c0,0,31.3-21.2,31.1-45.8
		C702.2,860.9,688.2,847.2,671,847.2z"/>
	<g>
		<path class="s3d-svg__point" d="M659,878c2,0,3.6-1.6,3.6-3.6c0-2-1.6-3.6-3.6-3.6c-2,0-3.6,1.6-3.6,3.6C655.4,876.4,657,878,659,878z"/>
		<path class="s3d-svg__point" d="M659,869.6c0.6,0,1-0.4,1-1v-1.9c0-0.6-0.4-1-1-1c-0.6,0-1,0.4-1,1v1.9C658,869.1,658.4,869.6,659,869.6z"/>
		<path class="s3d-svg__point" d="M654.2,871c0.2,0.2,0.4,0.3,0.7,0.3c0.3,0,0.5-0.1,0.7-0.3c0.2-0.2,0.3-0.4,0.3-0.7s-0.1-0.5-0.3-0.7
			l-1.3-1.3c-0.4-0.4-1-0.4-1.4,0c-0.2,0.2-0.3,0.4-0.3,0.7c0,0.3,0.1,0.5,0.3,0.7L654.2,871z"/>
		<path class="s3d-svg__point" d="M654.2,874.4c0-0.6-0.4-1-1-1h-1.9c-0.6,0-1,0.4-1,1c0,0.6,0.4,1,1,1h1.9C653.7,875.5,654.2,875,654.2,874.4z
			"/>
		<path class="s3d-svg__point" d="M654.2,877.9l-1.3,1.3c-0.2,0.2-0.3,0.4-0.3,0.7c0,0.3,0.1,0.5,0.3,0.7c0.2,0.2,0.4,0.3,0.7,0.3
			c0.3,0,0.5-0.1,0.7-0.3l1.3-1.3c0.2-0.2,0.3-0.4,0.3-0.7c0-0.3-0.1-0.5-0.3-0.7C655.2,877.5,654.5,877.5,654.2,877.9z"/>
		<path class="s3d-svg__point" d="M658,880.3v1.9c0,0.6,0.4,1,1,1c0.6,0,1-0.4,1-1v-1.9c0-0.6-0.4-1-1-1C658.4,879.3,658,879.8,658,880.3z"/>
		<path class="s3d-svg__point" d="M662.4,877.9c-0.2,0.2-0.3,0.4-0.3,0.7c0,0.3,0.1,0.5,0.3,0.7l1.3,1.3c0.2,0.2,0.4,0.3,0.7,0.3
			c0.3,0,0.5-0.1,0.7-0.3c0.2-0.2,0.3-0.4,0.3-0.7c0-0.3-0.1-0.5-0.3-0.7l-1.3-1.3C663.5,877.5,662.8,877.5,662.4,877.9z"/>
		<path class="s3d-svg__point" d="M663.9,874.4c0,0.6,0.4,1,1,1h1.9c0.6,0,1-0.4,1-1c0-0.6-0.4-1-1-1h-1.9C664.3,873.4,663.9,873.9,663.9,874.4
			z"/>
		<path class="s3d-svg__point" d="M663.2,871.3c0.3,0,0.5-0.1,0.7-0.3l1.3-1.3c0.2-0.2,0.3-0.4,0.3-0.7c0-0.3-0.1-0.5-0.3-0.7
			c-0.4-0.4-1-0.4-1.4,0l-1.3,1.3c-0.2,0.2-0.3,0.4-0.3,0.7s0.1,0.5,0.3,0.7C662.6,871.2,662.9,871.3,663.2,871.3z"/>
		<path class="s3d-svg__point" d="M690.8,888.3c-0.5,0-1-0.2-1.5-0.4c-0.5-0.3-1.1-0.5-1.7-0.5h-0.2c-0.6,0-1.2,0.2-1.7,0.5
			c-0.5,0.3-1,0.4-1.5,0.4s-1-0.2-1.5-0.4c-0.5-0.3-1.1-0.5-1.7-0.5h-0.2c-0.6,0-1.2,0.2-1.7,0.5c-0.5,0.3-1,0.4-1.5,0.4
			c-0.5,0-1-0.2-1.5-0.4c-0.2-0.1-0.4-0.2-0.5-0.2l5.8-14.4c0.6-0.3,1.4-0.3,2,0c0.9,0.3,1.5,1.1,1.6,2.1c0,0.2,0.2,0.4,0.4,0.5
			c0.2,0.1,0.4,0,0.6-0.1c0.7-0.6,1.8-0.7,2.6-0.3c0.8,0.3,1.4,1,1.6,1.9c0.1,0.3,0.3,0.4,0.6,0.5c0.3,0,0.5-0.1,0.6-0.4
			c0,0,0-0.1,0.1-0.3c1.5-4.6-1.3-9.8-6.7-12.3l0.2-0.6c0.2-0.5,0-1.1-0.6-1.3c-0.5-0.2-1.1,0-1.3,0.6l-0.2,0.6
			c-5.6-1.8-11.2-0.1-13.4,4.3c0,0-0.1,0.1-0.1,0.2c-0.1,0.3,0,0.5,0.2,0.7c0.2,0.2,0.5,0.2,0.7,0c0.7-0.5,1.7-0.6,2.4-0.3
			c0.9,0.3,1.5,1.1,1.6,2.1c0,0.2,0.2,0.4,0.4,0.5c0.2,0.1,0.4,0,0.6-0.1c0.7-0.6,1.8-0.7,2.6-0.4c0.7,0.3,1.1,0.7,1.4,1.4l-6,15
			c-0.3,0.1-0.7,0.2-0.9,0.4c-0.5,0.3-1,0.4-1.5,0.4s-1-0.2-1.5-0.4c-0.5-0.3-1.1-0.5-1.7-0.5h-0.2c-0.6,0-1.2,0.2-1.7,0.5
			c-0.5,0.3-1,0.4-1.5,0.4c-0.5,0-1-0.2-1.5-0.4c-0.5-0.3-1.1-0.5-1.7-0.5h-0.2c-0.6,0-1.2,0.2-1.7,0.5c-0.5,0.3-1,0.4-1.5,0.4
			c-0.6,0-1,0.5-1,1c0,0.5,0.5,1.5,1,1.5c0.5,0,0.9-0.1,1.4-0.2c1.2-0.4,2.5-0.4,3.8,0c0.5,0.1,1,0.2,1.5,0.2c0.4,0,0.7,0,1-0.1
			c1.5-0.3,3.1-0.3,4.6,0c0.4,0.1,0.7,0.1,1,0.1c0.4,0,0.7,0,1-0.1c1.5-0.3,3.1-0.3,4.6,0c0.4,0.1,0.7,0.1,1,0.1c0.4,0,0.7,0,1-0.1
			c1.5-0.3,3.1-0.3,4.5,0c0.4,0.1,0.7,0.1,1,0.1c0.3,0,0.7,0,1-0.1c1.5-0.3,3.1-0.3,4.5,0c0.4,0.1,0.7,0.1,1,0.1c0.6,0,1.1-1,1-1.7
			C691.7,888.7,691.3,888.3,690.8,888.3z"/>
	</g>
	<rect x="632.1" y="806.1" class="s3d-svg__text-bg" width="77.9" height="31.1"/>
	<text transform="matrix(1 0 0 1 648.549 826.0394)" class="s3d-svg__text">пляж</text>
</g>
<g class="js-s3d-svg__point-group s3d-svg__point-group" data-type="parking">
	<path class="s3d-svg__point-bg" d="M632.1,420.5c-17.2,0-31.1,13.7-31.1,30.5c-0.1,24.6,30,45,31.1,45.8c0,0,31.3-21.2,31.1-45.8
		C663.2,434.2,649.3,420.5,632.1,420.5z"/>
	<path class="s3d-svg__point" d="M632.1,433c9.5,0,17.1,7.7,17.1,17.1c0,9.8-8.2,17.6-17.9,17.1v-2.6c8.3,0.4,15.3-6.2,15.3-14.5
		c0-8-6.5-14.5-14.5-14.5s-14.5,6.5-14.5,14.5c0,5.8,3.4,10.9,8.6,13.3v-21.3h8c1.4,0,2.5,0.1,3.2,0.2c3.1,0.5,4.9,2.8,4.9,5.9
		c0,4.9-3.6,6.4-7.9,6.4h-5.4v12.2c-8.3-1.8-14-7.9-14-16.7C615,440.7,622.6,433,632.1,433L632.1,433z M628.9,452.1h5.4
		c2.7,0,5-0.7,5-3.8c0-1.6-0.8-3.1-2.4-3.5c-0.5-0.1-1.3-0.2-2.6-0.2h-5.4V452.1z"/>
	<rect x="585.4" y="379.4" class="s3d-svg__text-bg" width="93.4" height="31.1"/>
	<text transform="matrix(1 0 0 1 601.1428 399.3513)" class="s3d-svg__text">Паркінг</text>
</g>
<g class="js-s3d-svg__point-group s3d-svg__point-group" data-type="eco-market">
	<path class="s3d-svg__point-bg" d="M1543.8,605.4c-17.2,0-31.1,13.7-31.1,30.5c-0.1,24.6,30,45,31.1,45.8c0,0,31.3-21.2,31.1-45.8
		C1575,619.1,1561,605.4,1543.8,605.4z"/>
	<g>
		<path class="s3d-svg__point" d="M1550.1,620.9c-1.9-0.2-3.9-0.2-5.8,0c-3.3,0.3-5.5,1.3-6.6,2.9c-1,1.5-0.8,3.2-0.5,4.4c0,0,0,0,0.1,0.1
			c0,0,0.1,0,0.1,0c1.6-1,3.4-1.7,5.3-2c0,0,0,0,0,0v0l-4.7,3.8c-1,0.9-1.8,2-2.4,3.3c-0.2,0.4-0.2,0.9,0.1,1.3
			c0.2,0.3,0.5,0.5,0.9,0.6c0.6,0.1,1.2-0.2,1.5-0.8c0.4-0.9,1-1.7,1.7-2.3c0.7,0.5,2.1,1.3,3.7,1.5c0.3,0,0.6,0,0.8,0
			c3.4-0.3,5.5-4.4,6.3-12.1C1550.7,621.2,1550.5,620.9,1550.1,620.9z"/>
		<path class="s3d-svg__point" d="M1545.2,644.5c-1,0.1-1.9,0-2.9-0.3c0.1-0.9,0.1-2.5-0.5-3.9c-0.1-0.3-0.3-0.5-0.4-0.7
			c-2-2.8-6.6-2.6-13.6,0.6c-0.3,0.1-0.4,0.5-0.3,0.8c0.8,1.7,1.8,3.4,2.9,5c1.8,2.5,3.6,4,5.4,4.3c0.1,0,0.3,0,0.4,0
			c1.8,0.1,3.2-0.9,4.1-1.8c0,0,0,0,0-0.1c0,0,0,0,0-0.1c-1.6-0.9-3.2-2.1-4.4-3.6v0h0l5.6,2.1c1.3,0.4,2.7,0.6,4.1,0.4
			c0.5,0,0.9-0.3,1.1-0.7c0.2-0.4,0.2-0.9-0.1-1.3C1546.2,644.7,1545.7,644.5,1545.2,644.5z"/>
		<path class="s3d-svg__point" d="M1559.8,638.4c-0.8-1.6-2.4-2.3-3.6-2.6c0,0-0.1,0-0.1,0c0,0,0,0,0,0.1c0.1,1.9-0.2,3.8-0.9,5.6v0h0
			c0,0,0,0,0,0l-1-5.9c-0.3-1.3-0.8-2.7-1.6-3.8c-0.1-0.1-0.2-0.3-0.4-0.4c-0.6-0.4-1.4-0.1-1.8,0.5l-0.1,0.1
			c-0.2,0.4-0.2,1,0.1,1.4c0.6,0.8,1,1.7,1.1,2.7c-0.8,0.4-2.2,1.1-3.1,2.4c-0.2,0.2-0.3,0.5-0.4,0.7c-1.4,3.1,1,7,7.3,11.5
			c0.3,0.2,0.6,0.1,0.8-0.2c1.1-1.6,2-3.3,2.9-5C1560.4,642.5,1560.6,640.1,1559.8,638.4z"/>
	</g>
	<rect x="1489.3" y="564.2" class="s3d-svg__text-bg" width="109" height="31.1"/>
	<text transform="matrix(1 0 0 1 1500.4302 584.1818)" class="s3d-svg__text">еко-ринок</text>
</g>
<g class="js-s3d-svg__point-group s3d-svg__point-group" data-type="children park">
	<path class="s3d-svg__point-bg" d="M1072.5,272.2c-17.2,0-31.1,13.7-31.1,30.5c-0.1,24.6,30,45,31.1,45.8c0,0,31.3-21.2,31.1-45.8
		C1103.7,285.9,1089.7,272.2,1072.5,272.2z"/>
		<rect x="963.4" y="215.8" class="s3d-svg__text-bg" width="218.1" height="46.5"/>
		<text transform="matrix(1 0 0 1 973.388 235.0513)"><tspan x="0" y="0" class="s3d-svg__text">Дитячі майданчики для</tspan><tspan x="17.8" y="18" class="s3d-svg__text">різних вікових груп</tspan></text>
	<g>
		<path class="s3d-svg__point" d="M1089.2,294.2c-2.1-3.1-4.7-5.1-7.8-5.9v12.9c3-0.8,5.7-2.8,7.8-5.9
			C1089.4,294.9,1089.4,294.5,1089.2,294.2z"/>
		<path class="s3d-svg__point" d="M1077.2,311.6c0.1-0.3,0.2-0.7,0.2-1.1c0-1.6-1.3-3-3-3h-3.9c-0.5,0-1-0.4-1-1c0-0.5,0.4-1,1-1h3.9
			c1.6,0,3-1.3,3-3c0-0.3-0.1-0.7-0.2-1h0.8c0.5,0,0.9,0,1.4-0.1v-13.6c-0.5-0.1-0.9-0.1-1.4-0.1c-1.4,0-2.5,1.1-2.5,2.5v0.4
			c0,1.6-1.3,3-3,3s-3-1.3-3-3c0-1.3-0.9-2.4-2.1-2.8c-0.4-2.3-2.4-4.1-4.8-4.1h-6c-0.5,0-1,0.4-1,1c0,2.4,1.7,4.4,3.9,4.8v2.1h-1
			c-1.6,0-3,1.3-3,3s1.3,3,3,3h1v2.1c-2.2,0.5-3.9,2.4-3.9,4.8c0,0.5,0.4,1,1,1h6c2.4,0,4.4-1.7,4.8-3.9c3.7,0,3.3,0,7,0
			c0.5,0,1,0.4,1,1s-0.4,1-1,1h-3.9c-1.6,0-3,1.3-3,3s1.3,3,3,3h3.9c0.5,0,1,0.4,1,1c0,0.5-0.4,1-1,1h-5.9c-2.7,0-4.9,2.3-4.9,5.1
			c0,0.5,0.4,1,1,1h15.8c0.5,0,1-0.4,1-1C1081.4,314.1,1079.6,312,1077.2,311.6z M1058.7,295.7c-0.5,0-1-0.4-1-1s0.4-1,1-1h4
			c0.5,0,1,0.4,1,1s-0.4,1-1,1H1058.7z M1062.7,303.6h-4.8c0.4-1.1,1.5-2,2.8-2h4.8C1065,302.8,1063.9,303.6,1062.7,303.6z
			 M1060.6,287.8c-1.3,0-2.4-0.8-2.8-2h4.8c1.3,0,2.4,0.8,2.8,2H1060.6z M1069.6,299.7h-2v-1c0-0.5,0.4-1,1-1c0.5,0,1,0.4,1,1
			V299.7z M1073.5,299.7h-2v-1c0-0.5,0.4-1,1-1c0.5,0,1,0.4,1,1V299.7z"/>
	</g>
</g>
<g class="js-s3d-svg__point-group s3d-svg__point-group" data-type="children">
	<path class="s3d-svg__point-bg" d="M1191.9,603.2c-17.2,0-31.1,13.7-31.1,30.5c-0.1,24.6,30,45,31.1,45.8c0,0,31.3-21.2,31.1-45.8
		C1223.1,616.9,1209.1,603.2,1191.9,603.2z"/>
		<rect x="1104.4" y="562" class="s3d-svg__text-bg" width="175" height="31.1"/>
		<text transform="matrix(1 0 0 1 1116.8162 581.9688)" class="s3d-svg__text">Дитячий садочок</text>
		<g>
		<g>
			<g>
				<path class="s3d-svg__point" d="M1206.9,640.6c-1.5-1.2-3.9-0.8-5.6,0.8l-1.3-0.8c0.1-0.4,0.1-0.8,0.1-1.3c1.8-0.4,3.4-1,5-1.7
					c1.8-0.8,2.5-2.9,1.7-4.7c-0.8-1.8-2.9-2.5-4.7-1.7c-1.1,0.5-2.3,0.9-3.5,1.2c1.3-1.5,2-3.5,2-5.6c0-0.3,0-0.6,0-0.9
					c1.7-0.7,3-2.4,3-4.4c0-2.6-2.1-4.7-4.7-4.7c-1.5,0-2.8,0.7-3.7,1.8c-1-0.4-2.2-0.7-3.3-0.7s-2.3,0.2-3.3,0.7
					c-0.9-1.1-2.2-1.8-3.7-1.8c-2.6,0-4.7,2.1-4.7,4.7c0,2,1.2,3.7,3,4.4c0,0.3,0,0.6,0,0.9c0,2.1,0.8,4.1,2,5.6
					c-1.3-0.3-2.4-0.7-3.5-1.2c-1.8-0.8-3.9,0-4.7,1.7c-0.8,1.8,0,3.9,1.7,4.7c1.6,0.7,3.2,1.3,5,1.7c0,0.4,0.1,0.9,0.1,1.3
					l-1.3,0.8c-1.8-1.6-4.1-1.9-5.6-0.8c-1.8,1.4-1.8,4.4,0,6.7c1.1,1.4,2.7,2.3,4.4,2.3c0.6,0,1.3-0.2,1.8-0.5l4.8-2.9
					c1.2,0.7,2.5,1,4,1s2.8-0.4,4-1l4.8,2.9c0.5,0.3,1.2,0.5,1.8,0.5c1.7,0,3.4-1,4.4-2.3C1208.7,645,1208.7,642,1206.9,640.6z
					 M1182,648.3C1182,648.3,1182,648.3,1182,648.3c-2.8,0.9-6.3-3.2-5-6C1179.8,641.5,1183.3,645.6,1182,648.3z M1183.7,623.5
					c-0.7-0.4-1.2-1.2-1.2-2c0-1.3,1.1-2.3,2.3-2.3c0.6,0,1.2,0.3,1.7,0.7C1185.3,620.7,1184.3,622,1183.7,623.5z M1188.3,638.6
					c-0.5,0.3-1.1-0.1-1.1-0.7v-2.7c0-0.6,0.6-1,1.1-0.7l1.8,0.6c-0.2,0.2-0.3,0.5-0.4,0.9h-1.2v1.2h1.2c0.1,0.3,0.2,0.6,0.4,0.9
					L1188.3,638.6z M1191.9,637.7c-0.6,0-1.2-0.5-1.2-1.2s0.5-1.2,1.2-1.2s1.2,0.5,1.2,1.2S1192.6,637.7,1191.9,637.7z
					 M1196.6,637.9L1196.6,637.9c0,0.6-0.6,1-1.1,0.7l-1.7-0.6c0.2-0.3,0.4-0.5,0.4-0.9h1.2v-1.2h-1.2c-0.1-0.3-0.2-0.6-0.4-0.9
					l1.7-0.6c0.5-0.3,1.1,0.1,1.1,0.7L1196.6,637.9L1196.6,637.9z M1195.6,626.7c0.7,0.8,1.1,1.8,1.1,2.9c0,2.6-2.1,4.7-4.7,4.7
					s-4.7-2.1-4.7-4.7c0-1.1,0.4-2.1,1.1-2.9c-0.9-0.1-1.7-0.8-1.7-1.8c0-1,0.8-1.8,1.8-1.8s1.8,0.8,1.8,1.8c0,0.1,0,0.2,0,0.4
					c0.6-0.2,1.2-0.4,1.8-0.4c0.6,0,1.2,0.1,1.8,0.4c0-0.1,0-0.2,0-0.4c0-1,0.8-1.8,1.8-1.8s1.8,0.8,1.8,1.8
					C1197.2,625.9,1196.5,626.7,1195.6,626.7z M1197.3,619.8c0.4-0.4,1-0.7,1.7-0.7c1.3,0,2.3,1.1,2.3,2.3c0,0.9-0.5,1.6-1.2,2
					C1199.5,622,1198.6,620.7,1197.3,619.8z M1201.8,648.3c-1.3-2.8,2.2-6.9,5-6C1208.1,645.2,1204.5,649.2,1201.8,648.3z"/>
			</g>
		</g>
			<g>
			<g>
				<circle class="s3d-svg__point" cx="1188.4" cy="625" r="0.9"/>
			</g>
		</g>
			<g>
			<g>
				<circle class="s3d-svg__point" cx="1191.9" cy="628.5" r="1.2"/>
			</g>
		</g>
			<g>
			<g>
				<circle class="s3d-svg__point" cx="1195.5" cy="625" r="0.9"/>
			</g>
		</g>
	</g>
</g>

<g>
	<circle class="s3d-svg__text-bg" cx="663.9" cy="275.7" r="14"/>
		<text transform="matrix(1 0 0 1 660.8563 280.1238)" class="s3d-svg__text">7</text>
</g>
<g>
	<circle class="s3d-svg__text-bg" cx="636.9" cy="347" r="14"/>
		<text transform="matrix(1 0 0 1 632.6663 351.3718)" class="s3d-svg__text">6</text>
</g>
<g>
	<circle class="s3d-svg__text-bg" cx="816" cy="332.3" r="14"/>
		<text transform="matrix(1 0 0 1 811.6544 336.7009)" class="s3d-svg__text">5</text>
</g>
<g>
	<circle class="s3d-svg__text-bg" cx="684.1" cy="448.4" r="14"/>
		<text transform="matrix(1 0 0 1 678.1282 452.7512)" class="s3d-svg__text">11</text>
</g>
<g>
	<circle class="s3d-svg__text-bg" cx="884.3" cy="420.5" r="14"/>
		<text transform="matrix(1 0 0 1 880.0219 424.9238)" class="s3d-svg__text">4</text>
</g>
<g>
	<circle class="s3d-svg__text-bg" cx="809.9" cy="546.6" r="14"/>
		<text transform="matrix(1 0 0 1 802.1079 551.0149)" class="s3d-svg__text">10</text>
</g>
<g>
	<circle class="s3d-svg__text-bg" cx="831.7" cy="464.1" r="14"/>
		<text transform="matrix(1 0 0 1 824.3622 468.5258)" class="s3d-svg__text">12</text>
</g>
<g>
	<circle class="s3d-svg__text-bg" cx="991.5" cy="532.6" r="14"/>
		<text transform="matrix(1 0 0 1 987.106 536.9999)" class="s3d-svg__text">9</text>
</g>
<g>
	<circle class="s3d-svg__text-bg" cx="1014.4" cy="634" r="14"/>
		<text transform="matrix(1 0 0 1 1010.0124 638.3694)" class="s3d-svg__text">8</text>
</g>
<g>
	<circle class="s3d-svg__text-bg" cx="1194.3" cy="532.6" r="14"/>
		<text transform="matrix(1 0 0 1 1190.0499 537.0001)" class="s3d-svg__text">2</text>
</g>
<g>
	<circle class="s3d-svg__text-bg" cx="1091.3" cy="434.6" r="14"/>
		<text transform="matrix(1 0 0 1 1087.1404 438.9388)" class="s3d-svg__text">3</text>
</g>
<g>
	<circle class="s3d-svg__text-bg" cx="1359.7" cy="532.6" r="14"/>
		<text transform="matrix(1 0 0 1 1355.3585 536.9998)" class="s3d-svg__text">1</text>
</g>

</svg>
