<svg version="1.1" id="Layer_1" xmlns="http://www.w3.org/2000/svg" xmlns:xlink="http://www.w3.org/1999/xlink" x="0px" y="0px"
	 viewBox="0 0 1920 1080" style="enable-background:new 0 0 1920 1080;" xml:space="preserve">

<g class="js-s3d-svg__point-group s3d-svg__point-group" data-type="parking" >
	<path class="s3d-svg__point-bg" d="M1434.7,520.7c-17.2,0-31.1,13.7-31.1,30.5c-0.1,24.6,30,45,31.1,45.8c0,0,31.3-21.2,31.1-45.8
		C1465.9,534.4,1451.9,520.7,1434.7,520.7z"/>
	<path class="s3d-svg__point" d="M1434.7,533.2c9.5,0,17.1,7.7,17.1,17.1c0,9.8-8.2,17.6-17.9,17.1v-2.6c8.3,0.4,15.3-6.2,15.3-14.5
		c0-8-6.5-14.5-14.5-14.5s-14.5,6.5-14.5,14.5c0,5.8,3.4,10.9,8.6,13.3v-21.3h8c1.4,0,2.5,0.1,3.2,0.2c3.1,0.5,4.9,2.8,4.9,5.9
		c0,4.9-3.6,6.4-7.9,6.4h-5.4V567c-8.3-1.8-14-7.9-14-16.7C1417.6,540.9,1425.2,533.2,1434.7,533.2L1434.7,533.2z M1431.6,552.3h5.4
		c2.7,0,5-0.7,5-3.8c0-1.6-0.8-3.1-2.4-3.5c-0.5-0.1-1.3-0.2-2.6-0.2h-5.4V552.3z"/>
	<rect x="1388" y="479.6" class="s3d-svg__text-bg" width="93.4" height="31.1"/>
	<text transform="matrix(1 0 0 1 1403.7544 499.5314)" class="s3d-svg__text">Паркінг</text>
</g>
	<a href="/choose-flat"  data-build="11"><polygon class="s3d-svg__house js-s3d-svg__house" data-build="11" points="1298.8,440.6 1298.8,461.5 1290,461.9 1290,469.2 1285.8,469.2 1285.8,474 1280.8,474 1280.8,530.2
	1265,530.2 1210.8,473.1 1210.8,469.2 1211.9,468.7 1211.9,462.9 1204.5,460 1204.5,456.7 1194.3,452.2 1194.3,449.6 1188.5,447.5 
	1166.3,424.5 1165.5,407.6 1165.5,378.2 1167.1,378.2 1167.1,355.1 1171.1,359.1 1171.1,352.3 1174.8,352.3 1174.8,346.1 
	1182.3,346.1 1195.7,346.1 1199.6,350 1208,350 1212.4,354.5 1218.6,354.5 1227.2,363 1227.2,370.7 1229.8,373.3 1237.4,373.3 
	1251.7,387.6 1251.7,394.9 1255.9,399.1 1264.1,399.1 1277.6,412.7 1277.6,422.2 1283.7,422.2 1283.7,425.2 1289.5,425.2 
	1298,433.7 1298,439.7 "/></a>
	<a href="/choose-flat" data-build="6"><polygon class="s3d-svg__house js-s3d-svg__house" data-build="6" points="1417.2,587 1417.2,596.3 1308.5,557.8 1293.2,562.8 1280.8,549.4 1280.8,474 1285.8,474 1285.8,469.2
	1290,469.2 1290,461.9 1312.9,460.8 1317,465.8 1325.4,465.1 1332.9,472.9 1339.8,472.9 1349.5,482.6 1349.5,491.4 1353.6,495.5 
	1363,495.5 1379.6,512.1 1379.6,520.8 1380.6,522 1384.1,522 1384.1,526.1 1394.4,526.1 1403.8,535.5 1403.8,568 1411.4,575.6 
	1411.4,580.9 "/></a>
	<a href="/choose-flat"  data-build="10" ><polygon class="s3d-svg__house js-s3d-svg__house" data-build="10"  points="1175,328 1175,325 1166.3,322.3 1166.3,320 1154,315.8 1136.7,314 1123.1,309.7 1123.1,306.9
	1094.3,297.4 1085.9,298.2 1069.1,294.1 1069.1,289.1 1056.1,284.6 1040,283.3 1036.6,280.4 1030.3,280.6 1030.3,282.6 
	1021.3,279.1 1002.9,282.4 1002.9,294.2 998.2,294.2 996.8,294.2 996.5,321.5 1012,327 1012,329.9 1020.5,332.8 1020.5,335.6 
	1029.1,340.1 1029.1,354.7 1034.5,357.5 1034.5,366 1037.8,367.1 1037.8,357.2 1056.4,357.2 1056.4,353.1 1073.1,353.1 
	1074.5,354.5 1095.3,354.5 1106.6,365.8 1106.6,377.3 1109.2,379.9 1109.2,396.3 1160.8,409.5 1165.5,407.6 1165.5,378.2 
	1167.1,378.2 1167.1,355.1 1171.1,359.1 1171.1,352.3 1174.8,352.3 1174.8,346.1 1182.3,346.1 1182.3,330.1 "/></a>
	<a href="/choose-flat" data-build="8" ><polygon class="s3d-svg__house js-s3d-svg__house" data-build="8" points="823,298.1 823,239 829.5,239 829.5,228.1 843.3,228.1 843.3,225.4 846.4,225.4 854.2,228.2
	854.2,231.9 857.4,231.9 857.4,227.1 861.7,225.4 866.5,228.1 874.7,231.1 882,230.4 891.3,233.4 891.3,240 894.8,240 894.8,237.9 
	905.3,237.9 905.3,240.9 918.7,240.9 932.2,246.4 932.2,248.7 933.7,248.7 935.2,247.3 940.9,247.3 943.7,249.8 943.7,253.3 
	945.1,253.3 953.8,257.2 955.2,257.2 955.2,258.9 960.6,258.9 960.6,256.5 968.5,256.5 968.5,258.2 986,266.1 986,269.1 
	991.8,271.6 991.8,285.6 996.5,285.6 998.2,290.7 998.2,294.2 996.8,294.2 996.8,321.5 985.2,321.5 971.2,317.4 971.2,321.7 
	960,321.7 960,313 930.2,303.5 923.6,305.3 916,301.7 916,297.9 909.6,296.4 906.9,297.7 901.8,296.4 896.1,290.5 892.3,294.2 
	888.3,293.5 888.3,288.9 884.6,288.9 884.6,293.7 883.4,293.7 883.4,291 878.1,288.9 876,289.8 876,298.2 874.9,298.2 874.9,293.1 
	867.4,290.5 863.9,286.8 857.5,288.9 852.9,288.6 850.2,290.5 850.2,299.9 840.9,296.6 837.3,298.1 837.3,302.9 "/></a>
	<a href="/choose-flat" data-build="9" ><polygon class="s3d-svg__house js-s3d-svg__house" data-build="9" points="1020.5,393.9 1034.5,393.9 1034.5,375 1037.8,375.2 1037.8,367.1 1034.5,366 1034.5,357.5
	1029.1,354.7 1029.1,340.1 1020.5,335.6 1020.5,332.8 1012,329.9 1012,327 996.5,321.5 985.2,321.5 971.2,317.4 971.2,321.7 
	960,321.7 960,313 930.2,303.5 923.6,305.3 916,301.7 916,297.9 909.6,296.4 906.9,297.7 901.8,296.4 896.1,290.5 892.3,294.2 
	888.3,293.5 888.3,288.9 884.6,288.9 884.6,293.7 883.4,293.7 883.4,291 878.1,288.9 876,289.8 876,298.2 874.9,298.2 874.9,293.1 
	867.4,290.5 863.9,286.8 857.5,288.9 852.9,288.6 850.2,290.5 850.2,299.9 840.9,296.6 837.3,298.1 837.3,302.9 842.8,305.1 
	842.8,330.7 845.3,330.5 862.4,336.5 862.4,338.8 877.7,343.8 877.7,372.4 880.6,372.9 880.6,378.6 882.9,379.3 882.9,374.7 
	890.6,374 890.6,362.2 907,358.1 918.7,362.8 925.6,360.3 937.1,365.2 944.2,364.7 961.8,371.4 961.8,373.4 979.5,381.2 
	987.3,379.8 1005.3,387.7 1010.1,386.6 1020.5,390.7 "/></a>
	<a href="/choose-flat" data-build="12"><polygon class="s3d-svg__house js-s3d-svg__house" data-build="12"  points="1037.8,375.2 1037.8,357.2 1056.4,357.2 1056.4,353.1 1073.1,353.1 1074.5,354.5 1095.3,354.5
	1106.6,365.8 1106.6,377.3 1109.2,379.9 1109.2,421.6 1080.5,417.1 1080.5,412.2 1068.1,406.5 1059,407.7 1047.2,399.6 
	1039.7,401.1 1034.5,399.1 1034.5,375 "/></a>
	<a href="/choose-flat" data-build="2"><polygon class="s3d-svg__house js-s3d-svg__house" data-build="2"  points="880.6,372.9 880.6,395.7 868.9,399.8 733.5,350.9 716.1,355.3 716.1,367 710.1,367 710.1,377.8
	699.9,374.2 699.9,371.1 647.9,351.7 647.9,321.8 640.9,319 640.9,308.6 646.9,308.6 646.9,281.8 648.7,281.8 648.7,278.4 
	671.6,273.3 686.4,279.1 693,277.8 729.6,294.6 738.9,292.8 763.3,303.5 763.3,310.1 769.7,309.7 780.8,311.9 791.9,311.9 
	791.9,316.1 803,318.3 803,316.3 816.5,321.5 816.5,325.2 821.1,326.1 821.1,328.1 832,328.1 832,331.6 845.3,330.5 862.4,336.5 
	862.4,338.8 877.7,343.8 877.7,372.4 "/></a>
	<a href="/choose-flat" data-build="4"><polygon class="s3d-svg__house js-s3d-svg__house" data-build="4" points="1222,493.3 1222,526.1 1061.1,468.7 1044.1,474 1044.1,484.9 1036.8,486.1 1036.8,497.7 1030.7,500
	1030.7,502.6 1021.3,498.7 1021.3,489.2 960,465.3 960,432.6 882.9,404.8 882.9,374.7 890.6,374 890.6,362.2 907,358.1 918.7,362.8 
	925.6,360.3 937.1,365.2 944.2,364.7 961.8,371.4 961.8,373.4 979.5,381.2 987.3,379.8 1005.3,387.7 1010.1,386.6 1020.5,390.7 
	1020.5,393.9 1039.7,401.1 1047.2,399.6 1059,407.7 1068.1,406.5 1080.5,412.2 1080.5,417.1 1116.6,422.8 1122.7,429.6 
	1128.7,428.1 1143.7,434 1143.7,437.1 1155.9,441.1 1161.7,439.9 1161.7,444.5 1165.4,444.5 1173.5,442.1 1194.3,449.6 
	1194.3,452.2 1204.5,456.7 1204.5,460 1211.9,462.9 1211.9,468.7 1210.8,469.2 1210.8,477.7 1218,484.8 1218,494.7 "/></a>
	<a href="/choose-flat" data-build="3"><polygon class="s3d-svg__house js-s3d-svg__house" data-build="3" points="960,465.3 1021.3,489.2 1021.3,535 987.1,546.1 698.8,435.2 698.8,390.6 702.8,389.7 702.8,378.2
	710.1,377.8 710.1,367 716.1,367 716.1,355.3 733.5,350.9 960,432.6 "/></a>
	<a href="/choose-flat" data-build="1"><polygon class="s3d-svg__house js-s3d-svg__house" data-build="1" points="699.9,371.1 699.9,390.4 698.8,390.6 698.8,412.5 665.9,419.3 564.8,372.5 564.8,340 569.7,340
	569.7,328.7 575.9,328.7 575.9,307.9 593.7,303.5 603.7,308.8 609.3,306.2 647.9,321.8 647.9,351.7 "/></a>
	<a href="/choose-flat" data-build="5"><polygon class="s3d-svg__house js-s3d-svg__house" data-build="5" points="1264.1,620.8 1228.2,635.9 1026.1,560.8 1026,511.7 1030.7,510.6 1030.7,500 1036.8,497.7
	1036.8,486.1 1044.1,484.9 1044.1,474 1061.1,468.7 1250.5,536.3 1250.5,540 1257.3,544.1 1257.3,553.9 1263.5,554.1 "/></a>
	<a href="/choose-flat" data-build="7"><polygon class="s3d-svg__house js-s3d-svg__house" data-build="7" points="1423.7,716.7 1272.1,654.8 1272,605.2 1276.6,603.2 1276.6,591.4 1283.4,589.4 1283.4,577.2
	1289.9,575.7 1289.9,563.9 1308.5,557.8 1444.5,606 1444.5,611 1452.1,614.3 1452.1,627.4 1459.8,624.8 1459.8,704.6 "/></a>
<g class="js-s3d-svg__point-group s3d-svg__point-group" data-type="tennis court" >
	<path class="s3d-svg__point-bg" d="M1227.6,785.5c-17.2,0-31.1,13.7-31.1,30.5c-0.1,24.6,30,45,31.1,45.8c0,0,31.3-21.2,31.1-45.8
		C1258.7,799.2,1244.8,785.5,1227.6,785.5z"/>
	<g>
		<path class="s3d-svg__point" d="M1235,805.9l-1.9-1.9l-1.9,1.9l1.9,1.9L1235,805.9z"/>
		<path class="s3d-svg__point" d="M1235,811.5l-1.9-1.9l-1.9,1.9l1.9,1.9L1235,811.5z"/>
		<path class="s3d-svg__point" d="M1225.7,811.5l1.9,1.9l1.9-1.9l-1.9-1.9L1225.7,811.5z"/>
		<path class="s3d-svg__point" d="M1242.9,808.2l-1.4-1.4l-1.9,1.9l2.4,2.4C1242.3,810.2,1242.7,809.2,1242.9,808.2z"/>
		<path class="s3d-svg__point" d="M1241.3,812.2l-2.6-2.6l-1.9,1.9l2.9,2.9C1240.3,813.7,1240.8,813,1241.3,812.2z"/>
		<path class="s3d-svg__point" d="M1237.8,808.7l-1.9-1.9l-1.9,1.9l1.9,1.9L1237.8,808.7z"/>
		<path class="s3d-svg__point" d="M1240.6,805.9l-1.9-1.9l-1.9,1.9l1.9,1.9L1240.6,805.9z"/>
		<path class="s3d-svg__point" d="M1232.2,808.7l-1.9-1.9l-1.9,1.9l1.9,1.9L1232.2,808.7z"/>
		<path class="s3d-svg__point" d="M1220.3,815.5l-2.5,4.9l3.6,3.6l0.1,0.1l4.8-2.5c-1.4-0.5-2.6-1.3-3.6-2.3
			C1221.6,818.1,1220.9,816.9,1220.3,815.5z"/>
		<path class="s3d-svg__point" d="M1224.4,817.5c-1.8-1.8-2.7-4.4-2.4-7.3c0.3-3,1.8-6,4.1-8.4c2.7-2.7,6.1-4.2,9.4-4.2c2.5,0,4.6,0.8,6.2,2.4
			c3.8,3.8,3.1,10.9-1.7,15.7c-0.3,0.3-0.5,0.5-0.8,0.8c0.4,0.1,0.9,0.3,1.3,0.5c0.1-0.1,0.3-0.3,0.4-0.4c5.3-5.3,6.1-13.1,1.7-17.4
			c-1.8-1.8-4.3-2.8-7.1-2.8c-3.7,0-7.4,1.7-10.3,4.5c-5.3,5.3-6.1,13.1-1.7,17.4c1.4,1.4,3.3,2.4,5.5,2.7c0.2-0.4,0.4-0.8,0.7-1.2
			C1227.6,819.7,1225.8,818.8,1224.4,817.5z"/>
		<path class="s3d-svg__point" d="M1210.4,828c-0.5,0.5-0.7,1.1-0.7,1.7c0,1.3,1.1,2.4,2.4,2.4c0.6,0,1.3-0.3,1.7-0.7l6.7-6.7l-3.4-3.4
			L1210.4,828z M1212.6,830.2l-0.9-0.9l3.1-3.1l0.9,0.9L1212.6,830.2z M1218.1,824.6l-1.2,1.2l-0.9-0.9l1.2-1.2L1218.1,824.6z"/>
		<path class="s3d-svg__point" d="M1230.7,818.7C1230.7,818.7,1230.7,818.7,1230.7,818.7c0.1-0.1,0.2-0.1,0.2-0.2l-0.6-0.6l-0.7,0.7
			C1230,818.6,1230.3,818.7,1230.7,818.7z"/>
		<path class="s3d-svg__point" d="M1235.9,805.1l1.9-1.9l-1.9-1.9l-1.9,1.9L1235.9,805.1z"/>
		<path class="s3d-svg__point" d="M1236.5,798.9c-0.3,0-0.6,0-0.9,0c-0.1,0-0.2,0-0.4,0l0.6,0.6L1236.5,798.9z"/>
		<path class="s3d-svg__point" d="M1230.3,812.4l-1.9,1.9l1.9,1.9l1.9-1.9L1230.3,812.4z"/>
		<path class="s3d-svg__point" d="M1229.5,817.1l-1.9-1.9l-1.8,1.8c0.7,0.6,1.5,1,2.5,1.3L1229.5,817.1z"/>
		<path class="s3d-svg__point" d="M1223.3,812.1l0.6-0.6l-0.7-0.7C1223.3,811.3,1223.3,811.7,1223.3,812.1z"/>
		<path class="s3d-svg__point" d="M1226.7,814.3l-1.9-1.9l-1.2,1.2c0.3,0.9,0.7,1.8,1.3,2.5L1226.7,814.3z"/>
		<path class="s3d-svg__point" d="M1236.8,816.1c0.3,0,0.6,0,0.9,0c0.4-0.3,0.8-0.6,1.1-0.9l-2.9-2.9l-1.9,1.9l1.9,1.9
			C1236.2,816.2,1236.5,816.1,1236.8,816.1z"/>
		<path class="s3d-svg__point" d="M1234.4,816.5l-1.3-1.3l-1.9,1.9l0.6,0.6C1232.6,817.2,1233.5,816.7,1234.4,816.5z"/>
		<path class="s3d-svg__point" d="M1242.4,824.2c0.6,0,1.2-0.1,1.8-0.3c-0.2-1.6-0.9-3.1-2.1-4.3c-1.2-1.2-2.7-1.9-4.3-2.1
			c-0.2,0.6-0.3,1.2-0.3,1.8C1237.4,821.9,1239.6,824.2,1242.4,824.2z"/>
		<path class="s3d-svg__point" d="M1243,805.3l-0.7,0.7l0.7,0.7C1243.1,806.2,1243,805.7,1243,805.3z"/>
		<path class="s3d-svg__point" d="M1231.3,825.4c-0.6,0-1.2,0.1-1.8,0.3c0.2,1.6,0.9,3.1,2.1,4.3c1.2,1.2,2.7,1.9,4.3,2.1
			c0.2-0.6,0.3-1.2,0.3-1.8C1236.2,827.6,1234,825.4,1231.3,825.4z"/>
		<path class="s3d-svg__point" d="M1236.2,819.2c0-0.6,0.1-1.2,0.3-1.8c-1.9,0.1-3.6,0.8-4.9,2.2c-1.4,1.4-2.1,3.1-2.1,4.9
			c0.6-0.2,1.2-0.3,1.8-0.3c3.4,0,6.2,2.8,6.2,6.2c0,0.6-0.1,1.2-0.3,1.8c1.9-0.1,3.6-0.8,4.9-2.2c1.4-1.4,2.1-3.1,2.1-4.9
			c-0.6,0.2-1.2,0.3-1.8,0.3C1239,825.4,1236.2,822.6,1236.2,819.2z"/>
		<path class="s3d-svg__point" d="M1236.8,800.4l1.9,1.9l1.8-1.8c-0.7-0.6-1.6-1-2.5-1.3L1236.8,800.4z"/>
		<path class="s3d-svg__point" d="M1230.8,800l2.3,2.3l1.9-1.9l-1.3-1.3C1232.7,799.2,1231.7,799.5,1230.8,800z"/>
		<path class="s3d-svg__point" d="M1239.5,803.2l1.9,1.9l1.3-1.3c-0.3-0.9-0.7-1.7-1.3-2.5L1239.5,803.2z"/>
		<path class="s3d-svg__point" d="M1223.4,809.3l1.4,1.4l1.9-1.9l-2.3-2.3C1224,807.3,1223.6,808.3,1223.4,809.3z"/>
		<path class="s3d-svg__point" d="M1227.5,802.2l2.8,2.8l1.9-1.9l-2.6-2.6C1228.9,801.1,1228.2,801.6,1227.5,802.2z"/>
		<path class="s3d-svg__point" d="M1225,805.3l2.6,2.6l1.9-1.9l-2.8-2.8C1226,803.8,1225.5,804.5,1225,805.3z"/>
	</g>
	<rect x="1157.5" y="744.3" class="s3d-svg__text-bg" width="140.2" height="31.1"/>
	<text transform="matrix(1 0 0 1 1168.5865 764.8806)" class="s3d-svg__text">Тенісний корт</text>
</g>
<g class="js-s3d-svg__point-group s3d-svg__point-group" data-type="channel" >
	<path class="s3d-svg__point-bg" d="M1016,575.2c-17.2,0-31.1,13.7-31.1,30.5c-0.1,24.6,30,45,31.1,45.8c0,0,31.3-21.2,31.1-45.8
		C1047.1,588.9,1033.2,575.2,1016,575.2z"/>
	<g>
		<path class="s3d-svg__point" d="M1031.8,595.5c-3-2.1-5.9-2.1-8.9,0c-2.1,1.4-4.1,1.4-6.3,0c-2.9-2.1-5.9-2.1-8.8,0c-2.2,1.4-4.1,1.4-6.3,0
			c-1-0.7-2.2-1.5-4.4-1.5v2.1c1.6,0,2.3,0.5,3.2,1.1c2.9,2,5.9,2,8.8,0c2.2-1.5,4.2-1.5,6.3,0c2.9,2,5.9,2,8.8,0
			c2.2-1.5,4.2-1.5,6.3,0c1,0.7,2.2,1.4,4.5,1.4v-2.1C1033.4,596.6,1032.6,596.1,1031.8,595.5z"/>
		<path class="s3d-svg__point" d="M1031.8,601.1c-3-2.1-5.9-2.1-8.9,0c-2.1,1.4-4.1,1.4-6.3,0c-2.9-2.1-5.9-2.1-8.8,0c-2.2,1.4-4.1,1.4-6.3,0
			c-1-0.7-2.2-1.5-4.4-1.5v2.1c1.6,0,2.3,0.5,3.2,1.1c2.9,2,5.9,2,8.8,0c2.2-1.5,4.2-1.5,6.3,0c2.9,2,5.9,2,8.8,0
			c2.2-1.5,4.2-1.5,6.3,0c1,0.7,2.2,1.4,4.5,1.4v-2.1C1033.4,602.2,1032.6,601.7,1031.8,601.1z"/>
		<path class="s3d-svg__point" d="M1031.8,606.8c-3-2.1-5.9-2.1-8.9,0c-2.1,1.4-4.1,1.4-6.3,0c-2.9-2.1-5.9-2.1-8.8,0c-2.2,1.4-4.1,1.4-6.3,0
			c-1-0.7-2.2-1.5-4.4-1.5v2.1c1.6,0,2.3,0.5,3.2,1.1c2.9,2,5.9,2,8.8,0c2.2-1.5,4.2-1.5,6.3,0c2.9,2,5.9,2,8.8,0
			c2.2-1.5,4.2-1.5,6.3,0c1,0.7,2.2,1.4,4.5,1.4v-2.1C1033.4,607.8,1032.6,607.4,1031.8,606.8z"/>
		<path class="s3d-svg__point" d="M1031.8,612.4c-3-2.1-5.9-2.1-8.9,0c-2.1,1.4-4.1,1.4-6.3,0c-2.9-2.1-5.9-2.1-8.8,0c-2.2,1.4-4.1,1.4-6.3,0
			c-1-0.7-2.2-1.5-4.4-1.5v2.1c1.6,0,2.3,0.5,3.2,1.1c2.9,2,5.9,2,8.8,0c2.2-1.5,4.2-1.5,6.3,0c2.9,2,5.9,2,8.8,0
			c2.2-1.5,4.2-1.5,6.3,0c1,0.7,2.2,1.4,4.5,1.4v-2.1C1033.4,613.5,1032.6,613,1031.8,612.4z"/>
	</g>
	<rect x="977.1" y="534" class="s3d-svg__text-bg" width="77.9" height="31.1"/>
	<text transform="matrix(1 0 0 1 990.6724 553.9767)" class="s3d-svg__text">канал</text>
</g>
<g class="js-s3d-svg__point-group s3d-svg__point-group" data-type="skate park" >
	<path class="s3d-svg__point-bg" d="M1070.4,680.2c-17.2,0-31.1,13.7-31.1,30.5c-0.1,24.6,30,45,31.1,45.8c0,0,31.3-21.2,31.1-45.8
		C1101.6,693.9,1087.6,680.2,1070.4,680.2z"/>
	<g>
		<path class="s3d-svg__point" d="M1087.8,713.1c-0.3-0.3-0.8-0.3-1.1-0.1l-2.2,2c-1.7,1.6-3.8,2.8-6.1,3.5l-14.7,4.7c-2.2,0.7-4.7,1-7,0.7
			l-3-0.3c-0.4,0-0.8,0.3-0.9,0.7c0,0.4,0.3,0.8,0.7,0.9l3,0.3c0.6,0.1,1.3,0.1,2,0.1c1.9,0,3.8-0.3,5.7-0.9l14.7-4.7
			c2.5-0.8,4.8-2.1,6.7-3.8l2.2-2C1088.1,713.9,1088.1,713.4,1087.8,713.1z"/>
		<path class="s3d-svg__point" d="M1064.3,728.1c0.8-0.2,1.2-1.1,0.9-1.8c-0.2-0.8-1.1-1.2-1.8-0.9c-0.8,0.2-1.2,1.1-0.9,1.8
			C1062.7,727.9,1063.6,728.3,1064.3,728.1z"/>
		<path class="s3d-svg__point" d="M1080.7,722.8c0.8-0.2,1.2-1.1,0.9-1.8c-0.2-0.8-1.1-1.2-1.8-0.9c-0.8,0.2-1.2,1.1-0.9,1.8
			C1079.1,722.6,1079.9,723,1080.7,722.8z"/>
		<path class="s3d-svg__point" d="M1072.4,697.4c0-0.4-0.1-0.9-0.2-1.2c0,0-0.1,0-0.1,0h-6.8c0,0-0.1,0-0.1,0c-0.1,0.4-0.2,0.8-0.2,1.2
			c0,1.3,0.7,2.5,1.7,3.1c0.1,0.1,0.3,0.2,0.5,0.3c0.1,0,0.2,0.1,0.3,0.1c0.1,0,0.3,0.1,0.4,0.1c0.1,0,0.1,0,0.2,0
			c0.2,0,0.4,0.1,0.7,0.1s0.4,0,0.7-0.1c0.1,0,0.1,0,0.2,0c0.1,0,0.3-0.1,0.4-0.1c0.1,0,0.1-0.1,0.2-0.1c0.1-0.1,0.3-0.1,0.4-0.2
			c0.1,0,0.1-0.1,0.2-0.1C1071.8,699.8,1072.4,698.6,1072.4,697.4z"/>
		<path class="s3d-svg__point" d="M1065.3,695.4h6.8c0.3,0,0.6-0.1,0.8-0.4c0.2-0.3,0.2-0.6,0.1-0.9c-0.7-1.8-2.4-2.9-4.3-2.9
			c-1.9,0-3.6,1.1-4.3,2.9c-0.1,0.3-0.1,0.6,0.1,0.9C1064.7,695.2,1065,695.4,1065.3,695.4z"/>
		<path class="s3d-svg__point" d="M1058.3,708.9l6.8-4v7.4h-2.8c0,0-0.1,0-0.1,0c-0.1,0-0.3,0-0.4,0c-0.8,0.1-1.4,0.9-1.3,1.8l1,6.4
			c0.1,0.8,0.9,1.4,1.8,1.3c0.9-0.1,1.4-0.9,1.3-1.8l-0.7-4.1h3.3h2.5h1.1c0.1,0,0.3,0,0.4,0c0.4,0,0.7-0.2,1-0.4l3.3-3l0.3,1.9
			c0.1,0.8,0.9,1.4,1.8,1.3c0.8-0.1,1.4-0.9,1.3-1.8l-0.8-5.1c-0.1-0.8-0.9-1.3-1.6-1.3c-0.5,0-1,0.1-1.4,0.5l-2.3,2.1v-5.2l7.1,3.8
			c0.7,0.4,1.7,0.1,2.1-0.6c0.4-0.7,0.1-1.7-0.6-2.1l-9.6-5.2c-0.8,0.7-1.9,1.2-3.1,1.2c-1.1,0-2.1-0.4-2.8-1l-9.1,5.3
			c-0.7,0.4-1,1.4-0.6,2.1C1056.6,709,1057.6,709.3,1058.3,708.9z"/>
	</g>
	<rect x="1009.7" y="639.1" class="s3d-svg__text-bg" width="121.5" height="31.1"/>
	<text transform="matrix(1 0 0 1 1024.4946 659.6436)" class="s3d-svg__text">Скейт парк</text>
</g>
<g class="js-s3d-svg__point-group s3d-svg__point-group" data-type="workout zone">
	<path class="s3d-svg__point-bg" d="M678,536.4c-17.2,0-31.1,13.7-31.1,30.5c-0.1,24.6,30,45,31.1,45.8c0,0,31.3-21.2,31.1-45.8
		C709.1,550.1,695.1,536.4,678,536.4z"/>
	<path class="s3d-svg__point" d="M690.9,550h-1.7c-0.3,0-0.6,0.3-0.6,0.6v1.3h-3.2c-0.2-0.4-0.6-0.6-1.1-0.6c-0.5,0-0.9,0.2-1.2,0.6h-2.1
		c0.3,0.4,0.5,0.9,0.6,1.5h1.2c-0.1,1.4-0.2,2.8-0.3,3.4c-0.5,0.3-2.2,0.8-3.7,0.8h-2c-1.5,0-3.2-0.4-3.7-0.8
		c-0.1-0.6-0.2-2-0.3-3.4h1.4c0.1-0.5,0.3-1,0.6-1.5h-2.3c-0.2-0.4-0.7-0.7-1.2-0.6c-0.4,0-0.8,0.3-1,0.6h-3v-1.3
		c0-0.3-0.3-0.6-0.6-0.6h-1.7c-0.3,0-0.6,0.3-0.6,0.6v30.6c0,0.3,0.3,0.6,0.6,0.6h1.7c0.3,0,0.6-0.3,0.6-0.6v-27.9h2.9
		c0.1,1.3,0.2,3.4,0.5,4.3c0.4,1.4,2.5,2,4.1,2.3l0.2,5.6l-1.8,9.5c-0.2,0.8,0.4,1.6,1.2,1.8c0.1,0,0.2,0,0.3,0
		c0.7,0,1.4-0.5,1.5-1.3l1.7-9.1l1.7,9.1c0.2,0.8,1,1.4,1.8,1.2c0.8-0.2,1.4-1,1.2-1.8l-1.8-9.5l0.2-5.6c1.6-0.3,3.5-0.9,3.9-2.3
		c0.2-0.8,0.4-3,0.5-4.3h3v27.9c0,0.3,0.3,0.6,0.6,0.6h1.7c0.3,0,0.6-0.3,0.6-0.6v-30.6C691.4,550.3,691.2,550,690.9,550z"/>
	<path class="s3d-svg__point" d="M678,556.8c1.5,0,2.7-1.2,2.7-2.7c0-1.5-1.2-2.7-2.7-2.7c-1.5,0-2.7,1.2-2.7,2.7
		C675.3,555.6,676.5,556.8,678,556.8z"/>
	<rect x="609.4" y="495.3" class="s3d-svg__text-bg" width="137" height="31.1"/>
	<text transform="matrix(1 0 0 1 621.6103 515.205)" class="s3d-svg__text">Воркаут зона</text>
</g>
<g class="js-s3d-svg__point-group s3d-svg__point-group" data-type="children">
	<path class="s3d-svg__point-bg" d="M843,602.7c-17.2,0-31.1,13.7-31.1,30.5c-0.1,24.6,30,45,31.1,45.8c0,0,31.3-21.2,31.1-45.8
		C874.1,616.4,860.1,602.7,843,602.7z"/>
	<rect x="733.9" y="546.4" class="s3d-svg__text-bg" width="218.1" height="46.5"/>
	<text transform="matrix(1 0 0 1 743.8161 565.5988)"><tspan x="0" y="0" class="s3d-svg__text">Дитячі майданчики для</tspan><tspan x="17.8" y="18" class="s3d-svg__text">різних вікових груп</tspan></text>
	<g>
		<g>
			<g>
				<path class="s3d-svg__point" d="M859.6,624.7c-2.1-3.1-4.7-5.1-7.8-5.9v12.9c3-0.8,5.7-2.8,7.8-5.9C859.8,625.5,859.8,625.1,859.6,624.7z"
					/>
			</g>
		</g>
		<g>
			<g>
				<path class="s3d-svg__point" d="M847.7,642.1c0.1-0.3,0.2-0.7,0.2-1.1c0-1.6-1.3-3-3-3H841c-0.5,0-1-0.4-1-1s0.4-1,1-1h3.9c1.6,0,3-1.3,3-3
					c0-0.3-0.1-0.7-0.2-1h0.8c0.5,0,0.9,0,1.4-0.1v-13.6c-0.5-0.1-0.9-0.1-1.4-0.1c-1.4,0-2.5,1.1-2.5,2.5v0.4c0,1.6-1.3,3-3,3
					c-1.6,0-3-1.3-3-3c0-1.3-0.9-2.4-2.1-2.8c-0.4-2.3-2.4-4.1-4.8-4.1h-6c-0.5,0-1,0.4-1,1c0,2.4,1.7,4.4,3.9,4.8v2.1h-1
					c-1.6,0-3,1.3-3,3c0,1.6,1.3,3,3,3h1v2.1c-2.2,0.5-3.9,2.4-3.9,4.8c0,0.5,0.4,1,1,1h6c2.4,0,4.4-1.7,4.8-3.9c3.7,0,3.3,0,7,0
					c0.5,0,1,0.4,1,1c0,0.5-0.4,1-1,1H841c-1.6,0-3,1.3-3,3c0,1.6,1.3,3,3,3h3.9c0.5,0,1,0.4,1,1s-0.4,1-1,1H839
					c-2.7,0-4.9,2.3-4.9,5.1c0,0.5,0.4,1,1,1h15.8c0.5,0,1-0.4,1-1C851.8,644.7,850,642.5,847.7,642.1z M829.1,626.3
					c-0.5,0-1-0.4-1-1c0-0.5,0.4-1,1-1h4c0.5,0,1,0.4,1,1c0,0.5-0.4,1-1,1H829.1z M833.1,634.2h-4.8c0.4-1.1,1.5-2,2.8-2h4.8
					C835.5,633.3,834.4,634.2,833.1,634.2z M831.1,618.4c-1.3,0-2.4-0.8-2.8-2h4.8c1.3,0,2.4,0.8,2.8,2H831.1z M840,630.2h-2v-1
					c0-0.5,0.4-1,1-1s1,0.4,1,1V630.2z M843.9,630.2h-2v-1c0-0.5,0.4-1,1-1s1,0.4,1,1V630.2z"/>
			</g>
		</g>
	</g>
</g>
<g class="js-s3d-svg__point-group s3d-svg__point-group" data-type="workout zone">
	<path class="s3d-svg__point-bg" d="M453.6,427.3c-17.2,0-31.1,13.7-31.1,30.5c-0.1,24.6,30,45,31.1,45.8c0,0,31.3-21.2,31.1-45.8
		C484.8,441,470.8,427.3,453.6,427.3z"/>
	<path class="s3d-svg__point" d="M466.6,440.9h-1.7c-0.3,0-0.6,0.3-0.6,0.6v1.3h-3.2c-0.2-0.4-0.6-0.6-1.1-0.6c-0.5,0-0.9,0.2-1.2,0.6h-2.1
		c0.3,0.4,0.5,0.9,0.6,1.5h1.2c-0.1,1.4-0.2,2.8-0.3,3.4c-0.5,0.3-2.2,0.8-3.7,0.8h-2c-1.5,0-3.2-0.4-3.7-0.8
		c-0.1-0.6-0.2-2-0.3-3.4h1.4c0.1-0.5,0.3-1,0.6-1.5h-2.3c-0.2-0.4-0.7-0.7-1.2-0.6c-0.4,0-0.8,0.3-1,0.6h-3v-1.3
		c0-0.3-0.3-0.6-0.6-0.6h-1.7c-0.3,0-0.6,0.3-0.6,0.6v30.6c0,0.3,0.3,0.6,0.6,0.6h1.7c0.3,0,0.6-0.3,0.6-0.6v-27.9h2.9
		c0.1,1.3,0.2,3.4,0.5,4.3c0.4,1.4,2.5,2,4.1,2.3l0.2,5.6l-1.8,9.5c-0.2,0.8,0.4,1.6,1.2,1.8c0.1,0,0.2,0,0.3,0
		c0.7,0,1.4-0.5,1.5-1.3l1.7-9.1l1.7,9.1c0.2,0.8,1,1.4,1.8,1.2c0.8-0.2,1.4-1,1.2-1.8l-1.8-9.5l0.2-5.6c1.6-0.3,3.5-0.9,3.9-2.3
		c0.2-0.8,0.4-3,0.5-4.3h3V472c0,0.3,0.3,0.6,0.6,0.6h1.7c0.3,0,0.6-0.3,0.6-0.6v-30.6C467.1,441.1,466.9,440.9,466.6,440.9z"/>
	<path class="s3d-svg__point" d="M453.6,447.6c1.5,0,2.7-1.2,2.7-2.7c0-1.5-1.2-2.7-2.7-2.7s-2.7,1.2-2.7,2.7
		C451,446.4,452.2,447.6,453.6,447.6z"/>
	<rect x="385.1" y="386.1" class="s3d-svg__text-bg" width="137" height="31.1"/>
	<text transform="matrix(1 0 0 1 397.2994 406.0726)" class="s3d-svg__text">Воркаут зона</text>
</g>
<g class="js-s3d-svg__point-group s3d-svg__point-group" data-type="stadium">
	<path class="s3d-svg__point-bg" d="M554,493.3c-17.2,0-31.1,13.7-31.1,30.5c-0.1,24.6,30,45,31.1,45.8c0,0,31.3-21.2,31.1-45.8
		C585.1,507,571.2,493.3,554,493.3z"/>
	<path class="s3d-svg__point" d="M537.9,512v0.9h1.2v1c0.2,0,0.3-0.1,0.5-0.1V512C538.9,512,538.4,512,537.9,512z M568.5,512v1.8
		c0.2,0,0.3,0.1,0.5,0.1v-1h1.2V512C569.6,512,569.1,512,568.5,512z M535.1,512.9v0.9h1.2v0.9c0.1-0.1,0.3-0.1,0.5-0.2v-1.7
		C536.2,512.9,535.6,512.9,535.1,512.9z M554,512.9c-11.5,0-20.8,2.5-20.8,5.5c0,0.9,0.8,1.8,2.3,2.5c1.9-1.5,5.1-3.1,7.9-3.8
		c3.2-0.7,6.9-1.1,10.6-1.1c3.7,0,7.4,0.3,10.6,0.9c3,0.6,6.5,2.4,8.3,3.8c1.2-0.7,1.9-1.5,1.9-2.3
		C574.8,515.4,565.5,512.9,554,512.9L554,512.9z M571.3,512.9v1.7c0.2,0.1,0.3,0.1,0.5,0.2v-0.9h1.2v-0.9
		C572.4,512.9,571.8,512.9,571.3,512.9z M532.3,514.8v0.9h1.2v0.5c0.1-0.1,0.3-0.2,0.5-0.3v-1.1
		C533.4,514.8,532.9,514.8,532.3,514.8z M574.1,514.8v1.1c0.2,0.1,0.3,0.2,0.5,0.3v-0.5h1.2v-0.9
		C575.1,514.8,574.6,514.8,574.1,514.8z M554,518c-3.6,0-7.2,0.4-10.2,1.1c-2.3,0.5-4.7,1.7-6.3,2.8c0.4,0.1,0.8,0.3,1.2,0.4
		c3.5-1.8,9.7-3.3,15.2-3.3s11.8,1.4,15.3,3.3c0.6-0.2,1.1-0.3,1.6-0.5c-1.6-1.1-4.2-2.4-6.7-2.9C561.2,518.2,557.6,517.9,554,518z
		 M554,520.8c-4.2,0-9,1-12.2,2.2c3.4,0.7,7.6,1.1,12.2,1.1c4.6,0,8.8-0.4,12.2-1.1C563,521.8,558.2,520.8,554,520.8z M574.3,520.9
		c-1.2,0.8-3,1.5-5.1,2.1c-4,1.1-9.3,1.7-15.2,1.7c-5.9,0-11.3-0.6-15.2-1.7c-2-0.5-3.7-1.2-4.9-1.9l2.6,10.4
		c3.6,1.7,7.2,2.9,10.8,3.5l-0.7-2.9c-0.1-0.3,0-0.6,0.2-0.9l2.3-2.3c0.1-0.1,0.4-0.2,0.6-0.3c2.8,0,5.6,0,8.4,0
		c0.2,0,0.5,0.1,0.7,0.3l2.3,2.3c0.2,0.2,0.3,0.6,0.2,0.9l-0.7,2.9c3.8-0.6,7.5-1.8,11.3-3.6L574.3,520.9z M549.8,529.5l-1.4,1.4
		h11.1l-1.4-1.4H549.8z M549.6,532.8l1,4.2h6.8l1-4.2H549.6z"/>
	<rect x="507.3" y="452.2" class="s3d-svg__text-bg" width="93.4" height="31.1"/>
	<text transform="matrix(1 0 0 1 521.0829 472.1312)" class="s3d-svg__text">стадіон</text>
</g>
<g class="js-s3d-svg__point-group s3d-svg__point-group" data-type="park">
	<path class="s3d-svg__point-bg" d="M345,404.7c-17.2,0-31.1,13.7-31.1,30.5c-0.1,24.6,30,45,31.1,45.8c0,0,31.3-21.2,31.1-45.8
		C376.2,418.4,362.2,404.7,345,404.7z"/>
	<g>
		<path class="s3d-svg__point" d="M343.8,441.1H342v-1.8c0-0.3-0.3-0.6-0.6-0.6c-0.3,0-0.6,0.3-0.6,0.6v1.8h-10.1v-1.8c0-0.3-0.3-0.6-0.6-0.6
			c-0.3,0-0.6,0.3-0.6,0.6v1.8h-1.8c-0.3,0-0.6,0.3-0.6,0.6v2.4c0,0.3,0.3,0.6,0.6,0.6h1.8v1.2h-1.8c-0.3,0-0.6,0.3-0.6,0.6v2.4
			c0,0.3,0.3,0.6,0.6,0.6h0.6v3c0,0.3,0.3,0.6,0.6,0.6h2.4c0.3,0,0.6-0.3,0.6-0.6v-3h7.8v3c0,0.3,0.3,0.6,0.6,0.6h2.4
			c0.3,0,0.6-0.3,0.6-0.6v-3h0.6c0.3,0,0.6-0.3,0.6-0.6v-2.4c0-0.3-0.3-0.6-0.6-0.6H342v-1.2h1.8c0.3,0,0.6-0.3,0.6-0.6v-2.4
			C344.4,441.3,344.1,441.1,343.8,441.1z M330.7,451.8h-1.2v-2.4h1.2V451.8z M342,451.8h-1.2v-2.4h1.2V451.8z M340.8,445.8h-10.1
			v-1.2h10.1V445.8z"/>
		<path class="s3d-svg__point" d="M359.9,422.6L359.9,422.6c-0.3-1.7-1.8-3-3.6-3c-0.9,0-1.8,0.4-2.4,0.9v-2.7c0-0.3-0.3-0.6-0.6-0.6
			c-0.3,0-0.6,0.3-0.6,0.6v2.7c-0.6-0.6-1.5-0.9-2.4-0.9c-1.8,0-3.2,1.3-3.5,3h-0.1c-1.6,0-3,1.3-3,3c0,0.3,0.3,0.6,0.6,0.6h1.2v1.2
			c0,1,0.8,1.8,1.8,1.8c1,0,1.8-0.8,1.8-1.8v-1.2h1.2c0.3,0,0.6-0.3,0.6-0.6c0-1.6-1.3-2.9-2.9-3c0.3-1,1.2-1.8,2.3-1.8
			c1.3,0,2.4,1.1,2.4,2.4v8.5c-0.7,0.2-1.2,0.9-1.2,1.7V445c-0.8,0.3-1.5,0.9-1.9,1.6c-0.1,0-0.2-0.1-0.3-0.1c-0.1,0-0.1,0-0.2-0.1
			c-0.2,0-0.4-0.1-0.6-0.1c-1.6,0-3,1.3-3,3v3c0,0.3,0.3,0.6,0.6,0.6h14.3c0.3,0,0.6-0.3,0.6-0.6v-3c0-1.6-1.3-3-3-3
			c-0.2,0-0.4,0-0.6,0.1c-0.1,0-0.1,0-0.2,0.1c-0.1,0-0.2,0-0.3,0.1c-0.4-0.7-1.1-1.3-1.9-1.6v-11.7c0-0.8-0.5-1.4-1.2-1.7v-8.5
			c0-1.3,1.1-2.4,2.4-2.4c1.1,0,2,0.8,2.3,1.8c-1.6,0-2.9,1.4-2.9,3c0,0.3,0.3,0.6,0.6,0.6h1.2v1.2c0,1,0.8,1.8,1.8,1.8
			c1,0,1.8-0.8,1.8-1.8v-1.2h1.2c0.3,0,0.6-0.3,0.6-0.6C362.9,423.9,361.6,422.6,359.9,422.6z"/>
		<path class="s3d-svg__point" d="M329.5,423.8h6c1.3,0,2.4-1.1,2.4-2.4c0-1.4-1.2-2.5-2.6-2.4c-0.5-1.1-1.5-1.8-2.7-1.8
			c-1.2,0-2.3,0.7-2.7,1.8c-1.4-0.2-2.6,1-2.6,2.4C327.1,422.7,328.2,423.8,329.5,423.8z"/>
		<path class="s3d-svg__point" d="M342.4,430.3c-0.5-1.1-1.5-1.8-2.7-1.8c-1.2,0-2.3,0.7-2.7,1.8c-1.4-0.2-2.6,1-2.6,2.4c0,1.3,1.1,2.4,2.4,2.4
			h6c1.3,0,2.4-1.1,2.4-2.4C345,431.3,343.8,430.2,342.4,430.3z"/>
	</g>
	<rect x="310.7" y="363.6" class="s3d-svg__text-bg" width="68.5" height="31.1"/>
	<text transform="matrix(1 0 0 1 325.2988 383.533)" class="s3d-svg__text">парк</text>
</g>
<g class="js-s3d-svg__point-group s3d-svg__point-group" data-type="children park">
	<path class="s3d-svg__point-bg" d="M732.7,214.2c-17.2,0-31.1,13.7-31.1,30.5c-0.1,24.6,30,45,31.1,45.8c0,0,31.3-21.2,31.1-45.8
		C763.9,227.9,749.9,214.2,732.7,214.2z"/>
	<rect x="645.2" y="173" class="s3d-svg__text-bg" width="175" height="31.1"/>
	<text transform="matrix(1 0 0 1 657.6207 193.0004)" class="s3d-svg__text">Дитячий садочок</text>
	<g>
		<g>
			<g>
				<path class="s3d-svg__point" d="M747.7,251.6c-1.5-1.2-3.9-0.8-5.6,0.8l-1.3-0.8c0.1-0.4,0.1-0.8,0.1-1.3c1.8-0.4,3.4-1,5-1.7
					c1.8-0.8,2.5-2.9,1.7-4.7c-0.8-1.8-2.9-2.5-4.7-1.7c-1.1,0.5-2.3,0.9-3.5,1.2c1.3-1.5,2-3.5,2-5.6c0-0.3,0-0.6,0-0.9
					c1.7-0.7,3-2.4,3-4.4c0-2.6-2.1-4.7-4.7-4.7c-1.5,0-2.8,0.7-3.7,1.8c-1-0.4-2.2-0.7-3.3-0.7c-1.2,0-2.3,0.2-3.3,0.7
					c-0.9-1.1-2.2-1.8-3.7-1.8c-2.6,0-4.7,2.1-4.7,4.7c0,2,1.2,3.7,3,4.4c0,0.3,0,0.6,0,0.9c0,2.1,0.8,4.1,2,5.6
					c-1.3-0.3-2.4-0.7-3.5-1.2c-1.8-0.8-3.9,0-4.7,1.7c-0.8,1.8,0,3.9,1.7,4.7c1.6,0.7,3.2,1.3,5,1.7c0,0.4,0.1,0.9,0.1,1.3
					l-1.3,0.8c-1.8-1.6-4.1-1.9-5.6-0.8c-1.8,1.4-1.8,4.4,0,6.7c1.1,1.4,2.7,2.3,4.4,2.3c0.6,0,1.3-0.2,1.8-0.5l4.8-2.9
					c1.2,0.7,2.5,1,4,1c1.4,0,2.8-0.4,4-1l4.8,2.9c0.5,0.3,1.2,0.5,1.8,0.5c1.7,0,3.4-1,4.4-2.3C749.5,256,749.5,253,747.7,251.6z
					 M722.8,259.4C722.8,259.4,722.8,259.4,722.8,259.4c-2.8,0.9-6.3-3.2-5-6C720.6,252.5,724.1,256.6,722.8,259.4z M724.5,234.5
					c-0.7-0.4-1.2-1.2-1.2-2c0-1.3,1.1-2.3,2.3-2.3c0.6,0,1.2,0.3,1.7,0.7C726.1,231.8,725.1,233,724.5,234.5z M729.1,249.6
					c-0.5,0.3-1.1-0.1-1.1-0.7v-2.7c0-0.6,0.6-1,1.1-0.7l1.8,0.6c-0.2,0.2-0.3,0.5-0.4,0.9h-1.2v1.2h1.2c0.1,0.3,0.2,0.6,0.4,0.9
					L729.1,249.6z M732.7,248.7c-0.6,0-1.2-0.5-1.2-1.2c0-0.6,0.5-1.2,1.2-1.2s1.2,0.5,1.2,1.2C733.9,248.2,733.4,248.7,732.7,248.7
					z M737.4,248.9L737.4,248.9c0,0.6-0.6,1-1.1,0.7l-1.7-0.6c0.2-0.3,0.4-0.5,0.4-0.9h1.2V247H735c-0.1-0.3-0.2-0.6-0.4-0.9
					l1.7-0.6c0.5-0.3,1.1,0.1,1.1,0.7L737.4,248.9L737.4,248.9z M736.4,237.8c0.7,0.8,1.1,1.8,1.1,2.9c0,2.6-2.1,4.7-4.7,4.7
					s-4.7-2.1-4.7-4.7c0-1.1,0.4-2.1,1.1-2.9c-0.9-0.1-1.7-0.8-1.7-1.8c0-1,0.8-1.8,1.8-1.8c1,0,1.8,0.8,1.8,1.8c0,0.1,0,0.2,0,0.4
					c0.6-0.2,1.2-0.4,1.8-0.4c0.6,0,1.2,0.1,1.8,0.4c0-0.1,0-0.2,0-0.4c0-1,0.8-1.8,1.8-1.8s1.8,0.8,1.8,1.8
					C738,236.9,737.3,237.7,736.4,237.8z M738.1,230.8c0.4-0.4,1-0.7,1.7-0.7c1.3,0,2.3,1.1,2.3,2.3c0,0.9-0.5,1.6-1.2,2
					C740.3,233,739.4,231.8,738.1,230.8z M742.6,259.4c-1.3-2.8,2.2-6.9,5-6C748.9,256.3,745.3,260.3,742.6,259.4z"/>
			</g>
		</g>
		<g>
			<g>
				<circle class="s3d-svg__point" cx="729.2" cy="236" r="0.9"/>
			</g>
		</g>
		<g>
			<g>
				<circle class="s3d-svg__point" cx="732.7" cy="239.5" r="1.2"/>
			</g>
		</g>
		<g>
			<g>
				<circle class="s3d-svg__point" cx="736.3" cy="236" r="0.9"/>
			</g>
		</g>
	</g>
</g>
<g class="js-s3d-svg__point-group s3d-svg__point-group" data-type="eco-market">
	<path class="s3d-svg__point-bg" d="M507.3,242c-17.2,0-31.1,13.7-31.1,30.5c-0.1,24.6,30,45,31.1,45.8c0,0,31.3-21.2,31.1-45.8
		C538.4,255.7,524.5,242,507.3,242z"/>
	<g>
		<path class="s3d-svg__point" d="M513.6,257.5c-1.9-0.2-3.9-0.2-5.8,0c-3.3,0.3-5.5,1.3-6.6,2.9c-1,1.5-0.8,3.2-0.5,4.4c0,0,0,0,0.1,0.1
			c0,0,0.1,0,0.1,0c1.6-1,3.4-1.7,5.3-2c0,0,0,0,0,0v0l-4.7,3.8c-1,0.9-1.8,2-2.4,3.3c-0.2,0.4-0.2,0.9,0.1,1.3
			c0.2,0.3,0.5,0.5,0.9,0.6c0.6,0.1,1.2-0.2,1.5-0.8c0.4-0.9,1-1.7,1.7-2.3c0.7,0.5,2.1,1.3,3.7,1.5c0.3,0,0.6,0,0.8,0
			c3.4-0.3,5.5-4.4,6.3-12.1C514.2,257.8,513.9,257.5,513.6,257.5z"/>
		<path class="s3d-svg__point" d="M508.6,281.1c-1,0.1-1.9,0-2.9-0.3c0.1-0.9,0.1-2.5-0.5-3.9c-0.1-0.3-0.3-0.5-0.4-0.7
			c-2-2.8-6.6-2.6-13.6,0.6c-0.3,0.1-0.4,0.5-0.3,0.8c0.8,1.7,1.8,3.4,2.9,5c1.8,2.5,3.6,4,5.4,4.3c0.1,0,0.3,0,0.4,0
			c1.8,0.1,3.2-0.9,4.1-1.8c0,0,0,0,0-0.1c0,0,0,0,0-0.1c-1.6-0.9-3.2-2.1-4.4-3.6v0h0l5.6,2.1c1.3,0.4,2.7,0.6,4.1,0.4
			c0.5,0,0.9-0.3,1.1-0.7c0.2-0.4,0.2-0.9-0.1-1.3C509.7,281.3,509.2,281.1,508.6,281.1z"/>
		<path class="s3d-svg__point" d="M523.3,275c-0.8-1.6-2.4-2.3-3.6-2.6c0,0-0.1,0-0.1,0c0,0,0,0,0,0.1c0.1,1.9-0.2,3.8-0.9,5.6v0h0c0,0,0,0,0,0
			l-1-5.9c-0.3-1.3-0.8-2.7-1.6-3.8c-0.1-0.1-0.2-0.3-0.4-0.4c-0.6-0.4-1.4-0.1-1.8,0.5l-0.1,0.1c-0.2,0.4-0.2,1,0.1,1.4
			c0.6,0.8,1,1.7,1.1,2.7c-0.8,0.4-2.2,1.1-3.1,2.4c-0.2,0.2-0.3,0.5-0.4,0.7c-1.4,3.1,1,7,7.3,11.5c0.3,0.2,0.6,0.1,0.8-0.2
			c1.1-1.6,2-3.3,2.9-5C523.8,279.1,524.1,276.7,523.3,275z"/>
	</g>
	<rect x="452.8" y="200.8" class="s3d-svg__text-bg" width="109" height="31.1"/>
	<text transform="matrix(1 0 0 1 463.8957 220.7862)" class="s3d-svg__text">еко-ринок</text>
</g>
<g class="js-s3d-svg__point-group s3d-svg__point-group" data-type="beach">
	<path class="s3d-svg__point-bg" d="M1111.4,147.5c-17.2,0-31.1,13.7-31.1,30.5c-0.1,24.6,30,45,31.1,45.8c0,0,31.3-21.2,31.1-45.8
		C1142.5,161.2,1128.6,147.5,1111.4,147.5z"/>
	<g>
		<path class="s3d-svg__point" d="M1099.4,178.3c2,0,3.6-1.6,3.6-3.6c0-2-1.6-3.6-3.6-3.6c-2,0-3.6,1.6-3.6,3.6
			C1095.8,176.7,1097.4,178.3,1099.4,178.3z"/>
		<path class="s3d-svg__point" d="M1099.4,169.9c0.6,0,1-0.4,1-1V167c0-0.6-0.4-1-1-1c-0.6,0-1,0.4-1,1v1.9
			C1098.4,169.5,1098.8,169.9,1099.4,169.9z"/>
		<path class="s3d-svg__point" d="M1094.5,171.3c0.2,0.2,0.4,0.3,0.7,0.3c0.3,0,0.5-0.1,0.7-0.3c0.2-0.2,0.3-0.4,0.3-0.7s-0.1-0.5-0.3-0.7
			l-1.3-1.3c-0.4-0.4-1-0.4-1.4,0c-0.2,0.2-0.3,0.4-0.3,0.7c0,0.3,0.1,0.5,0.3,0.7L1094.5,171.3z"/>
		<path class="s3d-svg__point" d="M1094.5,174.7c0-0.6-0.4-1-1-1h-1.9c-0.6,0-1,0.4-1,1c0,0.6,0.4,1,1,1h1.9
			C1094.1,175.8,1094.5,175.3,1094.5,174.7z"/>
		<path class="s3d-svg__point" d="M1094.5,178.2l-1.3,1.3c-0.2,0.2-0.3,0.4-0.3,0.7c0,0.3,0.1,0.5,0.3,0.7c0.2,0.2,0.4,0.3,0.7,0.3
			c0.3,0,0.5-0.1,0.7-0.3l1.3-1.3c0.2-0.2,0.3-0.4,0.3-0.7c0-0.3-0.1-0.5-0.3-0.7C1095.5,177.8,1094.9,177.8,1094.5,178.2z"/>
		<path class="s3d-svg__point" d="M1098.4,180.6v1.9c0,0.6,0.4,1,1,1c0.6,0,1-0.4,1-1v-1.9c0-0.6-0.4-1-1-1
			C1098.8,179.6,1098.4,180.1,1098.4,180.6z"/>
		<path class="s3d-svg__point" d="M1102.8,178.2c-0.2,0.2-0.3,0.4-0.3,0.7c0,0.3,0.1,0.5,0.3,0.7l1.3,1.3c0.2,0.2,0.4,0.3,0.7,0.3
			c0.3,0,0.5-0.1,0.7-0.3c0.2-0.2,0.3-0.4,0.3-0.7c0-0.3-0.1-0.5-0.3-0.7l-1.3-1.3C1103.8,177.8,1103.2,177.8,1102.8,178.2z"/>
		<path class="s3d-svg__point" d="M1104.2,174.7c0,0.6,0.4,1,1,1h1.9c0.6,0,1-0.4,1-1c0-0.6-0.4-1-1-1h-1.9
			C1104.7,173.7,1104.2,174.2,1104.2,174.7z"/>
		<path class="s3d-svg__point" d="M1103.5,171.6c0.3,0,0.5-0.1,0.7-0.3l1.3-1.3c0.2-0.2,0.3-0.4,0.3-0.7c0-0.3-0.1-0.5-0.3-0.7
			c-0.4-0.4-1-0.4-1.4,0l-1.3,1.3c-0.2,0.2-0.3,0.4-0.3,0.7s0.1,0.5,0.3,0.7C1103,171.6,1103.2,171.6,1103.5,171.6z"/>
		<path class="s3d-svg__point" d="M1131.2,188.7c-0.5,0-1-0.2-1.5-0.4c-0.5-0.3-1.1-0.5-1.7-0.5h-0.2c-0.6,0-1.2,0.2-1.7,0.5
			c-0.5,0.3-1,0.4-1.5,0.4s-1-0.2-1.5-0.4c-0.5-0.3-1.1-0.5-1.7-0.5h-0.2c-0.6,0-1.2,0.2-1.7,0.5c-0.5,0.3-1,0.4-1.5,0.4
			s-1-0.2-1.5-0.4c-0.2-0.1-0.4-0.2-0.5-0.2l5.8-14.4c0.6-0.3,1.4-0.3,2,0c0.9,0.3,1.5,1.1,1.6,2.1c0,0.2,0.2,0.4,0.4,0.5
			c0.2,0.1,0.4,0,0.6-0.1c0.7-0.6,1.8-0.7,2.6-0.3c0.8,0.3,1.4,1,1.6,1.9c0.1,0.3,0.3,0.4,0.6,0.5c0.3,0,0.5-0.1,0.6-0.4
			c0,0,0-0.1,0.1-0.3c1.5-4.6-1.3-9.8-6.7-12.3l0.2-0.6c0.2-0.5,0-1.1-0.6-1.3c-0.5-0.2-1.1,0-1.3,0.6l-0.2,0.6
			c-5.6-1.8-11.2-0.1-13.4,4.3c0,0-0.1,0.1-0.1,0.2c-0.1,0.3,0,0.5,0.2,0.7c0.2,0.2,0.5,0.2,0.7,0c0.7-0.5,1.7-0.6,2.4-0.3
			c0.9,0.3,1.5,1.1,1.6,2.1c0,0.2,0.2,0.4,0.4,0.5c0.2,0.1,0.4,0,0.6-0.1c0.7-0.6,1.8-0.7,2.6-0.4c0.7,0.3,1.1,0.7,1.4,1.4l-6,15
			c-0.3,0.1-0.7,0.2-0.9,0.4c-0.5,0.3-1,0.4-1.5,0.4s-1-0.2-1.5-0.4c-0.5-0.3-1.1-0.5-1.7-0.5h-0.2c-0.6,0-1.2,0.2-1.7,0.5
			c-0.5,0.3-1,0.4-1.5,0.4c-0.5,0-1-0.2-1.5-0.4c-0.5-0.3-1.1-0.5-1.7-0.5h-0.2c-0.6,0-1.2,0.2-1.7,0.5c-0.5,0.3-1,0.4-1.5,0.4
			c-0.6,0-1,0.5-1,1c0,0.5,0.5,1.5,1,1.5c0.5,0,0.9-0.1,1.4-0.2c1.2-0.4,2.5-0.4,3.8,0c0.5,0.1,1,0.2,1.5,0.2c0.4,0,0.7,0,1-0.1
			c1.5-0.3,3.1-0.3,4.6,0c0.4,0.1,0.7,0.1,1,0.1c0.4,0,0.7,0,1-0.1c1.5-0.3,3.1-0.3,4.6,0c0.4,0.1,0.7,0.1,1,0.1c0.4,0,0.7,0,1-0.1
			c1.5-0.3,3.1-0.3,4.5,0c0.4,0.1,0.7,0.1,1,0.1c0.3,0,0.7,0,1-0.1c1.5-0.3,3.1-0.3,4.5,0c0.4,0.1,0.7,0.1,1,0.1c0.6,0,1.1-1,1-1.7
			C1132.1,189,1131.7,188.7,1131.2,188.7z"/>
	</g>
	<rect x="1072.5" y="106.4" class="s3d-svg__text-bg" width="77.9" height="31.1"/>
	<text transform="matrix(1 0 0 1 1088.9142 126.3548)" class="s3d-svg__text">пляж</text>
</g>

<g>
	<circle class="s3d-svg__text-bg" cx="1377" cy="594" r="14"/>
		<text transform="matrix(1 0 0 1 1373.9924 598.3345)" class="s3d-svg__text">7</text>
</g>
	<g>
	<circle class="s3d-svg__text-bg" cx="1351.9" cy="499.2" r="14"/>
		<text transform="matrix(1 0 0 1 1347.6626 503.5688)" class="s3d-svg__text">6</text>
</g>
	<g>
	<circle class="s3d-svg__text-bg" cx="1155.2" cy="507.3" r="14"/>
		<text transform="matrix(1 0 0 1 1150.8571 511.7186)" class="s3d-svg__text">5</text>
</g>
	<g>
	<circle class="s3d-svg__text-bg" cx="1240.1" cy="392.3" r="14"/>
		<text transform="matrix(1 0 0 1 1234.0948 396.6584)" class="s3d-svg__text">11</text>
</g>
	<g>
	<circle class="s3d-svg__text-bg" cx="1114.7" cy="423.5" r="14"/>
		<text transform="matrix(1 0 0 1 1110.5151 427.9143)" class="s3d-svg__text">4</text>
</g>
	<g>
	<circle class="s3d-svg__text-bg" cx="1093.4" cy="299" r="14"/>
		<text transform="matrix(1 0 0 1 1085.6088 303.3423)" class="s3d-svg__text">10</text>
</g>
	<g>
	<circle class="s3d-svg__text-bg" cx="1075.9" cy="354.9" r="14"/>
		<text transform="matrix(1 0 0 1 1068.5393 359.3152)" class="s3d-svg__text">12</text>
</g>
	<g>
	<circle class="s3d-svg__text-bg" cx="942.6" cy="304.5" r="14"/>
		<text transform="matrix(1 0 0 1 938.2048 308.8921)" class="s3d-svg__text">9</text>
</g>
	<g>
	<circle class="s3d-svg__text-bg" cx="917.8" cy="246.4" r="14"/>
		<text transform="matrix(1 0 0 1 913.3954 250.7837)" class="s3d-svg__text">8</text>
</g>
	<g>
	<circle class="s3d-svg__text-bg" cx="773" cy="313" r="14"/>
		<text transform="matrix(1 0 0 1 768.8329 317.3579)" class="s3d-svg__text">2</text>
</g>
	<g>
	<circle class="s3d-svg__text-bg" cx="821.1" cy="415.1" r="14"/>
		<text transform="matrix(1 0 0 1 816.9719 419.449)" class="s3d-svg__text">3</text>
</g>
	<g>
	<circle class="s3d-svg__text-bg" cx="609.4" cy="308.6" r="14"/>
		<text transform="matrix(1 0 0 1 605.1116 312.9773)" class="s3d-svg__text">1</text>
</g>
</svg>
