<svg version="1.1" id="Layer_1" xmlns="http://www.w3.org/2000/svg" xmlns:xlink="http://www.w3.org/1999/xlink" x="0px" y="0px"
	 viewBox="0 0 1920 1080" style="enable-background:new 0 0 1920 1080;" xml:space="preserve">

<a href="/choose-flat" data-build="8"><polygon class="s3d-svg__house js-s3d-svg__house" data-build="8" points="211.3,528.1 211.3,484.6 215,484.6 216.1,467.5 218.6,467.5 218.6,456 232.8,451.4 232.8,448.5
	273.3,438.1 276.4,440.6 304.7,433.9 304.7,431.6 351.6,420.1 355.1,422.1 380.4,416.8 380.4,414.3 407.6,408.1 409.5,410 
	427.1,405.5 430.4,407.6 449.7,403.6 457.3,408 457.3,419.9 463,421.8 463,442.9 464.1,442.9 464.1,489.9 360.2,514.2 357.8,509.1 
	278.4,528.1 278.4,531 275.9,531 275.9,535.5 233.7,543.8 "/></a>
<a href="/choose-flat" data-build="10"><polygon class="s3d-svg__house js-s3d-svg__house" data-build="10" points="474.3,470.5 474.3,426.1 478.2,426.1 478.2,414.9 481.7,414.9 481.7,396.8 493.2,393.5 493.2,390.6
	505.8,388 505.8,385.8 531.2,380.2 534.9,382.5 560.2,376.8 560.2,374.1 601.9,364.5 605.2,366.3 629.1,361.5 629.1,358.2 
	653.4,353.4 655.7,354.9 671.6,350.7 674.2,352.6 690.7,349.6 701.7,354.7 701.7,364.3 706.4,365.9 706.4,385.2 709.5,385.2 
	709.5,394.9 693.8,397.7 689,397.5 679.2,399.6 677.2,398.9 671.3,400.6 667.4,398.6 644.4,404.2 644.4,408 624.7,412.5 
	615.5,411.4 596.9,415.8 594.9,417.8 594.9,419.4 589.6,419.4 583.5,421.3 580.8,419 571.1,422 571.1,424.5 562.3,427.2 
	556.1,427.7 545.8,430.8 536.8,429.7 531.6,431.6 524.7,431.6 511.7,435.6 511.7,438.1 498.9,440.5 498.9,444.1 488.3,446 
	485.9,449.9 485.9,465.9 482.2,465.9 482.2,473.8 "/></a>
<a href="/choose-flat" data-build="11"><polygon class="s3d-svg__house js-s3d-svg__house" data-build="11" points="737.7,419.9 737.7,372.7 739.3,372.7 739.3,346.6 756.6,345.4 756.6,343.4 763.6,343.4 763.6,341.2
	765.2,341.2 767.4,343.4 774.7,343.4 774.7,340.7 801.5,339.8 802.5,341.6 836.2,339.8 836.2,336.9 881.9,335 882.7,336.6 916,335 
	916,332.1 963.8,329.1 964.9,330.5 995.6,329.8 995.6,326.8 1020.4,325.7 1022.1,326.9 1049.4,325.7 1049.4,327.8 1059.7,327.3 
	1065.2,333 1065.2,343.5 1067.1,344.4 1067.1,354.3 1050.9,359.1 1050.7,360.8 1033.7,365.7 1022.5,365.1 1005.4,369.6 
	1005.5,371.2 995.9,373.4 991.7,372.3 984.4,374.5 984.4,377.6 972.5,381.8 964.1,381.8 961.1,383.5 957.3,381.8 951.6,381.8 
	939.4,387.7 935.8,387.7 933.1,389.8 918.7,389.8 916.7,391.8 916.7,394.1 897.4,398.5 886.2,398.5 870.2,403.8 861.1,406.4 
	853.2,406.4 848.2,408.1 848.2,410.8 834.2,414.8 829.7,414.8 829.7,398.6 826.5,398.6 826.5,385.3 821.1,379.9 809.8,379.9 
	809.8,374.2 808.1,372.5 764.5,374.8 764.5,381.4 757.5,381.4 757.5,395.6 753.4,395.6 753.4,430 745.2,430 "/></a>
<a href="/choose-flat" data-build="6"><polygon class="s3d-svg__house js-s3d-svg__house" data-build="6" points="1096.6,352 1096.6,342.3 1097.6,341.6 1097.6,324.3 1112.7,323.4 1112.7,321.6 1130.1,320.6
	1130.1,318.8 1157.3,317.7 1157.3,319.8 1189.2,317.7 1189.2,315.1 1235.1,312.6 1235.1,315.4 1268,313 1268,310.3 1288.1,310.3 
	1288.1,314 1292.8,314 1292.8,312.4 1296.9,312.4 1296.9,310.3 1309.7,310.3 1309.7,314.6 1311.8,314.6 1311.8,309.7 1317.9,309.7 
	1317.9,310.9 1329.9,310.9 1329.9,315 1336.6,315 1336.6,327.3 1339.1,327.3 1339.1,356.3 1336.3,354.5 1336.3,347.1 1324.1,343 
	1314.9,345.6 1306.1,343.9 1295.7,346.8 1293.7,346.2 1269.6,352.3 1269.6,353.4 1240.8,360.4 1234.3,361.1 1227.6,364 
	1219.4,364.6 1169.7,378 1154.1,382 1129.3,388.1 1129.3,382 1126.9,382 1126.9,366.1 1120.4,363.7 1120.4,354.2 1109.1,350.5 
	1100,352 "/></a>
<a href="/choose-flat" data-build="9"><polygon class="s3d-svg__house js-s3d-svg__house" data-build="9" points="478.9,500.9 478.9,476.1 482,475.6 482.2,473.8 482.2,465.9 485.9,465.9 485.9,449.9 488.3,446
	498.9,444.1 498.9,440.5 511.7,438.1 511.7,435.6 524.7,431.6 531.6,431.6 536.8,429.7 545.8,430.8 556.1,427.7 562.3,427.2 
	571.1,424.5 571.1,422 580.8,419 583.5,421.3 589.6,419.4 594.9,419.4 594.9,417.8 596.9,415.8 615.5,411.4 624.7,412.5 644.4,408 
	644.4,404.2 667.4,398.6 671.3,400.6 677.2,398.9 679.2,399.6 689,397.5 693.8,397.7 709.5,394.9 721.2,399.6 721.2,410.6 
	726.4,411.7 726.4,432.7 728,432.7 728,446.2 717.5,441.7 693.1,447.9 689.5,446.2 654.9,454.2 654.9,457.5 630.9,463.9 
	626.4,461.4 604.4,466.1 604.4,469.1 593.5,470.5 585.2,470.4 578.8,473.2 578.8,476.2 562.2,480.1 562.2,481.6 552.5,482.3 
	544.5,481.1 526,486.1 526,488.3 515,490 515,491.7 511.7,491.7 511.7,489.9 506.8,489.8 499.9,492.3 499.9,495.9 486.1,498.8 
	486.1,501.7 481.1,501.7 481.1,500.7 "/></a>
<g>
	<path class="s3d-svg__point-bg" d="M156.2,484.1c-17.2,0-31.1,13.7-31.1,30.5c-0.1,24.6,30,45,31.1,45.8c0,0,31.3-21.2,31.1-45.8
		C187.3,497.8,173.4,484.1,156.2,484.1z"/>
	<path class="s3d-svg__point" d="M156.2,496.6c9.5,0,17.1,7.7,17.1,17.1c0,9.8-8.2,17.6-17.9,17.1v-2.6c8.3,0.4,15.3-6.2,15.3-14.5
		c0-8-6.5-14.5-14.5-14.5c-8,0-14.5,6.5-14.5,14.5c0,5.8,3.4,10.9,8.6,13.3v-21.3h8c1.4,0,2.5,0.1,3.2,0.2c3.1,0.5,4.9,2.8,4.9,5.9
		c0,4.9-3.6,6.4-7.9,6.4H153v12.2c-8.3-1.8-14-7.9-14-16.7C139,504.2,146.7,496.6,156.2,496.6L156.2,496.6z M153,515.7h5.4
		c2.7,0,5-0.7,5-3.8c0-1.6-0.8-3.1-2.4-3.5c-0.5-0.1-1.3-0.2-2.6-0.2H153V515.7z"/>
	<rect x="109.5" y="443" class="s3d-svg__text-bg" width="93.4" height="31.1"/>
	<text transform="matrix(1 0 0 1 125.2267 462.9124)" class="s3d-svg__text">Паркінг</text>
</g>
<a href="/choose-flat" data-build="12"><polygon class="s3d-svg__house js-s3d-svg__house" data-build="12" points="753.4,430 753.4,448.9 762.4,460.9 764.9,459.8 764.9,451.5 766.1,450.3 770.2,450.3 770.2,431.6
	781.4,429 781.4,426 792.2,423.6 792.2,421.5 818.3,415 822,417 829.7,414.8 829.7,398.6 826.5,398.6 826.5,385.3 821.1,379.9 
	809.8,379.9 809.8,374.2 808.1,372.5 764.5,374.8 764.5,381.4 757.5,381.4 757.5,395.6 753.4,395.6 "/></a>
<a href="/choose-flat" data-build="4"><polygon class="s3d-svg__house js-s3d-svg__house" data-build="4" points="761,481.1 761,460.9 762.4,460.9 764.9,459.8 764.9,451.5 766.1,450.3 770.2,450.3 770.2,431.6
	781.4,429 781.4,426 792.2,423.6 792.2,421.5 818.3,415 822,417 829.7,414.8 834.2,414.8 848.2,410.8 848.2,408.1 853.2,406.4 
	861.1,406.4 870.2,403.8 886.2,398.5 897.4,398.5 916.7,394.1 916.7,391.8 918.7,389.8 933.1,389.8 935.8,387.7 939.4,387.7 
	951.6,381.8 957.3,381.8 961.1,383.5 964.1,381.8 972.5,381.8 984.4,377.6 984.4,374.5 991.7,372.3 995.9,373.4 1005.5,371.2 
	1005.4,369.6 1022.5,365.1 1033.7,365.7 1050.7,360.8 1050.9,359.1 1067.1,354.3 1073.2,354.3 1073.2,355.3 1076,355.3 1076,354 
	1089.4,350.9 1091.6,352.3 1096.6,352 1100,352 1109.1,350.5 1120.4,354.2 1120.4,363.7 1126.9,366.1 1126.9,382 1129.3,382 
	1129.3,388.1 1129.3,430.6 1105.4,436.7 1089.5,431.6 1050,441 1050,436.8 1045.8,435.6 1045.8,434.1 1041.8,432 1036,432 
	1036,426.7 1035.1,426.7 1035.1,421.7 1019.3,416.5 "/></a>
<a href="/choose-flat" data-build="7"><polygon class="s3d-svg__house js-s3d-svg__house" data-build="7" points="1353.4,331.5 1457.3,305.4 1462.1,308.4 1475.6,303.7 1487.4,307.9 1487.4,318.5 1495,320.7
	1495,328.3 1498.9,331.5 1498.9,376.4 1494.2,377.5 1494.2,382.4 1387.5,411.6 1353.4,398.2 "/></a>
<a href="/choose-flat" data-build="5"><polygon class="s3d-svg__house js-s3d-svg__house" data-build="5" points="1346.8,370 1346.8,422.8 1160.3,474 1129.3,471.8 1129.3,430.6 1129.3,388.1 1154.1,382 1169.7,378
	1219.4,364.6 1227.6,364 1234.3,361.1 1240.8,360.4 1269.6,353.4 1269.6,352.3 1293.7,346.2 1295.7,346.8 1306.1,343.9 
	1314.9,345.6 1324.1,343 1336.3,347.1 1336.3,354.5 1339.1,356.3 1343,358.8 1343,368.1 "/></a>
<a href="/choose-flat" data-build="3"><polygon class="s3d-svg__house js-s3d-svg__house" data-build="3" points="759.1,583.7 731.6,570.6 731.6,488.8 761,481.1 1019.3,416.5 1035.1,421.7 1035.1,426.7 1036,426.7
	1036,432 1041.8,432 1045.8,434.1 1045.8,435.6 1050,436.8 1050,441 1089.5,431.6 1105.4,436.7 1113.9,439.5 1113.9,449.4 
	1116.7,450.1 1116.7,460.6 1118.1,460.1 1118.1,485.4 "/></a>
<a href="/choose-flat" data-build="3"><path  class="s3d-svg__house js-s3d-svg__house" data-build="2" d="M401.8,598.8v-47.4h4.1v-33.6l23.7-6v-2.5l36.7-9.1l4,2.5l8.5-1.7l2.2-0.2v1h5v-2.9l13.9-2.9v-3.7l6.9-2.4
l4.9,0.1v1.8h3.3V490l11-1.8v-2.2l18.5-5l8,1.2l9.8-0.7v-1.6l16.6-3.9v-3l6.3-2.8l8.3,0.1l11-1.4v-3l21.9-4.7l4.5,2.4l23.9-6.4v-3.2
l34.6-8.1l3.7,1.8l24.4-6.2l10.5,4.4l7.3,3.5v38.1l-3.8,1V535l-31.6,7.7l-15.1-7.2l-50.7,13.1v-3.3l-7.1-0.5v-14.1l-16.8-6l-3.7-3.7
l-66.8,16.5v4.3l-10.5,0.9v11.4l-5.2-1.8v24.1h-1.1v11.5l-84.7,23.5c0,0-5.3,1.6-10.8-0.7C422.1,608.5,401.8,598.8,401.8,598.8z"/></a>
<a href="/choose-flat" data-build="3"><path  class="s3d-svg__house js-s3d-svg__house" data-build="1" d="M522.9,627.6l0.1-39.7v-11.5h1.1v-24.1l5.2,1.8v-11.4l10.5-0.9v-4.3l66.8-16.5l3.7,3.7l16.8,6v14.1l7.1,0.5v3.3
l50.7-13.1l15.1,7.2l9,3.3v9.3l3.5,2v38.1l-159.1,44.1c0,0-6.3,0.3-10.6-2L522.9,627.6z"/></a>
<g class="js-s3d-svg__point-group s3d-svg__point-group" data-type="tennis court" >
	<path class="s3d-svg__point-bg" d="M1771,360.4c-17.2,0-31.1,13.7-31.1,30.5c-0.1,24.6,30,45,31.1,45.8c0,0,31.3-21.2,31.1-45.8
		C1802.2,374.1,1788.2,360.4,1771,360.4z"/>
	<g>
		<path class="s3d-svg__point" d="M1778.4,380.8l-1.9-1.9l-1.9,1.9l1.9,1.9L1778.4,380.8z"/>
		<path class="s3d-svg__point" d="M1778.4,386.4l-1.9-1.9l-1.9,1.9l1.9,1.9L1778.4,386.4z"/>
		<path class="s3d-svg__point" d="M1769.1,386.4l1.9,1.9l1.9-1.9l-1.9-1.9L1769.1,386.4z"/>
		<path class="s3d-svg__point" d="M1786.3,383.1l-1.4-1.4l-1.9,1.9l2.4,2.4C1785.8,385,1786.1,384.1,1786.3,383.1z"/>
		<path class="s3d-svg__point" d="M1784.7,387.1l-2.6-2.6l-1.9,1.9l2.9,2.9C1783.7,388.6,1784.2,387.9,1784.7,387.1z"/>
		<path class="s3d-svg__point" d="M1781.2,383.6l-1.9-1.9l-1.9,1.9l1.9,1.9L1781.2,383.6z"/>
		<path class="s3d-svg__point" d="M1784,380.8l-1.9-1.9l-1.9,1.9l1.9,1.9L1784,380.8z"/>
		<path class="s3d-svg__point" d="M1775.7,383.6l-1.9-1.9l-1.9,1.9l1.9,1.9L1775.7,383.6z"/>
		<path class="s3d-svg__point" d="M1763.7,390.4l-2.5,4.9l3.6,3.6l0.1,0.1l4.8-2.5c-1.4-0.5-2.6-1.3-3.6-2.3
			C1765,393,1764.3,391.7,1763.7,390.4z"/>
		<path class="s3d-svg__point" d="M1767.9,392.4c-1.8-1.8-2.7-4.4-2.4-7.3c0.3-3,1.8-6,4.1-8.4c2.7-2.7,6.1-4.2,9.4-4.2c2.5,0,4.6,0.8,6.2,2.4
			c3.8,3.8,3.1,10.9-1.7,15.7c-0.3,0.3-0.5,0.5-0.8,0.8c0.4,0.1,0.9,0.3,1.3,0.5c0.1-0.1,0.3-0.3,0.4-0.4c5.3-5.3,6.1-13.1,1.7-17.4
			c-1.8-1.8-4.3-2.8-7.1-2.8c-3.7,0-7.4,1.7-10.3,4.5c-5.3,5.3-6.1,13.1-1.7,17.4c1.4,1.4,3.3,2.4,5.5,2.7c0.2-0.4,0.4-0.8,0.7-1.2
			C1771.1,394.6,1769.2,393.7,1767.9,392.4z"/>
		<path class="s3d-svg__point" d="M1753.8,402.9c-0.5,0.5-0.7,1.1-0.7,1.7c0,1.3,1.1,2.4,2.4,2.4c0.6,0,1.3-0.3,1.7-0.7l6.7-6.7l-3.4-3.4
			L1753.8,402.9z M1756,405l-0.9-0.9l3.1-3.1l0.9,0.9L1756,405z M1761.6,399.5l-1.2,1.2l-0.9-0.9l1.2-1.2L1761.6,399.5z"/>
		<path class="s3d-svg__point" d="M1774.1,393.6C1774.1,393.6,1774.1,393.6,1774.1,393.6c0.1-0.1,0.2-0.1,0.2-0.2l-0.6-0.6l-0.7,0.7
			C1773.4,393.5,1773.8,393.6,1774.1,393.6z"/>
		<path class="s3d-svg__point" d="M1779.3,380l1.9-1.9l-1.9-1.9l-1.9,1.9L1779.3,380z"/>
		<path class="s3d-svg__point" d="M1779.9,373.8c-0.3,0-0.6,0-0.9,0c-0.1,0-0.2,0-0.4,0l0.6,0.6L1779.9,373.8z"/>
		<path class="s3d-svg__point" d="M1773.8,387.3l-1.9,1.9l1.9,1.9l1.9-1.9L1773.8,387.3z"/>
		<path class="s3d-svg__point" d="M1772.9,392l-1.9-1.9l-1.8,1.8c0.7,0.6,1.5,1,2.5,1.3L1772.9,392z"/>
		<path class="s3d-svg__point" d="M1766.7,387l0.6-0.6l-0.7-0.7C1766.7,386.2,1766.7,386.6,1766.7,387z"/>
		<path class="s3d-svg__point" d="M1770.1,389.2l-1.9-1.9l-1.2,1.2c0.3,0.9,0.7,1.8,1.3,2.5L1770.1,389.2z"/>
		<path class="s3d-svg__point" d="M1780.2,391c0.3,0,0.6,0,0.9,0c0.4-0.3,0.8-0.6,1.1-0.9l-2.9-2.9l-1.9,1.9l1.9,1.9
			C1779.6,391,1779.9,391,1780.2,391z"/>
		<path class="s3d-svg__point" d="M1777.8,391.4l-1.3-1.3l-1.9,1.9l0.6,0.6C1776.1,392,1776.9,391.6,1777.8,391.4z"/>
		<path class="s3d-svg__point" d="M1785.8,399.1c0.6,0,1.2-0.1,1.8-0.3c-0.2-1.6-0.9-3.1-2.1-4.3c-1.2-1.2-2.7-1.9-4.3-2.1
			c-0.2,0.6-0.3,1.2-0.3,1.8C1780.8,396.8,1783.1,399.1,1785.8,399.1z"/>
		<path class="s3d-svg__point" d="M1786.4,380.2l-0.7,0.7l0.7,0.7C1786.5,381.1,1786.4,380.6,1786.4,380.2z"/>
		<path class="s3d-svg__point" d="M1774.7,400.3c-0.6,0-1.2,0.1-1.8,0.3c0.2,1.6,0.9,3.1,2.1,4.3c1.2,1.2,2.7,1.9,4.3,2.1
			c0.2-0.6,0.3-1.2,0.3-1.8C1779.6,402.5,1777.4,400.3,1774.7,400.3z"/>
		<path class="s3d-svg__point" d="M1779.6,394.1c0-0.6,0.1-1.2,0.3-1.8c-1.9,0.1-3.6,0.8-4.9,2.2c-1.4,1.4-2.1,3.1-2.1,4.9
			c0.6-0.2,1.2-0.3,1.8-0.3c3.4,0,6.2,2.8,6.2,6.2c0,0.6-0.1,1.2-0.3,1.8c1.9-0.1,3.6-0.8,4.9-2.2c1.4-1.4,2.1-3.1,2.1-4.9
			c-0.6,0.2-1.2,0.3-1.8,0.3C1782.4,400.3,1779.6,397.5,1779.6,394.1z"/>
		<path class="s3d-svg__point" d="M1780.2,375.3l1.9,1.9l1.8-1.8c-0.7-0.6-1.6-1-2.5-1.3L1780.2,375.3z"/>
		<path class="s3d-svg__point" d="M1774.2,374.9l2.3,2.3l1.9-1.9l-1.3-1.3C1776.1,374.1,1775.2,374.4,1774.2,374.9z"/>
		<path class="s3d-svg__point" d="M1783,378.1l1.9,1.9l1.3-1.3c-0.3-0.9-0.7-1.7-1.3-2.5L1783,378.1z"/>
		<path class="s3d-svg__point" d="M1766.9,384.2l1.4,1.4l1.9-1.9l-2.3-2.3C1767.4,382.2,1767,383.2,1766.9,384.2z"/>
		<path class="s3d-svg__point" d="M1770.9,377.1l2.8,2.8l1.9-1.9l-2.6-2.6C1772.3,376,1771.6,376.5,1770.9,377.1z"/>
		<path class="s3d-svg__point" d="M1768.4,380.2l2.6,2.6l1.9-1.9l-2.8-2.8C1769.4,378.7,1768.9,379.4,1768.4,380.2z"/>
	</g>
	<rect x="1700.9" y="319.2" class="s3d-svg__text-bg" width="140.2" height="31.1"/>
	<text transform="matrix(1 0 0 1 1711.9996 339.7694)" class="s3d-svg__text">Тенісний корт</text>
</g>
<g class="js-s3d-svg__point-group s3d-svg__point-group" data-type="skate park" >
	<path class="s3d-svg__point-bg" d="M1625.7,394c-17.2,0-31.1,13.7-31.1,30.5c-0.1,24.6,30,45,31.1,45.8c0,0,31.3-21.2,31.1-45.8
		C1656.8,407.7,1642.8,394,1625.7,394z"/>
	<g>
		<path class="s3d-svg__point" d="M1643.1,426.9c-0.3-0.3-0.8-0.3-1.1-0.1l-2.2,2c-1.7,1.6-3.8,2.8-6.1,3.5l-14.7,4.7c-2.2,0.7-4.7,1-7,0.7
			l-3-0.3c-0.4,0-0.8,0.3-0.9,0.7c0,0.4,0.3,0.8,0.7,0.9l3,0.3c0.6,0.1,1.3,0.1,2,0.1c1.9,0,3.8-0.3,5.7-0.9l14.7-4.7
			c2.5-0.8,4.8-2.1,6.7-3.8l2.2-2C1643.3,427.7,1643.4,427.2,1643.1,426.9z"/>
		<path class="s3d-svg__point" d="M1619.6,441.9c0.8-0.2,1.2-1.1,0.9-1.8c-0.2-0.8-1.1-1.2-1.8-0.9c-0.8,0.2-1.2,1.1-0.9,1.8
			C1618,441.7,1618.8,442.1,1619.6,441.9z"/>
		<path class="s3d-svg__point" d="M1635.9,436.6c0.8-0.2,1.2-1.1,0.9-1.8c-0.2-0.8-1.1-1.2-1.8-0.9c-0.8,0.2-1.2,1.1-0.9,1.8
			C1634.4,436.4,1635.2,436.8,1635.9,436.6z"/>
		<path class="s3d-svg__point" d="M1627.7,411.2c0-0.4-0.1-0.9-0.2-1.2c0,0-0.1,0-0.1,0h-6.8c0,0-0.1,0-0.1,0c-0.1,0.4-0.2,0.8-0.2,1.2
			c0,1.3,0.7,2.5,1.7,3.1c0.1,0.1,0.3,0.2,0.5,0.3c0.1,0,0.2,0.1,0.3,0.1c0.1,0,0.3,0.1,0.4,0.1c0.1,0,0.1,0,0.2,0
			c0.2,0,0.4,0.1,0.7,0.1c0.2,0,0.4,0,0.7-0.1c0.1,0,0.1,0,0.2,0c0.1,0,0.3-0.1,0.4-0.1c0.1,0,0.1-0.1,0.2-0.1
			c0.1-0.1,0.3-0.1,0.4-0.2c0.1,0,0.1-0.1,0.2-0.1C1627,413.6,1627.7,412.4,1627.7,411.2z"/>
		<path class="s3d-svg__point" d="M1620.6,409.2h6.8c0.3,0,0.6-0.1,0.8-0.4c0.2-0.3,0.2-0.6,0.1-0.9c-0.7-1.8-2.4-2.9-4.3-2.9
			c-1.9,0-3.6,1.1-4.3,2.9c-0.1,0.3-0.1,0.6,0.1,0.9C1620,409,1620.2,409.2,1620.6,409.2z"/>
		<path class="s3d-svg__point" d="M1613.5,422.6l6.8-4v7.4h-2.8c0,0-0.1,0-0.1,0c-0.1,0-0.3,0-0.4,0c-0.8,0.1-1.4,0.9-1.3,1.8l1,6.4
			c0.1,0.8,0.9,1.4,1.8,1.3c0.9-0.1,1.4-0.9,1.3-1.8l-0.7-4.1h3.3h2.5h1.1c0.1,0,0.3,0,0.4,0c0.4,0,0.7-0.2,1-0.4l3.3-3l0.3,1.9
			c0.1,0.8,0.9,1.4,1.8,1.3c0.8-0.1,1.4-0.9,1.3-1.8l-0.8-5.1c-0.1-0.8-0.9-1.3-1.6-1.3c-0.5,0-1,0.1-1.4,0.5l-2.3,2.1v-5.2l7.1,3.8
			c0.7,0.4,1.7,0.1,2.1-0.6s0.1-1.7-0.6-2.1l-9.6-5.2c-0.8,0.7-1.9,1.2-3.1,1.2c-1.1,0-2.1-0.4-2.8-1l-9.1,5.3
			c-0.7,0.4-1,1.4-0.6,2.1C1611.8,422.8,1612.8,423.1,1613.5,422.6z"/>
	</g>
	<rect x="1564.9" y="352.9" class="s3d-svg__text-bg" width="121.5" height="31.1"/>
	<text transform="matrix(1 0 0 1 1579.74 373.4421)" class="s3d-svg__text">Скейт парк</text>
</g>
<g class="js-s3d-svg__point-group s3d-svg__point-group" data-type="workout zone" >
	<path class="s3d-svg__point-bg" d="M1353.4,525.5c-17.2,0-31.1,13.7-31.1,30.5c-0.1,24.6,30,45,31.1,45.8c0,0,31.3-21.2,31.1-45.8
		C1384.5,539.2,1370.6,525.5,1353.4,525.5z"/>
	<path class="s3d-svg__point" d="M1366.3,539.1h-1.7c-0.3,0-0.6,0.3-0.6,0.6v1.3h-3.2c-0.2-0.4-0.6-0.6-1.1-0.6c-0.5,0-0.9,0.2-1.2,0.6h-2.1
		c0.3,0.4,0.5,0.9,0.6,1.5h1.2c-0.1,1.4-0.2,2.8-0.3,3.4c-0.5,0.3-2.2,0.8-3.7,0.8h-2c-1.5,0-3.2-0.4-3.7-0.8
		c-0.1-0.6-0.2-2-0.3-3.4h1.4c0.1-0.5,0.3-1,0.6-1.5h-2.3c-0.2-0.4-0.7-0.7-1.2-0.6c-0.4,0-0.8,0.3-1,0.6h-3v-1.3
		c0-0.3-0.3-0.6-0.6-0.6h-1.7c-0.3,0-0.6,0.3-0.6,0.6v30.6c0,0.3,0.3,0.6,0.6,0.6h1.7c0.3,0,0.6-0.3,0.6-0.6v-27.9h2.9
		c0.1,1.3,0.2,3.4,0.5,4.3c0.4,1.4,2.5,2,4.1,2.3l0.2,5.6l-1.8,9.5c-0.2,0.8,0.4,1.6,1.2,1.8c0.1,0,0.2,0,0.3,0
		c0.7,0,1.4-0.5,1.5-1.3l1.7-9.1l1.7,9.1c0.2,0.8,1,1.4,1.8,1.2c0.8-0.2,1.4-1,1.2-1.8l-1.8-9.5l0.2-5.6c1.6-0.3,3.5-0.9,3.9-2.3
		c0.2-0.8,0.4-3,0.5-4.3h3v27.9c0,0.3,0.3,0.6,0.6,0.6h1.7c0.3,0,0.6-0.3,0.6-0.6v-30.6C1366.9,539.4,1366.6,539.1,1366.3,539.1z"/>
	<path class="s3d-svg__point" d="M1353.4,545.9c1.5,0,2.7-1.2,2.7-2.7c0-1.5-1.2-2.7-2.7-2.7c-1.5,0-2.7,1.2-2.7,2.7
		C1350.7,544.7,1351.9,545.9,1353.4,545.9z"/>
	<rect x="1284.9" y="484.4" class="s3d-svg__text-bg" width="137" height="31.1"/>
	<text transform="matrix(1 0 0 1 1297.0337 504.3052)" class="s3d-svg__text">Воркаут зона</text>
</g>
<g class="js-s3d-svg__point-group s3d-svg__point-group" data-type="workout zone" >
	<path class="s3d-svg__point-bg" d="M982.5,590.8c-17.2,0-31.1,13.7-31.1,30.5c-0.1,24.6,30,45,31.1,45.8c0,0,31.3-21.2,31.1-45.8
		C1013.7,604.5,999.7,590.8,982.5,590.8z"/>
	<path class="s3d-svg__point" d="M995.4,604.4h-1.7c-0.3,0-0.6,0.3-0.6,0.6v1.3h-3.2c-0.2-0.4-0.6-0.6-1.1-0.6c-0.5,0-0.9,0.2-1.2,0.6h-2.1
		c0.3,0.4,0.5,0.9,0.6,1.5h1.2c-0.1,1.4-0.2,2.8-0.3,3.4c-0.5,0.3-2.2,0.8-3.7,0.8h-2c-1.5,0-3.2-0.4-3.7-0.8
		c-0.1-0.6-0.2-2-0.3-3.4h1.4c0.1-0.5,0.3-1,0.6-1.5h-2.3c-0.2-0.4-0.7-0.7-1.2-0.6c-0.4,0-0.8,0.3-1,0.6h-3v-1.3
		c0-0.3-0.3-0.6-0.6-0.6h-1.7c-0.3,0-0.6,0.3-0.6,0.6v30.6c0,0.3,0.3,0.6,0.6,0.6h1.7c0.3,0,0.6-0.3,0.6-0.6v-27.9h2.9
		c0.1,1.3,0.2,3.4,0.5,4.3c0.4,1.4,2.5,2,4.1,2.3l0.2,5.6l-1.8,9.5c-0.2,0.8,0.4,1.6,1.2,1.8c0.1,0,0.2,0,0.3,0
		c0.7,0,1.4-0.5,1.5-1.3l1.7-9.1l1.7,9.1c0.2,0.8,1,1.4,1.8,1.2c0.8-0.2,1.4-1,1.2-1.8l-1.8-9.5l0.2-5.6c1.6-0.3,3.5-0.9,3.9-2.3
		c0.2-0.8,0.4-3,0.5-4.3h3v27.9c0,0.3,0.3,0.6,0.6,0.6h1.7c0.3,0,0.6-0.3,0.6-0.6v-30.6C996,604.6,995.7,604.4,995.4,604.4z"/>
	<path class="s3d-svg__point" d="M982.5,611.1c1.5,0,2.7-1.2,2.7-2.7c0-1.5-1.2-2.7-2.7-2.7s-2.7,1.2-2.7,2.7
		C979.8,609.9,981,611.1,982.5,611.1z"/>
	<rect x="914" y="549.6" class="s3d-svg__text-bg" width="137" height="31.1"/>
	<text transform="matrix(1 0 0 1 926.1688 569.5704)" class="s3d-svg__text">Воркаут зона</text>
</g>
<g class="js-s3d-svg__point-group s3d-svg__point-group" data-type="channel" >
	<path class="s3d-svg__point-bg" d="M1245.9,440.2c-17.2,0-31.1,13.7-31.1,30.5c-0.1,24.6,30,45,31.1,45.8c0,0,31.3-21.2,31.1-45.8
		C1277,453.8,1263.1,440.2,1245.9,440.2z"/>
	<g>
		<path class="st7" d="M1261.7,460.5c-3-2.1-5.9-2.1-8.9,0c-2.1,1.4-4.1,1.4-6.3,0c-2.9-2.1-5.9-2.1-8.8,0c-2.2,1.4-4.1,1.4-6.3,0
			c-1-0.7-2.2-1.5-4.4-1.5v2.1c1.6,0,2.3,0.5,3.2,1.1c2.9,2,5.9,2,8.8,0c2.2-1.5,4.2-1.5,6.3,0c2.9,2,5.9,2,8.8,0
			c2.2-1.5,4.2-1.5,6.3,0c1,0.7,2.2,1.4,4.5,1.4v-2.1C1263.2,461.6,1262.5,461.1,1261.7,460.5z"/>
		<path class="st7" d="M1261.7,466.1c-3-2.1-5.9-2.1-8.9,0c-2.1,1.4-4.1,1.4-6.3,0c-2.9-2.1-5.9-2.1-8.8,0c-2.2,1.4-4.1,1.4-6.3,0
			c-1-0.7-2.2-1.5-4.4-1.5v2.1c1.6,0,2.3,0.5,3.2,1.1c2.9,2,5.9,2,8.8,0c2.2-1.5,4.2-1.5,6.3,0c2.9,2,5.9,2,8.8,0
			c2.2-1.5,4.2-1.5,6.3,0c1,0.7,2.2,1.4,4.5,1.4v-2.1C1263.2,467.2,1262.5,466.7,1261.7,466.1z"/>
		<path class="st7" d="M1261.7,471.8c-3-2.1-5.9-2.1-8.9,0c-2.1,1.4-4.1,1.4-6.3,0c-2.9-2.1-5.9-2.1-8.8,0c-2.2,1.4-4.1,1.4-6.3,0
			c-1-0.7-2.2-1.5-4.4-1.5v2.1c1.6,0,2.3,0.5,3.2,1.1c2.9,2,5.9,2,8.8,0c2.2-1.5,4.2-1.5,6.3,0c2.9,2,5.9,2,8.8,0
			c2.2-1.5,4.2-1.5,6.3,0c1,0.7,2.2,1.4,4.5,1.4v-2.1C1263.2,472.8,1262.5,472.4,1261.7,471.8z"/>
		<path class="st7" d="M1261.7,477.4c-3-2.1-5.9-2.1-8.9,0c-2.1,1.4-4.1,1.4-6.3,0c-2.9-2.1-5.9-2.1-8.8,0c-2.2,1.4-4.1,1.4-6.3,0
			c-1-0.7-2.2-1.5-4.4-1.5v2.1c1.6,0,2.3,0.5,3.2,1.1c2.9,2,5.9,2,8.8,0c2.2-1.5,4.2-1.5,6.3,0c2.9,2,5.9,2,8.8,0
			c2.2-1.5,4.2-1.5,6.3,0c1,0.7,2.2,1.4,4.5,1.4v-2.1C1263.2,478.5,1262.5,478,1261.7,477.4z"/>
	</g>
	<rect x="1206.9" y="399" class="s3d-svg__text-bg" width="77.9" height="31.1"/>
	<text transform="matrix(1 0 0 1 1220.5603 418.9636)" class="s3d-svg__text">канал</text>
</g>
<g class="js-s3d-svg__point-group s3d-svg__point-group" data-type="stadium" >
	<path class="s3d-svg__point-bg" d="M1165.3,553.1c-17.2,0-31.1,13.7-31.1,30.5c-0.1,24.6,30,45,31.1,45.8c0,0,31.3-21.2,31.1-45.8
		C1196.5,566.8,1182.5,553.1,1165.3,553.1z"/>
	<path class="s3d-svg__point" d="M1149.2,571.8v0.9h1.2v1c0.2,0,0.3-0.1,0.5-0.1v-1.8C1150.3,571.8,1149.7,571.8,1149.2,571.8z M1179.9,571.8
		v1.8c0.2,0,0.3,0.1,0.5,0.1v-1h1.2v-0.9C1181,571.8,1180.4,571.8,1179.9,571.8z M1146.4,572.7v0.9h1.2v0.9c0.1-0.1,0.3-0.1,0.5-0.2
		v-1.7C1147.5,572.7,1147,572.7,1146.4,572.7z M1165.3,572.7c-11.5,0-20.8,2.5-20.8,5.5c0,0.9,0.8,1.8,2.3,2.5
		c1.9-1.5,5.1-3.1,7.9-3.8c3.2-0.7,6.9-1.1,10.6-1.1c3.7,0,7.4,0.3,10.6,0.9c3,0.6,6.5,2.4,8.3,3.8c1.2-0.7,1.9-1.5,1.9-2.3
		C1186.1,575.2,1176.8,572.7,1165.3,572.7L1165.3,572.7z M1182.6,572.7v1.7c0.2,0.1,0.3,0.1,0.5,0.2v-0.9h1.2v-0.9
		C1183.7,572.7,1183.2,572.7,1182.6,572.7z M1143.7,574.5v0.9h1.2v0.5c0.1-0.1,0.3-0.2,0.5-0.3v-1.1
		C1144.7,574.5,1144.2,574.5,1143.7,574.5z M1185.4,574.5v1.1c0.2,0.1,0.3,0.2,0.5,0.3v-0.5h1.2v-0.9
		C1186.5,574.5,1186,574.5,1185.4,574.5z M1165.4,577.7c-3.6,0-7.2,0.4-10.2,1.1c-2.3,0.5-4.7,1.7-6.3,2.8c0.4,0.1,0.8,0.3,1.2,0.4
		c3.5-1.8,9.7-3.3,15.2-3.3s11.8,1.4,15.3,3.3c0.6-0.2,1.1-0.3,1.6-0.5c-1.6-1.1-4.2-2.4-6.7-2.9
		C1172.5,578,1168.9,577.7,1165.4,577.7z M1165.3,580.5c-4.2,0-9,1-12.2,2.2c3.4,0.7,7.6,1.1,12.2,1.1c4.6,0,8.8-0.4,12.2-1.1
		C1174.3,581.5,1169.6,580.5,1165.3,580.5z M1185.7,580.7c-1.2,0.8-3,1.5-5.1,2.1c-4,1.1-9.3,1.7-15.2,1.7c-5.9,0-11.3-0.6-15.2-1.7
		c-2-0.5-3.7-1.2-4.9-1.9l2.6,10.4c3.6,1.7,7.2,2.9,10.8,3.5l-0.7-2.9c-0.1-0.3,0-0.6,0.2-0.9l2.3-2.3c0.1-0.1,0.4-0.2,0.6-0.3
		c2.8,0,5.6,0,8.4,0c0.2,0,0.5,0.1,0.7,0.3l2.3,2.3c0.2,0.2,0.3,0.6,0.2,0.9l-0.7,2.9c3.8-0.6,7.5-1.8,11.3-3.6L1185.7,580.7z
		 M1161.2,589.3l-1.4,1.4h11.1l-1.4-1.4H1161.2z M1161,592.5l1,4.2h6.8l1-4.2H1161z"/>
	<rect x="1118.6" y="511.9" class="s3d-svg__text-bg" width="93.4" height="31.1"/>
	<text transform="matrix(1 0 0 1 1132.428 531.8849)" class="s3d-svg__text">стадіон</text>
</g>
<g class="js-s3d-svg__point-group s3d-svg__point-group" data-type="park" >
	<path class="s3d-svg__point-bg" d="M768.7,629.5c-17.2,0-31.1,13.7-31.1,30.5c-0.1,24.6,30,45,31.1,45.8c0,0,31.3-21.2,31.1-45.8
		C799.8,643.2,785.8,629.5,768.7,629.5z"/>
	<g>
		<path class="s3d-svg__point" d="M767.5,665.9h-1.8v-1.8c0-0.3-0.3-0.6-0.6-0.6c-0.3,0-0.6,0.3-0.6,0.6v1.8h-10.1v-1.8c0-0.3-0.3-0.6-0.6-0.6
			c-0.3,0-0.6,0.3-0.6,0.6v1.8h-1.8c-0.3,0-0.6,0.3-0.6,0.6v2.4c0,0.3,0.3,0.6,0.6,0.6h1.8v1.2h-1.8c-0.3,0-0.6,0.3-0.6,0.6v2.4
			c0,0.3,0.3,0.6,0.6,0.6h0.6v3c0,0.3,0.3,0.6,0.6,0.6h2.4c0.3,0,0.6-0.3,0.6-0.6v-3h7.8v3c0,0.3,0.3,0.6,0.6,0.6h2.4
			c0.3,0,0.6-0.3,0.6-0.6v-3h0.6c0.3,0,0.6-0.3,0.6-0.6v-2.4c0-0.3-0.3-0.6-0.6-0.6h-1.8v-1.2h1.8c0.3,0,0.6-0.3,0.6-0.6v-2.4
			C768.1,666.1,767.8,665.9,767.5,665.9z M754.3,676.6h-1.2v-2.4h1.2V676.6z M765.7,676.6h-1.2v-2.4h1.2V676.6z M764.5,670.6h-10.1
			v-1.2h10.1V670.6z"/>
		<path class="s3d-svg__point" d="M783.6,647.4L783.6,647.4c-0.3-1.7-1.8-3-3.6-3c-0.9,0-1.8,0.4-2.4,0.9v-2.7c0-0.3-0.3-0.6-0.6-0.6
			s-0.6,0.3-0.6,0.6v2.7c-0.6-0.6-1.5-0.9-2.4-0.9c-1.8,0-3.2,1.3-3.5,3h-0.1c-1.6,0-3,1.3-3,3c0,0.3,0.3,0.6,0.6,0.6h1.2v1.2
			c0,1,0.8,1.8,1.8,1.8c1,0,1.8-0.8,1.8-1.8v-1.2h1.2c0.3,0,0.6-0.3,0.6-0.6c0-1.6-1.3-2.9-2.9-3c0.3-1,1.2-1.8,2.3-1.8
			c1.3,0,2.4,1.1,2.4,2.4v8.5c-0.7,0.2-1.2,0.9-1.2,1.7v11.7c-0.8,0.3-1.5,0.9-1.9,1.6c-0.1,0-0.2-0.1-0.3-0.1c-0.1,0-0.1,0-0.2-0.1
			c-0.2,0-0.4-0.1-0.6-0.1c-1.6,0-3,1.3-3,3v3c0,0.3,0.3,0.6,0.6,0.6h14.3c0.3,0,0.6-0.3,0.6-0.6v-3c0-1.6-1.3-3-3-3
			c-0.2,0-0.4,0-0.6,0.1c-0.1,0-0.1,0-0.2,0.1c-0.1,0-0.2,0-0.3,0.1c-0.4-0.7-1.1-1.3-1.9-1.6v-11.7c0-0.8-0.5-1.4-1.2-1.7V648
			c0-1.3,1.1-2.4,2.4-2.4c1.1,0,2,0.8,2.3,1.8c-1.6,0-2.9,1.4-2.9,3c0,0.3,0.3,0.6,0.6,0.6h1.2v1.2c0,1,0.8,1.8,1.8,1.8
			c1,0,1.8-0.8,1.8-1.8v-1.2h1.2c0.3,0,0.6-0.3,0.6-0.6C786.6,648.7,785.2,647.4,783.6,647.4z"/>
		<path class="s3d-svg__point" d="M753.1,648.6h6c1.3,0,2.4-1.1,2.4-2.4c0-1.4-1.2-2.5-2.6-2.4c-0.5-1.1-1.5-1.8-2.7-1.8s-2.3,0.7-2.7,1.8
			c-1.4-0.2-2.6,1-2.6,2.4C750.7,647.5,751.8,648.6,753.1,648.6z"/>
		<path class="s3d-svg__point" d="M766,655.1c-0.5-1.1-1.5-1.8-2.7-1.8c-1.2,0-2.3,0.7-2.7,1.8c-1.4-0.2-2.6,1-2.6,2.4c0,1.3,1.1,2.4,2.4,2.4h6
			c1.3,0,2.4-1.1,2.4-2.4C768.7,656.1,767.4,655,766,655.1z"/>
	</g>
	<rect x="734.4" y="588.4" class="s3d-svg__text-bg" width="68.5" height="31.1"/>
	<text transform="matrix(1 0 0 1 748.9476 608.3422)" class="s3d-svg__text">парк</text>
</g>
<g class="js-s3d-svg__point-group s3d-svg__point-group" data-type="eco-market" >
	<path class="s3d-svg__point-bg" d="M341.8,586.4c-17.2,0-31.1,13.7-31.1,30.5c-0.1,24.6,30,45,31.1,45.8c0,0,31.3-21.2,31.1-45.8
		C373,600.1,359,586.4,341.8,586.4z"/>
	<g>
		<path class="s3d-svg__point" d="M348.1,601.9c-1.9-0.2-3.9-0.2-5.8,0c-3.3,0.3-5.5,1.3-6.6,2.9c-1,1.5-0.8,3.2-0.5,4.4c0,0,0,0,0.1,0.1
			c0,0,0.1,0,0.1,0c1.6-1,3.4-1.7,5.3-2c0,0,0,0,0,0v0l-4.7,3.8c-1,0.9-1.8,2-2.4,3.3c-0.2,0.4-0.2,0.9,0.1,1.3
			c0.2,0.3,0.5,0.5,0.9,0.6c0.6,0.1,1.2-0.2,1.5-0.8c0.4-0.9,1-1.7,1.7-2.3c0.7,0.5,2.1,1.3,3.7,1.5c0.3,0,0.6,0,0.8,0
			c3.4-0.3,5.5-4.4,6.3-12.1C348.7,602.2,348.5,601.9,348.1,601.9z"/>
		<path class="s3d-svg__point" d="M343.2,625.5c-1,0.1-1.9,0-2.9-0.3c0.1-0.9,0.1-2.5-0.5-3.9c-0.1-0.3-0.3-0.5-0.4-0.7
			c-2-2.8-6.6-2.6-13.6,0.6c-0.3,0.1-0.4,0.5-0.3,0.8c0.8,1.7,1.8,3.4,2.9,5c1.8,2.5,3.6,4,5.4,4.3c0.1,0,0.3,0,0.4,0
			c1.8,0.1,3.2-0.9,4.1-1.8c0,0,0,0,0-0.1c0,0,0,0,0-0.1c-1.6-0.9-3.2-2.1-4.4-3.6v0h0l5.6,2.1c1.3,0.4,2.7,0.6,4.1,0.4
			c0.5,0,0.9-0.3,1.1-0.7c0.2-0.4,0.2-0.9-0.1-1.3C344.2,625.7,343.7,625.5,343.2,625.5z"/>
		<path class="s3d-svg__point" d="M357.8,619.4c-0.8-1.6-2.4-2.3-3.6-2.6c0,0-0.1,0-0.1,0c0,0,0,0,0,0.1c0.1,1.9-0.2,3.8-0.9,5.6v0h0
			c0,0,0,0,0,0l-1-5.9c-0.3-1.3-0.8-2.7-1.6-3.8c-0.1-0.1-0.2-0.3-0.4-0.4c-0.6-0.4-1.4-0.1-1.8,0.5l-0.1,0.1
			c-0.2,0.4-0.2,1,0.1,1.4c0.6,0.8,1,1.7,1.1,2.7c-0.8,0.4-2.2,1.1-3.1,2.4c-0.2,0.2-0.3,0.5-0.4,0.7c-1.4,3.1,1,7,7.3,11.5
			c0.3,0.2,0.6,0.1,0.8-0.2c1.1-1.6,2-3.3,2.9-5C358.4,623.5,358.6,621.1,357.8,619.4z"/>
	</g>
	<rect x="287.3" y="545.2" class="s3d-svg__text-bg" width="109" height="31.1"/>
	<text transform="matrix(1 0 0 1 298.4201 565.1903)" class="s3d-svg__text">еко-ринок</text>
</g>
<g class="js-s3d-svg__point-group s3d-svg__point-group" data-type="children">
	<path class="s3d-svg__point-bg" d="M338.6,463.1c-17.2,0-31.1,13.7-31.1,30.5c-0.1,24.6,30,45,31.1,45.8c0,0,31.3-21.2,31.1-45.8
		C369.8,476.8,355.8,463.1,338.6,463.1z"/>
	<rect x="251.1" y="421.9" class="s3d-svg__text-bg" width="175" height="31.1"/>
	<text transform="matrix(1 0 0 1 263.5054 441.8738)" class="s3d-svg__text">Дитячий садочок</text>
	<g>
		<path class="s3d-svg__point" d="M353.6,500.5c-1.5-1.2-3.9-0.8-5.6,0.8l-1.3-0.8c0.1-0.4,0.1-0.8,0.1-1.3c1.8-0.4,3.4-1,5-1.7
			c1.8-0.8,2.5-2.9,1.7-4.7c-0.8-1.8-2.9-2.5-4.7-1.7c-1.1,0.5-2.3,0.9-3.5,1.2c1.3-1.5,2-3.5,2-5.6c0-0.3,0-0.6,0-0.9
			c1.7-0.7,3-2.4,3-4.4c0-2.6-2.1-4.7-4.7-4.7c-1.5,0-2.8,0.7-3.7,1.8c-1-0.4-2.2-0.7-3.3-0.7s-2.3,0.2-3.3,0.7
			c-0.9-1.1-2.2-1.8-3.7-1.8c-2.6,0-4.7,2.1-4.7,4.7c0,2,1.2,3.7,3,4.4c0,0.3,0,0.6,0,0.9c0,2.1,0.8,4.1,2,5.6
			c-1.3-0.3-2.4-0.7-3.5-1.2c-1.8-0.8-3.9,0-4.7,1.7c-0.8,1.8,0,3.9,1.7,4.7c1.6,0.7,3.2,1.3,5,1.7c0,0.4,0.1,0.9,0.1,1.3
			l-1.3,0.8c-1.8-1.6-4.1-1.9-5.6-0.8c-1.8,1.4-1.8,4.4,0,6.7c1.1,1.4,2.7,2.3,4.4,2.3c0.6,0,1.3-0.2,1.8-0.5l4.8-2.9
			c1.2,0.7,2.5,1,4,1s2.8-0.4,4-1l4.8,2.9c0.5,0.3,1.2,0.5,1.8,0.5c1.7,0,3.4-1,4.4-2.3C355.4,504.9,355.4,501.9,353.6,500.5z
			 M328.7,508.3C328.7,508.3,328.7,508.3,328.7,508.3c-2.8,0.9-6.3-3.2-5-6C326.5,501.4,330,505.5,328.7,508.3z M330.4,483.4
			c-0.7-0.4-1.2-1.2-1.2-2c0-1.3,1.1-2.3,2.3-2.3c0.6,0,1.2,0.3,1.7,0.7C332,480.6,331,481.9,330.4,483.4z M335,498.5
			c-0.5,0.3-1.1-0.1-1.1-0.7v-2.7c0-0.6,0.6-1,1.1-0.7l1.8,0.6c-0.2,0.2-0.3,0.5-0.4,0.9h-1.2v1.2h1.2c0.1,0.3,0.2,0.6,0.4,0.9
			L335,498.5z M338.6,497.6c-0.6,0-1.2-0.5-1.2-1.2c0-0.6,0.5-1.2,1.2-1.2c0.6,0,1.2,0.5,1.2,1.2
			C339.8,497.1,339.3,497.6,338.6,497.6z M343.3,497.8L343.3,497.8c0,0.6-0.6,1-1.1,0.7l-1.7-0.6c0.2-0.3,0.4-0.5,0.4-0.9h1.2
			v-1.2h-1.2c-0.1-0.3-0.2-0.6-0.4-0.9l1.7-0.6c0.5-0.3,1.1,0.1,1.1,0.7L343.3,497.8L343.3,497.8z M342.3,486.6
			c0.7,0.8,1.1,1.8,1.1,2.9c0,2.6-2.1,4.7-4.7,4.7c-2.6,0-4.7-2.1-4.7-4.7c0-1.1,0.4-2.1,1.1-2.9c-0.9-0.1-1.7-0.8-1.7-1.8
			c0-1,0.8-1.8,1.8-1.8c1,0,1.8,0.8,1.8,1.8c0,0.1,0,0.2,0,0.4c0.6-0.2,1.2-0.4,1.8-0.4c0.6,0,1.2,0.1,1.8,0.4c0-0.1,0-0.2,0-0.4
			c0-1,0.8-1.8,1.8-1.8c1,0,1.8,0.8,1.8,1.8C343.9,485.8,343.2,486.6,342.3,486.6z M344,479.7c0.4-0.4,1-0.7,1.7-0.7
			c1.3,0,2.3,1.1,2.3,2.3c0,0.9-0.5,1.6-1.2,2C346.2,481.9,345.2,480.6,344,479.7z M348.5,508.3c-1.3-2.8,2.2-6.9,5-6
			C354.8,505.1,351.2,509.1,348.5,508.3z"/>
			<circle class="s3d-svg__point" cx="335.1" cy="484.9" r="0.9"/>
			<circle class="s3d-svg__point" cx="338.6" cy="488.4" r="1.2"/>
			<circle class="s3d-svg__point" cx="342.1" cy="484.9" r="0.9"/>
	</g>
</g>
<g class="js-s3d-svg__point-group s3d-svg__point-group" data-type="children park">
	<path class="s3d-svg__point-bg" d="M1465.1,448.7c-17.2,0-31.1,13.7-31.1,30.5c-0.1,24.6,30,45,31.1,45.8c0,0,31.3-21.2,31.1-45.8
		C1496.3,462.4,1482.3,448.7,1465.1,448.7z"/>
		<rect x="1356.1" y="392.4" class="s3d-svg__text-bg" width="218.1" height="46.5"/>
		<text transform="matrix(1 0 0 1 1365.9962 411.5922)"><tspan x="0" y="0" class="s3d-svg__text">Дитячі майданчики для</tspan><tspan x="17.8" y="18" class="s3d-svg__text">різних вікових груп</tspan></text>
		<g>
		<path class="s3d-svg__point" d="M1481.8,470.7c-2.1-3.1-4.7-5.1-7.8-5.9v12.9c3-0.8,5.7-2.8,7.8-5.9C1482,471.5,1482,471.1,1481.8,470.7z"
		/>
			<path class="s3d-svg__point" d="M1469.9,488.1c0.1-0.3,0.2-0.7,0.2-1.1c0-1.6-1.3-3-3-3h-3.9c-0.5,0-1-0.4-1-1c0-0.5,0.4-1,1-1h3.9
			c1.6,0,3-1.3,3-3c0-0.3-0.1-0.7-0.2-1h0.8c0.5,0,0.9,0,1.4-0.1v-13.6c-0.5-0.1-0.9-0.1-1.4-0.1c-1.4,0-2.5,1.1-2.5,2.5v0.4
			c0,1.6-1.3,3-3,3c-1.6,0-3-1.3-3-3c0-1.3-0.9-2.4-2.1-2.8c-0.4-2.3-2.4-4.1-4.8-4.1h-6c-0.5,0-1,0.4-1,1c0,2.4,1.7,4.4,3.9,4.8
			v2.1h-1c-1.6,0-3,1.3-3,3s1.3,3,3,3h1v2.1c-2.2,0.5-3.9,2.4-3.9,4.8c0,0.5,0.4,1,1,1h6c2.4,0,4.4-1.7,4.8-3.9c3.7,0,3.3,0,7,0
			c0.5,0,1,0.4,1,1s-0.4,1-1,1h-3.9c-1.6,0-3,1.3-3,3s1.3,3,3,3h3.9c0.5,0,1,0.4,1,1c0,0.5-0.4,1-1,1h-5.9c-2.7,0-4.9,2.3-4.9,5.1
			c0,0.5,0.4,1,1,1h15.8c0.5,0,1-0.4,1-1C1474,490.6,1472.2,488.5,1469.9,488.1z M1451.3,472.3c-0.5,0-1-0.4-1-1s0.4-1,1-1h4
			c0.5,0,1,0.4,1,1s-0.4,1-1,1H1451.3z M1455.3,480.1h-4.8c0.4-1.1,1.5-2,2.8-2h4.8C1457.6,479.3,1456.6,480.1,1455.3,480.1z
			 M1453.2,464.4c-1.3,0-2.4-0.8-2.8-2h4.8c1.3,0,2.4,0.8,2.8,2H1453.2z M1462.2,476.2h-2v-1c0-0.5,0.4-1,1-1c0.5,0,1,0.4,1,1
			V476.2z M1466.1,476.2h-2v-1c0-0.5,0.4-1,1-1c0.5,0,1,0.4,1,1V476.2z"/>
	</g>
</g>
<g>
	<circle class="s3d-svg__text-bg" cx="1434" cy="319.2" r="14"/>
		<text transform="matrix(1 0 0 1 1430.9468 323.5974)" class="s3d-svg__text">7</text>
</g>
<g>
	<circle class="s3d-svg__text-bg" cx="1223.9" cy="310.2" r="14"/>
		<text transform="matrix(1 0 0 1 1219.7256 314.5825)" class="s3d-svg__text">6</text>
</g>
<g>
	<circle class="s3d-svg__text-bg" cx="1238" cy="367.4" r="14"/>
		<text transform="matrix(1 0 0 1 1233.5945 371.8223)" class="s3d-svg__text">5</text>
</g>
<g>
	<circle class="s3d-svg__text-bg" cx="894.1" cy="328.3" r="14"/>
		<text transform="matrix(1 0 0 1 888.1076 332.6895)" class="s3d-svg__text">11</text>
</g>
<g>
	<circle class="s3d-svg__text-bg" cx="972" cy="377.8" r="14"/>
		<text transform="matrix(1 0 0 1 967.7853 382.2168)" class="s3d-svg__text">4</text>
</g>
<g>
	<circle class="s3d-svg__text-bg" cx="607.9" cy="359.4" r="14"/>
		<text transform="matrix(1 0 0 1 600.123 363.7502)" class="s3d-svg__text">10</text>
</g>
<g>
	<circle class="s3d-svg__text-bg" cx="795.3" cy="378.8" r="14"/>
		<text transform="matrix(1 0 0 1 787.924 383.2166)" class="s3d-svg__text">12</text>
</g>
<g>
	<circle class="s3d-svg__text-bg" cx="614" cy="415" r="14"/>
		<text transform="matrix(1 0 0 1 609.6055 419.3438)" class="s3d-svg__text">9</text>
</g>
<g>
	<circle class="s3d-svg__text-bg" cx="359" cy="415" r="14"/>
		<text transform="matrix(1 0 0 1 354.5953 419.3438)" class="s3d-svg__text">8</text>
</g>
<g>
	<circle class="s3d-svg__text-bg" cx="579" cy="472.6" r="14"/>
		<text transform="matrix(1 0 0 1 574.7856 476.9927)" class="s3d-svg__text">2</text>
</g>
<g>
	<circle class="s3d-svg__text-bg" cx="921" cy="449.8" r="14"/>
		<text transform="matrix(1 0 0 1 916.8827 454.1387)" class="s3d-svg__text">3</text>
</g>
<g>
	<circle class="s3d-svg__text-bg" cx="585" cy="533.7" r="14"/>
		<text transform="matrix(1 0 0 1 580.6727 538.0353)" class="s3d-svg__text">1</text>
</g>

</svg>
