<svg version="1.1" id="Layer_1" xmlns="http://www.w3.org/2000/svg" xmlns:xlink="http://www.w3.org/1999/xlink" x="0px" y="0px"
	 viewBox="0 0 1920 1080" style="enable-background:new 0 0 1920 1080;" xml:space="preserve">
<a href="/choose-flat" data-build="8"><polygon class="s3d-svg__house" data-build="8" points="1687.1,457.6 1507.3,512.1 1476.1,501.1 1476.1,473.6 1474,472.5 1474,431.5 1481,428.7 1481,423.3
	1492.1,419.4 1492.1,416.4 1516,408.6 1519.9,410.9 1528,409.9 1528,405.4 1541.5,402 1545.4,402.4 1548.3,404 1559.6,400.8 
	1559.6,399 1556.2,399 1556.2,397.2 1578.3,391.3 1583.3,393.7 1587.8,392.3 1587.8,389 1602.5,384.3 1607.8,386.6 1615.7,384.8 
	1615.7,381.1 1641.4,373.1 1648.7,376.3 1661,372 1676,376.6 1676,398.8 1682.2,401 1682.2,409.6 1687.5,412.4 "/></a>
<a href="/choose-flat" data-build="10"><polygon class="s3d-svg__house" data-build="10" points="1475.8,520.8 1277.2,581.5 1245,568.9 1245,495.3 1252,493.2 1252,486.9 1257.9,485.3 1257.9,480.5
	1292.4,470.3 1297.2,473.5 1305.2,470.9 1305.2,467.2 1325.3,461.3 1329.7,464.3 1331.7,463.7 1331.7,459.6 1359.1,451.7 
	1364,454.9 1372.5,452.4 1372.5,448.7 1390.2,443.6 1392.3,446.6 1397.7,444.9 1397.7,442.1 1430.5,432.2 1437.5,433.7 
	1449.5,430.6 1465.3,436.2 1465.3,459.9 1474,462.3 1474,472.5 1476.1,473.6 1476.1,501.1 "/></a>
<a href="/choose-flat" data-build="11"><polygon class="s3d-svg__house" data-build="11" points="828.5,596.7 828.5,520.8 830.7,519.6 830.7,513.9 847.8,513.9 847.8,508.6 895.2,506.1 895.2,509
	901.5,509.1 901.5,506.8 905.5,506.8 905.5,508.3 913.2,507.8 913.2,504.5 934.3,503 935.8,505.8 945.7,505.9 946.4,503 951,503 
	951,501.8 990.2,499.7 990.2,502.9 1005.9,502.9 1005.9,498 1028.2,497.1 1029.8,500 1044.9,499.7 1044.9,495.9 1082.2,493.4 
	1084.1,495.8 1099.4,495.1 1099.4,492 1121,491 1123.1,493.8 1137.5,493.1 1137.5,489.6 1183.6,486.8 1184.9,489.4 1204.3,488.8 
	1210.1,495.9 1210.1,530.6 1213.9,534.9 1213.9,585.8 842.2,610.5 "/></a>
<a href="/choose-flat" data-build="6"><polygon class="s3d-svg__house" data-build="6" points="788.1,526.3 788.1,548.7 790,551.6 790,616.9 496.6,638 492.2,623.2 492.2,544.9 494.7,544
	494.7,538.3 514,537.7 514,536.7 514.8,536.7 514.8,533.1 558.9,530.6 559,533.4 568.8,533.4 568.8,530 573.2,529.8 573.2,533.3 
	580.6,533.3 580.6,529.2 589.5,529.2 590.5,527.3 600.3,527.3 602,530.5 614.9,530.5 614.9,527.1 619.2,527.1 619.2,525.2 
	657.3,522.9 658.5,526.8 668.3,526.6 668.3,525.5 676.2,525.5 676.2,521.4 687.6,521.4 697.5,520.4 700,523.4 716.5,523.3 
	716.5,518.9 752.5,517.6 752.5,516.4 763,516.4 764.3,519.4 784.2,518.4 "/></a>
<a href="/choose-flat" data-build="7"><polygon class="s3d-svg__house" data-build="7" points="316.7,646.9 489.3,593.7 489.3,513.2 476.3,506.7 459.2,511.9 450.9,507.6 428.6,511.9 424.3,509.6
	392,518.5 392.2,521.2 382.7,523.9 377.7,526 377.4,529 374.5,529.5 372.7,527.8 364.4,529.7 358.6,527 329.2,533.3 329.3,536.5 
	312,540 312,542.5 298.2,547 298.2,553.6 293.1,556.1 293.1,567.9 290.1,569.2 290.1,630.9 "/></a>
<a href="/choose-flat" data-build="12"><polygon class="s3d-svg__house" data-build="12" points="1183.6,486.8 1183.6,479.7 1179.1,472.5 1179.1,451 1173.8,444.9 1162.6,445.9 1156.8,438.9
	1109,442.1 1109,446.4 1102,446.7 1102,454 1097.9,454 1097.9,455.9 1102,459.8 1102,491.9 1121,491 1123.1,493.8 1137.5,493.1 
	1137.5,489.6 "/></a>
<a href="/choose-flat" data-build="9"><polygon class="s3d-svg__house" data-build="9" points="1204.3,488.8 1204.3,439.9 1210.9,437.7 1210.9,431.4 1218,429.7 1218,425.8 1251.3,416.6
	1259.3,419.6 1265.8,417.9 1265.8,413.9 1280.4,408.8 1285.5,411.3 1291.7,410 1291.7,406.3 1319.1,399.2 1323,401.1 1330.6,399.8 
	1330.6,396.7 1346.6,392.2 1352.1,394.7 1357.5,392.2 1357.5,389 1389.3,380.2 1395.1,382.9 1409.2,378.7 1423.5,384.7 
	1423.5,404.5 1430,407.8 1430,417.6 1434,419.1 1434,433 1430.5,432.2 1397.7,442.1 1397.7,444.9 1392.3,446.6 1390.2,443.6 
	1372.5,448.7 1372.5,452.4 1364,454.9 1359.1,451.7 1331.7,459.6 1331.7,463.7 1329.7,464.3 1325.3,461.3 1305.2,467.2 
	1305.2,470.9 1297.2,473.5 1292.4,470.3 1257.9,480.5 1257.9,485.3 1252,486.9 1252,493.2 1245,495.3 1245,525.4 1237.6,527.6 
	1210.1,514.3 1210.1,495.9 "/></a>
<a href="/choose-flat" data-build="2"><polygon class="s3d-svg__house" data-build="2" points="1179.1,459.8 1204.3,468.4 1204.3,439.9 1210.9,437.7 1210.9,431.4 1218,429.7 1218,425.8
	1251.3,416.6 1259.3,419.6 1265.8,417.9 1265.8,413.9 1280.4,408.8 1285.5,411.3 1291.7,410 1291.7,406.3 1319.1,399.2 1323,401.1 
	1330.6,399.8 1330.6,396.7 1346.6,392.2 1352.1,394.7 1357.5,392.2 1357.5,389 1389.3,380.2 1395.1,382.9 1409.2,378.7 
	1423.5,384.7 1423.5,404.5 1426.4,405.9 1437.8,404.1 1449.9,398.7 1456.3,396.9 1456.3,354.5 1452,352.7 1452,324.1 1432.9,317.3 
	1427.4,319.2 1421.4,317.3 1180.1,378 1180.1,408.7 1174.5,411 1174.5,445.8 1179.1,451 "/></a>
<a href="/choose-flat" data-build="1"><polygon class="s3d-svg__house" data-build="1" points="1183,365.7 1183,377.2 1336.1,338.8 1336.1,314.1 1331,314.1 1331,303 1316.5,298.1 1302.6,302.7
	1297.8,300.3 1286.5,304 1276.5,303.6 1263.1,307.2 1263.1,310.9 1255.3,312.1 1251,314.9 1251,319.5 1246.1,319.5 1246.1,342.3 
	1183,358.9 "/></a>
<a href="/choose-flat" data-build="4"><polygon class="s3d-svg__house" data-build="4" points="790,578.6 828.5,572.2 828.5,520.8 830.7,519.6 830.7,513.9 847.8,513.9 847.8,508.6 895.2,506.1
	895.2,509 901.5,509.1 901.5,506.8 905.5,506.8 905.5,508.3 913.2,507.8 913.2,504.5 934.3,503 935.8,505.8 945.7,505.9 946.4,503 
	951,503 951,501.8 990.2,499.7 990.2,502.9 1005.9,502.9 1005.9,498 1028.2,497.1 1029.8,500 1044.9,499.7 1044.9,495.9 
	1082.2,493.4 1084.1,495.8 1099.4,495.1 1099.4,492 1102,491.9 1102,459.8 1097.9,455.9 1097.9,454 1102,454 1102,446.7 1109,446.4 
	1109,442.1 1156.8,438.9 1162.6,445.9 1164.4,445.8 1164.4,422.5 1149.5,417.6 1149.5,399 1132.6,389.4 1118.7,393.6 1116.9,392.9 
	1081.3,401.7 1081.3,404.5 1076.1,406.7 1069.2,404.5 1052.5,409 1052.5,412.3 1047.3,414.1 1040.5,412.2 1011.8,419.3 
	1011.8,422.8 1004.7,424.3 998.6,422.3 982.1,426.8 982.1,429.5 974.5,431.7 968.1,430.4 940,437.8 940,440.9 932.7,443.3 
	927,440.6 909.4,445.3 909.4,448.9 902.3,451 895.9,448.9 865.8,456.2 865.8,460 857.8,462.4 852.9,460.1 833.3,465.2 833.3,468.7 
	825.2,470.9 819.8,468.2 781.6,478.7 781.6,482.6 772.3,485.3 772.3,492.2 766.5,493.7 766.5,519.3 784.2,518.4 788.1,526.3 
	788.1,548.7 790,551.6 "/></a>
<a href="/choose-flat" data-build="3"><polygon class="s3d-svg__house" data-build="3" points="797,462.9 797,474.5 819.8,468.2 825.2,470.9 833.3,468.7 833.3,465.2 852.9,460.1 857.8,462.4
	865.8,460 865.8,456.2 895.9,448.9 902.3,451 909.4,448.9 909.4,445.3 927,440.6 932.7,443.3 940,440.9 940,437.8 968.1,430.4 
	974.5,431.7 982.1,429.5 982.1,426.8 998.6,422.3 1004.7,424.3 1011.8,422.8 1011.8,419.3 1040.5,412.2 1047.3,414.1 1052.5,412.3 
	1052.5,409 1069.2,404.5 1076.1,406.7 1081.3,404.5 1081.3,401.7 1116.9,392.9 1118.7,393.6 1132.6,389.4 1149.5,399 1149.5,417.6 
	1164.4,422.5 1164.4,425.1 1170.8,422.9 1170.8,345.9 1155.2,340.5 1145.2,343.9 1130.7,339 1115.4,343.9 1107.8,343.8 
	1091.7,347.9 1091.7,352.4 1069.1,356.9 1063.1,354.9 1054.9,356.3 1054.9,358.6 1047.3,360.7 1041.8,358.7 1025,364.4 1025,368.4 
	1003,374 993.4,371.2 985.1,376.5 976.6,378.7 970.5,378 958.2,381 958.2,384.7 931.9,391 926.1,388.5 910.1,392.7 910.1,394.8 
	899.1,397.5 896,396 886.7,398.2 886.7,402.6 883.8,402.8 883.8,407.6 874,408 874,413.1 869.9,413.1 869.9,435.6 801.3,454.5 
	801.3,461.2 "/></a>
<a href="/choose-flat" data-build="5"><polygon class="s3d-svg__house" data-build="5" points="512,537.8 512,532.8 513.6,532.8 513.6,512.9 517.2,511.4 517.2,502.2 522.1,500.1 522.1,492.2
	534.9,488.2 534.9,484.9 551.3,481 554.1,480.1 554.1,478.6 577.6,472.8 582.1,475.5 589.5,473.5 592,475.3 593.7,475.3 
	593.7,472.1 602,471.3 608.3,469.3 608.3,465.7 613.1,465.7 622.6,462.8 631.6,460.3 634.6,461.9 649.2,458.3 649.2,455.8 
	657.5,454 661,456.7 677.8,452.5 690.6,449.7 690.6,446.4 716.4,440.4 719.2,442.1 738,437.4 743.2,440.1 747.3,439.9 749.5,442.1 
	755.1,439.9 756.3,430.9 760.5,430.9 761.6,437.1 764.5,436.7 776.8,442.1 776.8,484 772.3,485.3 772.3,492.2 766.5,493.7 
	766.5,519.3 764.3,519.4 763,516.4 752.5,516.4 752.5,517.6 716.5,518.9 716.5,523.3 700,523.4 697.5,520.4 687.6,521.4 
	676.2,521.4 676.2,525.5 668.3,525.5 668.3,526.6 658.5,526.8 657.3,522.9 619.2,525.2 619.2,527.1 614.9,527.1 614.9,530.5 
	602,530.5 600.3,527.3 590.5,527.3 589.5,529.2 580.6,529.2 580.6,533.3 573.2,533.3 573.2,529.8 568.8,530 568.8,533.4 559,533.4 
	558.9,530.6 514.8,533.1 514.8,536.7 514,536.7 514,537.7 "/></a>
<g class="js-s3d-svg__point-group s3d-svg__point-group" data-type="tennis court">
	<path class="s3d-svg__point-bg" d="M100.7,462.7c-17.2,0-31.1,13.7-31.1,30.5c-0.1,24.6,30,45,31.1,45.8c0,0,31.3-21.2,31.1-45.8
		C131.8,476.4,117.9,462.7,100.7,462.7z"/>
	<g>
		<path class="s3d-svg__point" d="M108.1,483.2l-1.9-1.9l-1.9,1.9l1.9,1.9L108.1,483.2z"/>
		<path class="s3d-svg__point" d="M108.1,488.8l-1.9-1.9l-1.9,1.9l1.9,1.9L108.1,488.8z"/>
		<path class="s3d-svg__point" d="M98.8,488.8l1.9,1.9l1.9-1.9l-1.9-1.9L98.8,488.8z"/>
		<path class="s3d-svg__point" d="M116,485.5l-1.4-1.4l-1.9,1.9l2.4,2.4C115.4,487.4,115.8,486.4,116,485.5z"/>
		<path class="s3d-svg__point" d="M114.4,489.5l-2.6-2.6l-1.9,1.9l2.9,2.9C113.4,491,113.9,490.2,114.4,489.5z"/>
		<path class="s3d-svg__point" d="M110.9,486l-1.9-1.9l-1.9,1.9l1.9,1.9L110.9,486z"/>
		<path class="s3d-svg__point" d="M113.7,483.2l-1.9-1.9l-1.9,1.9l1.9,1.9L113.7,483.2z"/>
		<path class="s3d-svg__point" d="M105.3,486l-1.9-1.9l-1.9,1.9l1.9,1.9L105.3,486z"/>
		<path class="s3d-svg__point" d="M93.4,492.7l-2.5,4.9l3.6,3.6l0.1,0.1l4.8-2.5c-1.4-0.5-2.6-1.3-3.6-2.3C94.7,495.4,94,494.1,93.4,492.7z"/>
		<path class="s3d-svg__point" d="M97.5,494.7c-1.8-1.8-2.7-4.4-2.4-7.3c0.3-3,1.8-6,4.1-8.4c2.7-2.7,6.1-4.2,9.4-4.2c2.5,0,4.6,0.8,6.2,2.4
			c3.8,3.8,3.1,10.9-1.7,15.7c-0.3,0.3-0.5,0.5-0.8,0.8c0.4,0.1,0.9,0.3,1.3,0.5c0.1-0.1,0.3-0.3,0.4-0.4c5.3-5.3,6.1-13.1,1.7-17.4
			c-1.8-1.8-4.3-2.8-7.1-2.8c-3.7,0-7.4,1.7-10.3,4.5c-5.3,5.3-6.1,13.1-1.7,17.4c1.4,1.4,3.3,2.4,5.5,2.7c0.2-0.4,0.4-0.8,0.7-1.2
			C100.7,496.9,98.9,496.1,97.5,494.7z"/>
		<path class="s3d-svg__point" d="M83.5,505.3c-0.5,0.5-0.7,1.1-0.7,1.7c0,1.3,1.1,2.4,2.4,2.4c0.6,0,1.3-0.3,1.7-0.7l6.7-6.7l-3.4-3.4
			L83.5,505.3z M85.7,507.4l-0.9-0.9l3.1-3.1l0.9,0.9L85.7,507.4z M91.2,501.9l-1.2,1.2l-0.9-0.9l1.2-1.2L91.2,501.9z"/>
		<path class="s3d-svg__point" d="M103.8,495.9C103.8,495.9,103.8,495.9,103.8,495.9c0.1-0.1,0.2-0.1,0.2-0.2l-0.6-0.6l-0.7,0.7
			C103.1,495.9,103.4,495.9,103.8,495.9z"/>
		<path class="s3d-svg__point" d="M109,482.3l1.9-1.9l-1.9-1.9l-1.9,1.9L109,482.3z"/>
		<path class="s3d-svg__point" d="M109.6,476.1c-0.3,0-0.6,0-0.9,0c-0.1,0-0.2,0-0.4,0l0.6,0.6L109.6,476.1z"/>
		<path class="s3d-svg__point" d="M103.4,489.6l-1.9,1.9l1.9,1.9l1.9-1.9L103.4,489.6z"/>
		<path class="s3d-svg__point" d="M102.6,494.3l-1.9-1.9l-1.8,1.8c0.7,0.6,1.5,1,2.5,1.3L102.6,494.3z"/>
		<path class="s3d-svg__point" d="M96.4,489.4l0.6-0.6l-0.7-0.7C96.4,488.5,96.4,489,96.4,489.4z"/>
		<path class="s3d-svg__point" d="M99.8,491.5l-1.9-1.9l-1.2,1.2c0.3,0.9,0.7,1.8,1.3,2.5L99.8,491.5z"/>
		<path class="s3d-svg__point" d="M109.9,493.4c0.3,0,0.6,0,0.9,0c0.4-0.3,0.8-0.6,1.1-0.9l-2.9-2.9l-1.9,1.9l1.9,1.9
			C109.3,493.4,109.6,493.4,109.9,493.4z"/>
		<path class="s3d-svg__point" d="M107.5,493.7l-1.3-1.3l-1.9,1.9l0.6,0.6C105.7,494.4,106.6,494,107.5,493.7z"/>
		<path class="s3d-svg__point" d="M115.5,501.4c0.6,0,1.2-0.1,1.8-0.3c-0.2-1.6-0.9-3.1-2.1-4.3c-1.2-1.2-2.7-1.9-4.3-2.1
			c-0.2,0.6-0.3,1.2-0.3,1.8C110.5,499.2,112.7,501.4,115.5,501.4z"/>
		<path class="s3d-svg__point" d="M116.1,482.5l-0.7,0.7l0.7,0.7C116.2,483.5,116.1,483,116.1,482.5z"/>
		<path class="s3d-svg__point" d="M104.4,502.6c-0.6,0-1.2,0.1-1.8,0.3c0.2,1.6,0.9,3.1,2.1,4.3c1.2,1.2,2.7,1.9,4.3,2.1
			c0.2-0.6,0.3-1.2,0.3-1.8C109.3,504.9,107.1,502.6,104.4,502.6z"/>
		<path class="s3d-svg__point" d="M109.3,496.5c0-0.6,0.1-1.2,0.3-1.8c-1.9,0.1-3.6,0.8-4.9,2.2c-1.4,1.4-2.1,3.1-2.1,4.9
			c0.6-0.2,1.2-0.3,1.8-0.3c3.4,0,6.2,2.8,6.2,6.2c0,0.6-0.1,1.2-0.3,1.8c1.9-0.1,3.6-0.8,4.9-2.2c1.4-1.4,2.1-3.1,2.1-4.9
			c-0.6,0.2-1.2,0.3-1.8,0.3C112.1,502.6,109.3,499.9,109.3,496.5z"/>
		<path class="s3d-svg__point" d="M109.9,477.6l1.9,1.9l1.8-1.8c-0.7-0.6-1.6-1-2.5-1.3L109.9,477.6z"/>
		<path class="s3d-svg__point" d="M103.9,477.2l2.3,2.3l1.9-1.9l-1.3-1.3C105.8,476.5,104.8,476.8,103.9,477.2z"/>
		<path class="s3d-svg__point" d="M112.6,480.4l1.9,1.9l1.3-1.3c-0.3-0.9-0.7-1.7-1.3-2.5L112.6,480.4z"/>
		<path class="s3d-svg__point" d="M96.5,486.5l1.4,1.4l1.9-1.9l-2.3-2.3C97.1,484.6,96.7,485.6,96.5,486.5z"/>
		<path class="s3d-svg__point" d="M100.6,479.5l2.8,2.8l1.9-1.9l-2.6-2.6C102,478.3,101.3,478.9,100.6,479.5z"/>
		<path class="s3d-svg__point" d="M98.1,482.5l2.6,2.6l1.9-1.9l-2.8-2.8C99.1,481,98.6,481.8,98.1,482.5z"/>
	</g>
	<rect x="30.6" y="421.6" class="s3d-svg__text-bg" width="140.2" height="31.1"/>
	<text transform="matrix(1 0 0 1 41.6857 442.1313)" class="s3d-svg__text">Тенісний корт</text>
</g>
<g class="js-s3d-svg__point-group s3d-svg__point-group" data-type="skate park">
	<path class="s3d-svg__point-bg" d="M260.9,431.9c-17.2,0-31.1,13.7-31.1,30.5c-0.1,24.6,30,45,31.1,45.8c0,0,31.3-21.2,31.1-45.8
		C292.1,445.6,278.1,431.9,260.9,431.9z"/>
	<g>
		<path class="s3d-svg__point" d="M278.3,464.8c-0.3-0.3-0.8-0.3-1.1-0.1l-2.2,2c-1.7,1.6-3.8,2.8-6.1,3.5l-14.7,4.7c-2.2,0.7-4.7,1-7,0.7
			l-3-0.3c-0.4,0-0.8,0.3-0.9,0.7c0,0.4,0.3,0.8,0.7,0.9l3,0.3c0.6,0.1,1.3,0.1,2,0.1c1.9,0,3.8-0.3,5.7-0.9l14.7-4.7
			c2.5-0.8,4.8-2.1,6.7-3.8l2.2-2C278.6,465.6,278.6,465.1,278.3,464.8z"/>
		<path class="s3d-svg__point" d="M254.9,479.8c0.8-0.2,1.2-1.1,0.9-1.8c-0.2-0.8-1.1-1.2-1.8-0.9c-0.8,0.2-1.2,1.1-0.9,1.8
			C253.3,479.6,254.1,480,254.9,479.8z"/>
		<path class="s3d-svg__point" d="M271.2,474.5c0.8-0.2,1.2-1.1,0.9-1.8c-0.2-0.8-1.1-1.2-1.8-0.9c-0.8,0.2-1.2,1.1-0.9,1.8
			C269.6,474.3,270.5,474.7,271.2,474.5z"/>
		<path class="s3d-svg__point" d="M262.9,449.1c0-0.4-0.1-0.9-0.2-1.2c0,0-0.1,0-0.1,0h-6.8c0,0-0.1,0-0.1,0c-0.1,0.4-0.2,0.8-0.2,1.2
			c0,1.3,0.7,2.5,1.7,3.1c0.1,0.1,0.3,0.2,0.5,0.3c0.1,0,0.2,0.1,0.3,0.1c0.1,0,0.3,0.1,0.4,0.1c0.1,0,0.1,0,0.2,0
			c0.2,0,0.4,0.1,0.7,0.1c0.2,0,0.4,0,0.7-0.1c0.1,0,0.1,0,0.2,0c0.1,0,0.3-0.1,0.4-0.1c0.1,0,0.1-0.1,0.2-0.1
			c0.1-0.1,0.3-0.1,0.4-0.2c0.1,0,0.1-0.1,0.2-0.1C262.3,451.5,262.9,450.3,262.9,449.1z"/>
		<path class="s3d-svg__point" d="M255.8,447.1h6.8c0.3,0,0.6-0.1,0.8-0.4c0.2-0.3,0.2-0.6,0.1-0.9c-0.7-1.8-2.4-2.9-4.3-2.9
			c-1.9,0-3.6,1.1-4.3,2.9c-0.1,0.3-0.1,0.6,0.1,0.9C255.2,446.9,255.5,447.1,255.8,447.1z"/>
		<path class="s3d-svg__point" d="M248.8,460.5l6.8-4v7.4h-2.8c0,0-0.1,0-0.1,0c-0.1,0-0.3,0-0.4,0c-0.8,0.1-1.4,0.9-1.3,1.8l1,6.4
			c0.1,0.8,0.9,1.4,1.8,1.3c0.9-0.1,1.4-0.9,1.3-1.8l-0.7-4.1h3.3h2.5h1.1c0.1,0,0.3,0,0.4,0c0.4,0,0.7-0.2,1-0.4l3.3-3l0.3,1.9
			c0.1,0.8,0.9,1.4,1.8,1.3c0.8-0.1,1.4-0.9,1.3-1.8l-0.8-5.1c-0.1-0.8-0.9-1.3-1.6-1.3c-0.5,0-1,0.1-1.4,0.5l-2.3,2.1v-5.2l7.1,3.8
			c0.7,0.4,1.7,0.1,2.1-0.6c0.4-0.7,0.1-1.7-0.6-2.1l-9.6-5.2c-0.8,0.7-1.9,1.2-3.1,1.2c-1.1,0-2.1-0.4-2.8-1l-9.1,5.3
			c-0.7,0.4-1,1.4-0.6,2.1C247.1,460.7,248.1,461,248.8,460.5z"/>
	</g>
	<rect x="200.2" y="390.8" class="s3d-svg__text-bg" width="121.5" height="31.1"/>
	<text transform="matrix(1 0 0 1 215.0239 411.3371)" class="s3d-svg__text">Скейт парк</text>
</g>
<g class="js-s3d-svg__point-group s3d-svg__point-group" data-type="workout zone">
	<path class="s3d-svg__point-bg" d="M644.4,331c-17.2,0-31.1,13.7-31.1,30.5c-0.1,24.6,30,45,31.1,45.8c0,0,31.3-21.2,31.1-45.8
		C675.5,344.7,661.5,331,644.4,331z"/>
	<path class="s3d-svg__point" d="M657.3,344.6h-1.7c-0.3,0-0.6,0.3-0.6,0.6v1.3h-3.2c-0.2-0.4-0.6-0.6-1.1-0.6c-0.5,0-0.9,0.2-1.2,0.6h-2.1
		c0.3,0.4,0.5,0.9,0.6,1.5h1.2c-0.1,1.4-0.2,2.8-0.3,3.4c-0.5,0.3-2.2,0.8-3.7,0.8h-2c-1.5,0-3.2-0.4-3.7-0.8
		c-0.1-0.6-0.2-2-0.3-3.4h1.4c0.1-0.5,0.3-1,0.6-1.5H639c-0.2-0.4-0.7-0.7-1.2-0.6c-0.4,0-0.8,0.3-1,0.6h-3v-1.3
		c0-0.3-0.3-0.6-0.6-0.6h-1.7c-0.3,0-0.6,0.3-0.6,0.6v30.6c0,0.3,0.3,0.6,0.6,0.6h1.7c0.3,0,0.6-0.3,0.6-0.6v-27.9h2.9
		c0.1,1.3,0.2,3.4,0.5,4.3c0.4,1.4,2.5,2,4.1,2.3l0.2,5.6l-1.8,9.5c-0.2,0.8,0.4,1.6,1.2,1.8c0.1,0,0.2,0,0.3,0
		c0.7,0,1.4-0.5,1.5-1.3l1.7-9.1l1.7,9.1c0.2,0.8,1,1.4,1.8,1.2c0.8-0.2,1.4-1,1.2-1.8l-1.8-9.5l0.2-5.6c1.6-0.3,3.5-0.9,3.9-2.3
		c0.2-0.8,0.4-3,0.5-4.3h3v27.9c0,0.3,0.3,0.6,0.6,0.6h1.7c0.3,0,0.6-0.3,0.6-0.6v-30.6C657.8,344.9,657.6,344.6,657.3,344.6z"/>
	<path class="s3d-svg__point" d="M644.4,351.4c1.5,0,2.7-1.2,2.7-2.7s-1.2-2.7-2.7-2.7c-1.5,0-2.7,1.2-2.7,2.7S642.9,351.4,644.4,351.4z"/>
	<rect x="575.8" y="289.9" class="s3d-svg__text-bg" width="137" height="31.1"/>
	<text transform="matrix(1 0 0 1 588.0165 309.8039)" class="s3d-svg__text">Воркаут зона</text>
</g>
<g class="js-s3d-svg__point-group s3d-svg__point-group" data-type="workout zone">
	<path class="s3d-svg__point-bg" d="M935,267.7c-17.2,0-31.1,13.7-31.1,30.5c-0.1,24.6,30,45,31.1,45.8c0,0,31.3-21.2,31.1-45.8
		C966.1,281.4,952.1,267.7,935,267.7z"/>
	<path class="s3d-svg__point" d="M947.9,281.3h-1.7c-0.3,0-0.6,0.3-0.6,0.6v1.3h-3.2c-0.2-0.4-0.6-0.6-1.1-0.6c-0.5,0-0.9,0.2-1.2,0.6h-2.1
		c0.3,0.4,0.5,0.9,0.6,1.5h1.2c-0.1,1.4-0.2,2.8-0.3,3.4c-0.5,0.3-2.2,0.8-3.7,0.8h-2c-1.5,0-3.2-0.4-3.7-0.8
		c-0.1-0.6-0.2-2-0.3-3.4h1.4c0.1-0.5,0.3-1,0.6-1.5h-2.3c-0.2-0.4-0.7-0.7-1.2-0.6c-0.4,0-0.8,0.3-1,0.6h-3v-1.3
		c0-0.3-0.3-0.6-0.6-0.6h-1.7c-0.3,0-0.6,0.3-0.6,0.6v30.6c0,0.3,0.3,0.6,0.6,0.6h1.7c0.3,0,0.6-0.3,0.6-0.6v-27.9h2.9
		c0.1,1.3,0.2,3.4,0.5,4.3c0.4,1.4,2.5,2,4.1,2.3l0.2,5.6l-1.8,9.5c-0.2,0.8,0.4,1.6,1.2,1.8c0.1,0,0.2,0,0.3,0
		c0.7,0,1.4-0.5,1.5-1.3l1.7-9.1l1.7,9.1c0.2,0.8,1,1.4,1.8,1.2c0.8-0.2,1.4-1,1.2-1.8l-1.8-9.5l0.2-5.6c1.6-0.3,3.5-0.9,3.9-2.3
		c0.2-0.8,0.4-3,0.5-4.3h3v27.9c0,0.3,0.3,0.6,0.6,0.6h1.7c0.3,0,0.6-0.3,0.6-0.6v-30.6C948.5,281.6,948.2,281.3,947.9,281.3z"/>
	<path class="s3d-svg__point" d="M935,288.1c1.5,0,2.7-1.2,2.7-2.7c0-1.5-1.2-2.7-2.7-2.7s-2.7,1.2-2.7,2.7C932.3,286.9,933.5,288.1,935,288.1z
		"/>
	<rect x="866.5" y="226.6" class="s3d-svg__text-bg" width="137" height="31.1"/>
	<text transform="matrix(1 0 0 1 878.6265 246.5047)" class="s3d-svg__text">Воркаут зона</text>
</g>
<g class="js-s3d-svg__point-group s3d-svg__point-group" data-type="channel">
	<path class="s3d-svg__point-bg" d="M196,506.4c-17.2,0-31.1,13.7-31.1,30.5c-0.1,24.6,30,45,31.1,45.8c0,0,31.3-21.2,31.1-45.8
		C227.2,520.1,213.2,506.4,196,506.4z"/>
	<g>
		<path class="s3d-svg__point" d="M211.8,526.8c-3-2.1-5.9-2.1-8.9,0c-2.1,1.4-4.1,1.4-6.3,0c-2.9-2.1-5.9-2.1-8.8,0c-2.2,1.4-4.1,1.4-6.3,0
			c-1-0.7-2.2-1.5-4.4-1.5v2.1c1.6,0,2.3,0.5,3.2,1.1c2.9,2,5.9,2,8.8,0c2.2-1.5,4.2-1.5,6.3,0c2.9,2,5.9,2,8.8,0
			c2.2-1.5,4.2-1.5,6.3,0c1,0.7,2.2,1.4,4.5,1.4v-2.1C213.4,527.8,212.7,527.4,211.8,526.8z"/>
		<path class="s3d-svg__point" d="M211.8,532.4c-3-2.1-5.9-2.1-8.9,0c-2.1,1.4-4.1,1.4-6.3,0c-2.9-2.1-5.9-2.1-8.8,0c-2.2,1.4-4.1,1.4-6.3,0
			c-1-0.7-2.2-1.5-4.4-1.5v2.1c1.6,0,2.3,0.5,3.2,1.1c2.9,2,5.9,2,8.8,0c2.2-1.5,4.2-1.5,6.3,0c2.9,2,5.9,2,8.8,0
			c2.2-1.5,4.2-1.5,6.3,0c1,0.7,2.2,1.4,4.5,1.4v-2.1C213.4,533.5,212.7,533,211.8,532.4z"/>
		<path class="s3d-svg__point" d="M211.8,538.1c-3-2.1-5.9-2.1-8.9,0c-2.1,1.4-4.1,1.4-6.3,0c-2.9-2.1-5.9-2.1-8.8,0c-2.2,1.4-4.1,1.4-6.3,0
			c-1-0.7-2.2-1.5-4.4-1.5v2.1c1.6,0,2.3,0.5,3.2,1.1c2.9,2,5.9,2,8.8,0c2.2-1.5,4.2-1.5,6.3,0c2.9,2,5.9,2,8.8,0
			c2.2-1.5,4.2-1.5,6.3,0c1,0.7,2.2,1.4,4.5,1.4v-2.1C213.4,539.1,212.7,538.7,211.8,538.1z"/>
		<path class="s3d-svg__point" d="M211.8,543.7c-3-2.1-5.9-2.1-8.9,0c-2.1,1.4-4.1,1.4-6.3,0c-2.9-2.1-5.9-2.1-8.8,0c-2.2,1.4-4.1,1.4-6.3,0
			c-1-0.7-2.2-1.5-4.4-1.5v2.1c1.6,0,2.3,0.5,3.2,1.1c2.9,2,5.9,2,8.8,0c2.2-1.5,4.2-1.5,6.3,0c2.9,2,5.9,2,8.8,0
			c2.2-1.5,4.2-1.5,6.3,0c1,0.7,2.2,1.4,4.5,1.4v-2.1C213.4,544.8,212.7,544.3,211.8,543.7z"/>
	</g>
	<rect x="157.1" y="465.3" class="s3d-svg__text-bg" width="77.9" height="31.1"/>
	<text transform="matrix(1 0 0 1 170.7257 485.2542)" class="s3d-svg__text">канал</text>
</g>
<g class="js-s3d-svg__point-group s3d-svg__point-group" data-type="stadium">
	<path class="s3d-svg__point-bg" d="M805.7,295.3c-17.2,0-31.1,13.7-31.1,30.5c-0.1,24.6,30,45,31.1,45.8c0,0,31.3-21.2,31.1-45.8
		C836.8,309,822.9,295.3,805.7,295.3z"/>
	<path class="s3d-svg__point" d="M789.5,314v0.9h1.2v1c0.2,0,0.3-0.1,0.5-0.1V314C790.6,314,790.1,314,789.5,314z M820.2,314v1.8
		c0.2,0,0.3,0.1,0.5,0.1v-1h1.2V314C821.3,314,820.8,314,820.2,314z M786.8,314.9v0.9h1.2v0.9c0.1-0.1,0.3-0.1,0.5-0.2v-1.7
		C787.8,314.9,787.3,314.9,786.8,314.9z M805.7,314.9c-11.5,0-20.8,2.5-20.8,5.5c0,0.9,0.8,1.8,2.3,2.5c1.9-1.5,5.1-3.1,7.9-3.8
		c3.2-0.7,6.9-1.1,10.6-1.1c3.7,0,7.4,0.3,10.6,0.9c3,0.6,6.5,2.4,8.3,3.8c1.2-0.7,1.9-1.5,1.9-2.3
		C826.5,317.4,817.2,314.9,805.7,314.9L805.7,314.9z M823,314.9v1.7c0.2,0.1,0.3,0.1,0.5,0.2v-0.9h1.2v-0.9
		C824.1,314.9,823.5,314.9,823,314.9z M784,316.7v0.9h1.2v0.5c0.1-0.1,0.3-0.2,0.5-0.3v-1.1C785.1,316.7,784.5,316.7,784,316.7z
		 M825.8,316.7v1.1c0.2,0.1,0.3,0.2,0.5,0.3v-0.5h1.2v-0.9C826.8,316.7,826.3,316.7,825.8,316.7z M805.7,319.9
		c-3.6,0-7.2,0.4-10.2,1.1c-2.3,0.5-4.7,1.7-6.3,2.8c0.4,0.1,0.8,0.3,1.2,0.4c3.5-1.8,9.7-3.3,15.2-3.3s11.8,1.4,15.3,3.3
		c0.6-0.2,1.1-0.3,1.6-0.5c-1.6-1.1-4.2-2.4-6.7-2.9C812.9,320.2,809.3,319.9,805.7,319.9z M805.7,322.7c-4.2,0-9,1-12.2,2.2
		c3.4,0.7,7.6,1.1,12.2,1.1c4.6,0,8.8-0.4,12.2-1.1C814.7,323.7,809.9,322.7,805.7,322.7z M826,322.9c-1.2,0.8-3,1.5-5.1,2.1
		c-4,1.1-9.3,1.7-15.2,1.7c-5.9,0-11.3-0.6-15.2-1.7c-2-0.5-3.7-1.2-4.9-1.9l2.6,10.4c3.6,1.7,7.2,2.9,10.8,3.5l-0.7-2.9
		c-0.1-0.3,0-0.6,0.2-0.9l2.3-2.3c0.1-0.1,0.4-0.2,0.6-0.3c2.8,0,5.6,0,8.4,0c0.2,0,0.5,0.1,0.7,0.3l2.3,2.3
		c0.2,0.2,0.3,0.6,0.2,0.9l-0.7,2.9c3.8-0.6,7.5-1.8,11.3-3.6L826,322.9z M801.5,331.5l-1.4,1.4h11.1l-1.4-1.4H801.5z M801.3,334.7
		l1,4.2h6.8l1-4.2H801.3z"/>
	<rect x="759" y="254.1" class="s3d-svg__text-bg" width="93.4" height="31.1"/>
	<text transform="matrix(1 0 0 1 772.7729 274.0844)" class="s3d-svg__text">стадіон</text>
</g>
<g class="js-s3d-svg__point-group s3d-svg__point-group" data-type="park">
	<path class="s3d-svg__point-bg" d="M1051.8,241.2c-17.2,0-31.1,13.7-31.1,30.5c-0.1,24.6,30,45,31.1,45.8c0,0,31.3-21.2,31.1-45.8
		C1082.9,254.9,1069,241.2,1051.8,241.2z"/>
	<g>
		<path class="s3d-svg__point" d="M1050.6,277.5h-1.8v-1.8c0-0.3-0.3-0.6-0.6-0.6s-0.6,0.3-0.6,0.6v1.8h-10.1v-1.8c0-0.3-0.3-0.6-0.6-0.6
			c-0.3,0-0.6,0.3-0.6,0.6v1.8h-1.8c-0.3,0-0.6,0.3-0.6,0.6v2.4c0,0.3,0.3,0.6,0.6,0.6h1.8v1.2h-1.8c-0.3,0-0.6,0.3-0.6,0.6v2.4
			c0,0.3,0.3,0.6,0.6,0.6h0.6v3c0,0.3,0.3,0.6,0.6,0.6h2.4c0.3,0,0.6-0.3,0.6-0.6v-3h7.8v3c0,0.3,0.3,0.6,0.6,0.6h2.4
			c0.3,0,0.6-0.3,0.6-0.6v-3h0.6c0.3,0,0.6-0.3,0.6-0.6v-2.4c0-0.3-0.3-0.6-0.6-0.6h-1.8v-1.2h1.8c0.3,0,0.6-0.3,0.6-0.6v-2.4
			C1051.2,277.8,1050.9,277.5,1050.6,277.5z M1037.5,288.2h-1.2v-2.4h1.2V288.2z M1048.8,288.2h-1.2v-2.4h1.2V288.2z M1047.6,282.3
			h-10.1v-1.2h10.1V282.3z"/>
		<path class="s3d-svg__point" d="M1066.7,259L1066.7,259c-0.3-1.7-1.8-3-3.6-3c-0.9,0-1.8,0.4-2.4,0.9v-2.7c0-0.3-0.3-0.6-0.6-0.6
			c-0.3,0-0.6,0.3-0.6,0.6v2.7c-0.6-0.6-1.5-0.9-2.4-0.9c-1.8,0-3.2,1.3-3.5,3h-0.1c-1.6,0-3,1.3-3,3c0,0.3,0.3,0.6,0.6,0.6h1.2v1.2
			c0,1,0.8,1.8,1.8,1.8c1,0,1.8-0.8,1.8-1.8v-1.2h1.2c0.3,0,0.6-0.3,0.6-0.6c0-1.6-1.3-2.9-2.9-3c0.3-1,1.2-1.8,2.3-1.8
			c1.3,0,2.4,1.1,2.4,2.4v8.5c-0.7,0.2-1.2,0.9-1.2,1.7v11.7c-0.8,0.3-1.5,0.9-1.9,1.6c-0.1,0-0.2-0.1-0.3-0.1c-0.1,0-0.1,0-0.2-0.1
			c-0.2,0-0.4-0.1-0.6-0.1c-1.6,0-3,1.3-3,3v3c0,0.3,0.3,0.6,0.6,0.6h14.3c0.3,0,0.6-0.3,0.6-0.6v-3c0-1.6-1.3-3-3-3
			c-0.2,0-0.4,0-0.6,0.1c-0.1,0-0.1,0-0.2,0.1c-0.1,0-0.2,0-0.3,0.1c-0.4-0.7-1.1-1.3-1.9-1.6v-11.7c0-0.8-0.5-1.4-1.2-1.7v-8.5
			c0-1.3,1.1-2.4,2.4-2.4c1.1,0,2,0.8,2.3,1.8c-1.6,0-2.9,1.4-2.9,3c0,0.3,0.3,0.6,0.6,0.6h1.2v1.2c0,1,0.8,1.8,1.8,1.8
			c1,0,1.8-0.8,1.8-1.8v-1.2h1.2c0.3,0,0.6-0.3,0.6-0.6C1069.7,260.3,1068.4,259,1066.7,259z"/>
		<path class="s3d-svg__point" d="M1036.3,260.2h6c1.3,0,2.4-1.1,2.4-2.4c0-1.4-1.2-2.5-2.6-2.4c-0.5-1.1-1.5-1.8-2.7-1.8
			c-1.2,0-2.3,0.7-2.7,1.8c-1.4-0.2-2.6,1-2.6,2.4C1033.9,259.1,1035,260.2,1036.3,260.2z"/>
		<path class="s3d-svg__point" d="M1049.2,266.8c-0.5-1.1-1.5-1.8-2.7-1.8c-1.2,0-2.3,0.7-2.7,1.8c-1.4-0.2-2.6,1-2.6,2.4
			c0,1.3,1.1,2.4,2.4,2.4h6c1.3,0,2.4-1.1,2.4-2.4C1051.8,267.7,1050.6,266.6,1049.2,266.8z"/>
	</g>
	<rect x="1017.5" y="200" class="s3d-svg__text-bg" width="68.5" height="31.1"/>
	<text transform="matrix(1 0 0 1 1032.0891 219.9658)" class="s3d-svg__text">парк</text>
</g>
<g class="js-s3d-svg__point-group s3d-svg__point-group" data-type="parking">
	<path class="s3d-svg__point-bg" d="M1482.1,460.3c-17.2,0-31.1,13.7-31.1,30.5c-0.1,24.6,30,45,31.1,45.8c0,0,31.3-21.2,31.1-45.8
		C1513.2,474,1499.2,460.3,1482.1,460.3z"/>
	<path class="s3d-svg__point" d="M1482.1,472.8c9.5,0,17.1,7.7,17.1,17.1c0,9.8-8.2,17.6-17.9,17.1v-2.6c8.3,0.4,15.3-6.2,15.3-14.5
		c0-8-6.5-14.5-14.5-14.5s-14.5,6.5-14.5,14.5c0,5.8,3.4,10.9,8.6,13.3v-21.3h8c1.4,0,2.5,0.1,3.2,0.2c3.1,0.5,4.9,2.8,4.9,5.9
		c0,4.9-3.6,6.4-7.9,6.4h-5.4v12.2c-8.3-1.8-14-7.9-14-16.7C1464.9,480.5,1472.6,472.8,1482.1,472.8L1482.1,472.8z M1478.9,491.9
		h5.4c2.7,0,5-0.7,5-3.8c0-1.6-0.8-3.1-2.4-3.5c-0.5-0.1-1.3-0.2-2.6-0.2h-5.4V491.9z"/>
	<rect x="1435.3" y="419.2" class="s3d-svg__text-bg" width="93.4" height="31.1"/>
	<text transform="matrix(1 0 0 1 1451.1124 439.1404)" class="s3d-svg__text">Паркінг</text>
</g>
<g class="js-s3d-svg__point-group s3d-svg__point-group" data-type="eco-market">
	<path class="s3d-svg__point-bg" d="M1471.5,250.7c-17.2,0-31.1,13.7-31.1,30.5c-0.1,24.6,30,45,31.1,45.8c0,0,31.3-21.2,31.1-45.8
		C1502.6,264.4,1488.7,250.7,1471.5,250.7z"/>
	<g>
		<path class="s3d-svg__point" d="M1477.8,266.2c-1.9-0.2-3.9-0.2-5.8,0c-3.3,0.3-5.5,1.3-6.6,2.9c-1,1.5-0.8,3.2-0.5,4.4c0,0,0,0,0.1,0.1
			c0,0,0.1,0,0.1,0c1.6-1,3.4-1.7,5.3-2c0,0,0,0,0,0v0l-4.7,3.8c-1,0.9-1.8,2-2.4,3.3c-0.2,0.4-0.2,0.9,0.1,1.3
			c0.2,0.3,0.5,0.5,0.9,0.6c0.6,0.1,1.2-0.2,1.5-0.8c0.4-0.9,1-1.7,1.7-2.3c0.7,0.5,2.1,1.3,3.7,1.5c0.3,0,0.6,0,0.8,0
			c3.4-0.3,5.5-4.4,6.3-12.1C1478.4,266.5,1478.1,266.2,1477.8,266.2z"/>
		<path class="s3d-svg__point" d="M1472.8,289.8c-1,0.1-1.9,0-2.9-0.3c0.1-0.9,0.1-2.5-0.5-3.9c-0.1-0.3-0.3-0.5-0.4-0.7
			c-2-2.8-6.6-2.6-13.6,0.6c-0.3,0.1-0.4,0.5-0.3,0.8c0.8,1.7,1.8,3.4,2.9,5c1.8,2.5,3.6,4,5.4,4.3c0.1,0,0.3,0,0.4,0
			c1.8,0.1,3.2-0.9,4.1-1.8c0,0,0,0,0-0.1c0,0,0,0,0-0.1c-1.6-0.9-3.2-2.1-4.4-3.6v0h0l5.6,2.1c1.3,0.4,2.7,0.6,4.1,0.4
			c0.5,0,0.9-0.3,1.1-0.7c0.2-0.4,0.2-0.9-0.1-1.3C1473.9,290,1473.4,289.8,1472.8,289.8z"/>
		<path class="s3d-svg__point" d="M1487.5,283.6c-0.8-1.6-2.4-2.3-3.6-2.6c0,0-0.1,0-0.1,0c0,0,0,0,0,0.1c0.1,1.9-0.2,3.8-0.9,5.6v0h0
			c0,0,0,0,0,0l-1-5.9c-0.3-1.3-0.8-2.7-1.6-3.8c-0.1-0.1-0.2-0.3-0.4-0.4c-0.6-0.4-1.4-0.1-1.8,0.5l-0.1,0.1
			c-0.2,0.4-0.2,1,0.1,1.4c0.6,0.8,1,1.7,1.1,2.7c-0.8,0.4-2.2,1.1-3.1,2.4c-0.2,0.2-0.3,0.5-0.4,0.7c-1.4,3.1,1,7,7.3,11.5
			c0.3,0.2,0.6,0.1,0.8-0.2c1.1-1.6,2-3.3,2.9-5C1488,287.8,1488.3,285.4,1487.5,283.6z"/>
	</g>
	<rect x="1417" y="209.5" class="s3d-svg__text-bg" width="109" height="31.1"/>
	<text transform="matrix(1 0 0 1 1428.1023 229.4688)" class="s3d-svg__text">еко-ринок</text>
</g>
<g class="js-s3d-svg__point-group s3d-svg__point-group" data-type="children">
	<path class="s3d-svg__point-bg" d="M1525.3,327.6c-17.2,0-31.1,13.7-31.1,30.5c-0.1,24.6,30,45,31.1,45.8c0,0,31.3-21.2,31.1-45.8
		C1556.4,341.3,1542.5,327.6,1525.3,327.6z"/>
		<rect x="1437.8" y="286.5" class="s3d-svg__text-bg" width="175" height="31.1"/>
		<text transform="matrix(1 0 0 1 1450.1689 306.451)" class="s3d-svg__text">Дитячий садочок</text>
		<g>
		<g>
			<g>
				<path class="s3d-svg__point" d="M1540.3,365.1c-1.5-1.2-3.9-0.8-5.6,0.8l-1.3-0.8c0.1-0.4,0.1-0.8,0.1-1.3c1.8-0.4,3.4-1,5-1.7
					c1.8-0.8,2.5-2.9,1.7-4.7c-0.8-1.8-2.9-2.5-4.7-1.7c-1.1,0.5-2.3,0.9-3.5,1.2c1.3-1.5,2-3.5,2-5.6c0-0.3,0-0.6,0-0.9
					c1.7-0.7,3-2.4,3-4.4c0-2.6-2.1-4.7-4.7-4.7c-1.5,0-2.8,0.7-3.7,1.8c-1-0.4-2.2-0.7-3.3-0.7c-1.2,0-2.3,0.2-3.3,0.7
					c-0.9-1.1-2.2-1.8-3.7-1.8c-2.6,0-4.7,2.1-4.7,4.7c0,2,1.2,3.7,3,4.4c0,0.3,0,0.6,0,0.9c0,2.1,0.8,4.1,2,5.6
					c-1.3-0.3-2.4-0.7-3.5-1.2c-1.8-0.8-3.9,0-4.7,1.7c-0.8,1.8,0,3.9,1.7,4.7c1.6,0.7,3.2,1.3,5,1.7c0,0.4,0.1,0.9,0.1,1.3
					l-1.3,0.8c-1.8-1.6-4.1-1.9-5.6-0.8c-1.8,1.4-1.8,4.4,0,6.7c1.1,1.4,2.7,2.3,4.4,2.3c0.6,0,1.3-0.2,1.8-0.5l4.8-2.9
					c1.2,0.7,2.5,1,4,1c1.4,0,2.8-0.4,4-1l4.8,2.9c0.5,0.3,1.2,0.5,1.8,0.5c1.7,0,3.4-1,4.4-2.3
					C1542.1,369.5,1542.1,366.5,1540.3,365.1z M1515.4,372.8C1515.4,372.8,1515.4,372.8,1515.4,372.8c-2.8,0.9-6.3-3.2-5-6
					C1513.2,365.9,1516.7,370,1515.4,372.8z M1517.1,348c-0.7-0.4-1.2-1.2-1.2-2c0-1.3,1.1-2.3,2.3-2.3c0.6,0,1.2,0.3,1.7,0.7
					C1518.7,345.2,1517.7,346.5,1517.1,348z M1521.7,363.1c-0.5,0.3-1.1-0.1-1.1-0.7v-2.7c0-0.6,0.6-1,1.1-0.7l1.8,0.6
					c-0.2,0.2-0.3,0.5-0.4,0.9h-1.2v1.2h1.2c0.1,0.3,0.2,0.6,0.4,0.9L1521.7,363.1z M1525.3,362.2c-0.6,0-1.2-0.5-1.2-1.2
					s0.5-1.2,1.2-1.2c0.6,0,1.2,0.5,1.2,1.2S1525.9,362.2,1525.3,362.2z M1530,362.4L1530,362.4c0,0.6-0.6,1-1.1,0.7l-1.7-0.6
					c0.2-0.3,0.4-0.5,0.4-0.9h1.2v-1.2h-1.2c-0.1-0.3-0.2-0.6-0.4-0.9l1.7-0.6c0.5-0.3,1.1,0.1,1.1,0.7L1530,362.4L1530,362.4z
					 M1528.9,351.2c0.7,0.8,1.1,1.8,1.1,2.9c0,2.6-2.1,4.7-4.7,4.7s-4.7-2.1-4.7-4.7c0-1.1,0.4-2.1,1.1-2.9
					c-0.9-0.1-1.7-0.8-1.7-1.8c0-1,0.8-1.8,1.8-1.8s1.8,0.8,1.8,1.8c0,0.1,0,0.2,0,0.4c0.6-0.2,1.2-0.4,1.8-0.4
					c0.6,0,1.2,0.1,1.8,0.4c0-0.1,0-0.2,0-0.4c0-1,0.8-1.8,1.8-1.8s1.8,0.8,1.8,1.8C1530.6,350.4,1529.8,351.2,1528.9,351.2z
					 M1530.7,344.3c0.4-0.4,1-0.7,1.7-0.7c1.3,0,2.3,1.1,2.3,2.3c0,0.9-0.5,1.6-1.2,2C1532.9,346.5,1531.9,345.2,1530.7,344.3z
					 M1535.2,372.8c-1.3-2.8,2.2-6.9,5-6C1541.5,369.7,1537.9,373.7,1535.2,372.8z"/>
			</g>
		</g>
			<g>
			<g>
				<circle class="s3d-svg__point" cx="1521.8" cy="349.5" r="0.9"/>
			</g>
		</g>
			<g>
			<g>
				<circle class="s3d-svg__point" cx="1525.3" cy="353" r="1.2"/>
			</g>
		</g>
			<g>
			<g>
				<circle class="s3d-svg__point" cx="1528.8" cy="349.5" r="0.9"/>
			</g>
		</g>
	</g>
</g>
<g class="js-s3d-svg__point-group s3d-svg__point-group" data-type="children park">
	<path class="s3d-svg__point-bg" d="M455.6,384.4c-17.2,0-31.1,13.7-31.1,30.5c-0.1,24.6,30,45,31.1,45.8c0,0,31.3-21.2,31.1-45.8
		C486.8,398.1,472.8,384.4,455.6,384.4z"/>
		<rect x="346.6" y="328.1" class="s3d-svg__text-bg" width="218.1" height="46.5"/>
		<text transform="matrix(1 0 0 1 356.4954 347.2664)"><tspan x="0" y="0" class="s3d-svg__text">Дитячі майданчики для</tspan><tspan x="17.8" y="18" class="s3d-svg__text">різних вікових груп</tspan></text>
		<g>
			<path class="s3d-svg__point" d="M472.3,406.4c-2.1-3.1-4.7-5.1-7.8-5.9v12.9c3-0.8,5.7-2.8,7.8-5.9C472.5,407.2,472.5,406.7,472.3,406.4z"/>
			<path class="s3d-svg__point" d="M460.4,423.8c0.1-0.3,0.2-0.7,0.2-1.1c0-1.6-1.3-3-3-3h-3.9c-0.5,0-1-0.4-1-1c0-0.5,0.4-1,1-1h3.9
				c1.6,0,3-1.3,3-3c0-0.3-0.1-0.7-0.2-1h0.8c0.5,0,0.9,0,1.4-0.1v-13.6c-0.5-0.1-0.9-0.1-1.4-0.1c-1.4,0-2.5,1.1-2.5,2.5v0.4
				c0,1.6-1.3,3-3,3s-3-1.3-3-3c0-1.3-0.9-2.4-2.1-2.8c-0.4-2.3-2.4-4.1-4.8-4.1h-6c-0.5,0-1,0.4-1,1c0,2.4,1.7,4.4,3.9,4.8v2.1h-1
				c-1.6,0-3,1.3-3,3s1.3,3,3,3h1v2.1c-2.2,0.5-3.9,2.4-3.9,4.8c0,0.5,0.4,1,1,1h6c2.4,0,4.4-1.7,4.8-3.9c3.7,0,3.3,0,7,0
				c0.5,0,1,0.4,1,1c0,0.5-0.4,1-1,1h-3.9c-1.6,0-3,1.3-3,3c0,1.6,1.3,3,3,3h3.9c0.5,0,1,0.4,1,1c0,0.5-0.4,1-1,1h-5.9
				c-2.7,0-4.9,2.3-4.9,5.1c0,0.5,0.4,1,1,1h15.8c0.5,0,1-0.4,1-1C464.5,426.3,462.7,424.2,460.4,423.8z M441.8,407.9
				c-0.5,0-1-0.4-1-1s0.4-1,1-1h4c0.5,0,1,0.4,1,1s-0.4,1-1,1H441.8z M445.8,415.8h-4.8c0.4-1.1,1.5-2,2.8-2h4.8
				C448.1,415,447.1,415.8,445.8,415.8z M443.7,400c-1.3,0-2.4-0.8-2.8-2h4.8c1.3,0,2.4,0.8,2.8,2H443.7z M452.7,411.9h-2v-1
				c0-0.5,0.4-1,1-1s1,0.4,1,1V411.9z M456.6,411.9h-2v-1c0-0.5,0.4-1,1-1s1,0.4,1,1V411.9z"/>
	</g>
</g>


	<g>
	<circle class="s3d-svg__text-bg" cx="392.5" cy="524" r="14"/>
		<text transform="matrix(1 0 0 1 389.515 528.406)" class="s3d-svg__text">7</text>
</g>
	<g>
	<circle class="s3d-svg__text-bg" cx="645.3" cy="525.1" r="14"/>
		<text transform="matrix(1 0 0 1 641.1129 529.5067)" class="s3d-svg__text">6</text>
</g>
	<g>
	<circle class="s3d-svg__text-bg" cx="645.3" cy="455.9" r="14"/>
		<text transform="matrix(1 0 0 1 640.9477 460.2538)" class="s3d-svg__text">5</text>
</g>
	<g>
	<ellipse transform="matrix(0.1602 -0.9871 0.9871 0.1602 368.0026 1420.5353)" class="s3d-svg__text-bg" cx="1018.8" cy="494" rx="14" ry="14"/>
		<text transform="matrix(1 0 0 1 1012.8062 498.363)" class="s3d-svg__text">11</text>
</g>
	<g>
	<circle class="s3d-svg__text-bg" cx="913.3" cy="445.1" r="14"/>
		<text transform="matrix(1 0 0 1 909.1029 449.5089)" class="s3d-svg__text">4</text>
</g>
	<g>
	<circle class="s3d-svg__text-bg" cx="1356.7" cy="455.9" r="14"/>
		<text transform="matrix(1 0 0 1 1348.8997 460.2535)" class="s3d-svg__text">10</text>
</g>
	<g>
	<circle class="s3d-svg__text-bg" cx="1141.4" cy="438.3" r="14"/>
		<text transform="matrix(1 0 0 1 1134.0275 442.6437)" class="s3d-svg__text">12</text>
</g>
	<g>
	<circle class="s3d-svg__text-bg" cx="1313.7" cy="394.4" r="14"/>
		<text transform="matrix(1 0 0 1 1309.3293 398.749)" class="s3d-svg__text">9</text>
</g>
	<g>
	<circle class="s3d-svg__text-bg" cx="1585.5" cy="398.7" r="14"/>
		<text transform="matrix(1 0 0 1 1581.0968 403.1292)" class="s3d-svg__text">8</text>
</g>
	<g>
	<circle class="s3d-svg__text-bg" cx="1327.8" cy="342.5" r="14"/>
		<text transform="matrix(1 0 0 1 1323.5391 346.8569)" class="s3d-svg__text">2</text>
</g>
	<g>
	<circle class="s3d-svg__text-bg" cx="981.3" cy="376" r="14"/>
		<text transform="matrix(1 0 0 1 977.1655 380.3538)" class="s3d-svg__text">3</text>
</g>
	<g>
	<circle class="s3d-svg__text-bg" cx="1253.8" cy="325.3" r="14"/>
		<text transform="matrix(1 0 0 1 1249.4602 329.6943)" class="s3d-svg__text">1</text>
</g>
</svg>
