<svg id="floor--svg"  viewBox="0 0 1920 1080" version="1.0" xmlns="http://www.w3.org/2000/svg">
		<polygon data-sec="1" data-build="1" data-floor="4" data-id="36" class="s3d-svg__house js-s3d-svg__house" points="747,631,939,664,1070,623,1079,622,1184,586,1183,636,1080,678,1070,678,953,726,936,729,753,689,743,685"></polygon>
		<polygon data-sec="1" data-build="1" data-floor="5" data-id="34" class="s3d-svg__house js-s3d-svg__house" points="746,571,941,604,1072,563,1080,565,1181,531,1183,587,1080,622,1069,624,939,663,747,632"></polygon>
		<polygon data-sec="1" data-build="1" data-floor="6" data-id="35" class="s3d-svg__house js-s3d-svg__house" points="747,509,943,539,1073,504,1081,505,1183,476,1182,533,1079,566,1071,565,940,606,746,573"></polygon>
		</svg>