<svg width="90" height="90" viewBox="0 0 90 90" fill="none" xmlns="http://www.w3.org/2000/svg">
<path fill-rule="evenodd" clip-rule="evenodd" d="M49.9523 26.054L44.941 21.8226L39.9296 26.054C35.0977 27.2677 30.8788 30.1931 28.0661 34.28C25.2535 38.3668 24.0409 43.3336 24.6566 48.2462C25.2723 53.1588 27.6736 57.6788 31.4092 60.956C35.1447 64.2332 39.957 66.0419 44.941 66.0419C49.9249 66.0419 54.7372 64.2332 58.4727 60.956C62.2083 57.6788 64.6097 53.1588 65.2254 48.2462C65.841 43.3336 64.6285 38.3668 61.8159 34.28C59.0032 30.1931 54.7842 27.2677 49.9523 26.054V26.054ZM44.941 63.626C41.3788 63.6261 37.8966 62.577 34.9347 60.6113C31.9728 58.6457 29.6643 55.8518 28.301 52.5829C26.9377 49.314 26.581 45.717 27.2758 42.2467C27.9707 38.7764 29.686 35.5887 32.2047 33.0867C34.7235 30.5848 37.9327 28.8809 41.4264 28.1906C44.9201 27.5002 48.5415 27.8545 51.8325 29.2085C55.1235 30.5625 57.9364 32.8554 59.9154 35.7974C61.8945 38.7393 62.9508 42.1981 62.9508 45.7364C62.9458 50.4794 61.0468 55.0267 57.6704 58.3805C54.294 61.7344 49.716 63.6209 44.941 63.626V63.626Z" fill="white"/>
<path d="M45.18 14.668C43.916 14.668 42.872 14.248 42.048 13.408C41.224 12.568 40.812 11.532 40.812 10.3C40.812 9.06 41.224 8.024 42.048 7.192C42.872 6.352 43.916 5.932 45.18 5.932C45.94 5.932 46.64 6.112 47.28 6.472C47.928 6.824 48.432 7.304 48.792 7.912L47.364 8.74C47.156 8.364 46.86 8.072 46.476 7.864C46.092 7.648 45.66 7.54 45.18 7.54C44.364 7.54 43.704 7.796 43.2 8.308C42.704 8.82 42.456 9.484 42.456 10.3C42.456 11.108 42.704 11.768 43.2 12.28C43.704 12.792 44.364 13.048 45.18 13.048C45.66 13.048 46.092 12.944 46.476 12.736C46.868 12.52 47.164 12.228 47.364 11.86L48.792 12.688C48.432 13.296 47.932 13.78 47.292 14.14C46.652 14.492 45.948 14.668 45.18 14.668Z" fill="white"/>
<path d="M46.3514 72.4739C47.5674 72.4739 48.5994 72.8979 49.4474 73.7459C50.2954 74.5859 50.7194 75.6179 50.7194 76.8419C50.7194 78.0579 50.2954 79.0899 49.4474 79.9379C48.5994 80.7859 47.5674 81.2099 46.3514 81.2099C45.2634 81.2099 44.3194 80.8619 43.5194 80.1659C42.7274 79.4699 42.2514 78.5859 42.0914 77.5139H40.8794V81.0419H39.2234V72.6419H40.8794V75.9299H42.1274C42.3354 74.9219 42.8274 74.0939 43.6034 73.4459C44.3874 72.7979 45.3034 72.4739 46.3514 72.4739ZM44.4194 78.8219C44.9394 79.3339 45.5834 79.5899 46.3514 79.5899C47.1194 79.5899 47.7634 79.3339 48.2834 78.8219C48.8034 78.3019 49.0634 77.6419 49.0634 76.8419C49.0634 76.0419 48.8034 75.3819 48.2834 74.8619C47.7634 74.3419 47.1194 74.0819 46.3514 74.0819C45.5754 74.0819 44.9274 74.3379 44.4074 74.8499C43.8954 75.3619 43.6394 76.0259 43.6394 76.8419C43.6394 77.6419 43.8994 78.3019 44.4194 78.8219Z" fill="white"/>
<path d="M17.775 46.3824C18.575 46.8064 18.975 47.4704 18.975 48.3744C18.975 49.1264 18.691 49.7344 18.123 50.1984C17.555 50.6624 16.823 50.8944 15.927 50.8944C14.367 50.8944 13.323 50.2344 12.795 48.9144L14.223 48.1104C14.479 48.9264 15.047 49.3344 15.927 49.3344C16.383 49.3344 16.731 49.2384 16.971 49.0464C17.211 48.8544 17.331 48.5944 17.331 48.2664C17.331 47.9384 17.211 47.6784 16.971 47.4864C16.739 47.2944 16.403 47.1984 15.963 47.1984H14.919V45.7224H15.711C16.127 45.7224 16.451 45.6344 16.683 45.4584C16.915 45.2744 17.031 45.0264 17.031 44.7144C17.031 44.4024 16.931 44.1584 16.731 43.9824C16.531 43.7984 16.235 43.7064 15.843 43.7064C15.123 43.7064 14.619 44.0584 14.331 44.7624L12.927 43.9464C13.495 42.7544 14.467 42.1584 15.843 42.1584C16.675 42.1584 17.355 42.3824 17.883 42.8304C18.411 43.2784 18.675 43.8704 18.675 44.6064C18.675 45.3584 18.375 45.9504 17.775 46.3824Z" fill="white"/>
<path d="M76.2388 46.3704C76.9748 46.7944 77.3428 47.4344 77.3428 48.2904C77.3428 49.0024 77.0908 49.5864 76.5868 50.0424C76.0828 50.4984 75.4628 50.7264 74.7268 50.7264H71.1628V42.3264H74.4748C75.1948 42.3264 75.7988 42.5504 76.2868 42.9984C76.7828 43.4384 77.0308 44.0024 77.0308 44.6904C77.0308 45.3864 76.7668 45.9464 76.2388 46.3704ZM74.4748 43.8744H72.8188V45.7224H74.4748C74.7308 45.7224 74.9428 45.6344 75.1108 45.4584C75.2868 45.2824 75.3748 45.0624 75.3748 44.7984C75.3748 44.5344 75.2908 44.3144 75.1228 44.1384C74.9548 43.9624 74.7388 43.8744 74.4748 43.8744ZM74.7268 49.1784C75.0068 49.1784 75.2388 49.0864 75.4228 48.9024C75.6068 48.7104 75.6988 48.4704 75.6988 48.1824C75.6988 47.9024 75.6068 47.6704 75.4228 47.4864C75.2388 47.2944 75.0068 47.1984 74.7268 47.1984H72.8188V49.1784H74.7268Z" fill="white"/>
</svg>
