<svg width="21" height="21" viewBox="0 0 21 21" fill="none" xmlns="http://www.w3.org/2000/svg">
<path d="M5.3675 18.0455C5.96449 18.0455 6.56146 18.0455 7.15845 18.0455C8.55273 18.0455 9.94701 18.0455 11.3413 18.0455C12.9379 18.0455 14.5345 18.0455 16.131 18.0455C17.3349 18.0455 18.5388 18.0455 19.7427 18.0455C20.0334 18.0455 20.6662 18.0455 20.9569 18.0455C20.9569 18.0455 20.9569 17.8899 20.9569 17.7034C20.9569 17.517 20.9569 17.3614 20.9569 17.3614C20.3599 17.3614 19.4209 17.3614 18.8239 17.3614C17.4296 17.3614 16.0353 17.3614 14.641 17.3614C13.0444 17.3614 11.4478 17.3614 9.85127 17.3614C8.64739 17.3614 7.44351 17.3614 6.23963 17.3614C5.94893 17.3614 5.6582 17.3614 5.36748 17.3614C5.18099 17.3614 5.02539 17.517 5.02539 17.7034C5.02539 17.8899 5.18102 18.0455 5.3675 18.0455Z" fill="white"/>
<path d="M3.32409 16.0545C3.39222 16.055 3.45985 16.0584 3.52769 16.0648C3.63674 16.0749 3.46186 16.0532 3.56925 16.0705C3.60194 16.0758 3.63437 16.0827 3.66674 16.0896C3.73089 16.1033 3.7939 16.1217 3.85631 16.1417C3.88727 16.1516 3.91771 16.1631 3.94814 16.1745C3.98564 16.1895 3.98831 16.1904 3.95613 16.1771C3.9758 16.1858 3.99529 16.1948 4.01467 16.2041C4.13064 16.2588 4.23959 16.3274 4.34273 16.4033C4.28675 16.3621 4.3692 16.4261 4.37313 16.4294C4.39754 16.4499 4.42097 16.4715 4.44436 16.4931C4.49897 16.5435 4.5495 16.5982 4.59813 16.6544C4.6014 16.6582 4.66635 16.7402 4.62422 16.6848C4.64355 16.7102 4.66166 16.7365 4.67974 16.7628C4.71602 16.8156 4.74845 16.871 4.77948 16.927C4.79507 16.9551 4.80927 16.984 4.82344 17.0129C4.82571 17.0175 4.86813 17.1144 4.8412 17.0492C4.87023 17.1195 4.89345 17.192 4.91419 17.265C4.93222 17.3286 4.94547 17.3933 4.95707 17.4583C4.97621 17.5654 4.95084 17.391 4.96282 17.4998C4.96651 17.5334 4.96851 17.5672 4.97051 17.6009C4.97455 17.6692 4.9734 17.7376 4.97051 17.8059C4.96907 17.8397 4.96594 17.8733 4.96282 17.907C4.958 17.9486 4.95786 17.9515 4.96238 17.9157C4.95903 17.9376 4.95532 17.9595 4.95123 17.9812C4.92822 18.1102 4.88919 18.2359 4.84123 18.3576C4.86706 18.2921 4.82574 18.3892 4.82346 18.394C4.80973 18.423 4.79461 18.4514 4.77951 18.4798C4.74437 18.5458 4.70398 18.6088 4.66168 18.6703C4.65885 18.6744 4.59571 18.758 4.63876 18.7033C4.61907 18.7283 4.59818 18.7525 4.57731 18.7765C4.5356 18.8247 4.49049 18.8698 4.44441 18.9137C4.42134 18.9357 4.39725 18.9566 4.37318 18.9774C4.36939 18.9807 4.28736 19.0457 4.34278 19.0035C4.28338 19.0487 4.22046 19.089 4.15644 19.1272C4.10122 19.1602 4.0437 19.1891 3.98557 19.2165C3.89022 19.2615 4.04658 19.1936 3.94818 19.2324C3.91796 19.2443 3.88715 19.2547 3.85636 19.2651C3.79424 19.2861 3.73064 19.3025 3.66679 19.3172C3.63451 19.3247 3.60189 19.3305 3.5693 19.3363C3.5282 19.3426 3.52546 19.3433 3.56111 19.3384C3.53883 19.341 3.51652 19.3433 3.49418 19.3452C3.35877 19.3578 3.22218 19.3533 3.0872 19.3384C3.1595 19.3464 3.05182 19.3315 3.04634 19.3305C3.01382 19.3247 2.98162 19.3173 2.94943 19.3098C2.8751 19.2927 2.80231 19.2694 2.73052 19.2438C2.71022 19.2363 2.69006 19.2286 2.67 19.2205C2.73548 19.2463 2.6384 19.205 2.63361 19.2027C2.58518 19.1799 2.53829 19.1539 2.49189 19.1272C2.44566 19.1006 2.40119 19.0711 2.35726 19.0409C2.33981 19.0287 2.32258 19.0163 2.30553 19.0035C2.36151 19.0447 2.27906 18.9807 2.27513 18.9774C2.19371 18.9092 2.1196 18.8326 2.05013 18.7524C2.03635 18.7363 2.02282 18.7199 2.00955 18.7033C2.05336 18.7572 1.98959 18.6745 1.98663 18.6703C1.95572 18.6268 1.92764 18.5814 1.90033 18.5356C1.87288 18.4897 1.84845 18.442 1.82485 18.3939C1.81551 18.3746 1.8065 18.3551 1.7978 18.3354C1.82685 18.3996 1.78563 18.3019 1.7838 18.297C1.74536 18.1947 1.71807 18.0884 1.69708 17.9812C1.693 17.9594 1.68928 17.9376 1.68593 17.9156C1.69756 17.9877 1.68285 17.8787 1.68237 17.8734C1.67711 17.8169 1.6757 17.7601 1.67521 17.7034C1.67472 17.6466 1.67807 17.5899 1.68237 17.5334C1.68425 17.511 1.68652 17.4887 1.68916 17.4664C1.68119 17.5387 1.69607 17.431 1.69708 17.4256C1.71631 17.3179 1.74709 17.2126 1.7838 17.1097C1.79122 17.0894 1.79899 17.0692 1.80708 17.0492C1.78125 17.1147 1.82257 17.0176 1.82485 17.0128C1.84769 16.9644 1.87367 16.9175 1.90033 16.8711C1.92691 16.8248 1.95643 16.7804 1.98663 16.7365C1.99882 16.719 2.01128 16.7018 2.02404 16.6847C1.98287 16.7407 2.04684 16.6583 2.05013 16.6543C2.11841 16.5729 2.19494 16.4988 2.27513 16.4293C2.29131 16.4156 2.3077 16.402 2.32429 16.3888C2.27034 16.4326 2.35308 16.3688 2.35726 16.3658C2.40073 16.3349 2.4461 16.3069 2.49189 16.2796C2.53788 16.2521 2.58558 16.2277 2.63361 16.2041C2.65297 16.1947 2.67249 16.1857 2.69216 16.177C2.6279 16.2061 2.72566 16.1648 2.7305 16.163C2.83288 16.1246 2.93912 16.0973 3.04632 16.0763C3.06811 16.0722 3.08996 16.0685 3.11188 16.0651C3.03977 16.0768 3.1488 16.0621 3.15413 16.0616C3.21059 16.0564 3.26738 16.055 3.32409 16.0545C3.51056 16.0529 3.66618 15.9001 3.66618 15.7124C3.66618 15.5271 3.51058 15.3687 3.32409 15.3703C2.71459 15.3755 2.13783 15.6111 1.697 16.0313C1.25945 16.4485 1.0174 17.0357 0.992107 17.635C0.966426 18.2429 1.20664 18.835 1.60838 19.2841C2.01148 19.7347 2.59151 19.9866 3.18777 20.032C3.79762 20.0784 4.39429 19.8493 4.85692 19.4613C5.32074 19.0722 5.5817 18.5002 5.64697 17.907C5.71426 17.2956 5.4964 16.6956 5.1225 16.2198C4.75202 15.7484 4.18183 15.4632 3.59429 15.3885C3.50442 15.3771 3.4147 15.3711 3.32412 15.3703C3.13763 15.3688 2.98203 15.5271 2.98203 15.7124C2.98201 15.9001 3.13763 16.0529 3.32409 16.0545Z" fill="white"/>
<path d="M16.9339 10.3604C18.1158 10.3604 19.2978 10.3604 20.4798 10.3604C20.5248 10.3604 20.9118 10.3604 20.9568 10.3604C20.9568 10.3604 20.9568 10.2048 20.9568 10.0183C20.9568 9.8318 20.9568 9.66695 20.9568 9.66695C19.7748 9.66695 18.2508 9.6762 17.0688 9.6762C17.0238 9.6762 16.9788 9.6762 16.9339 9.6762C16.7474 9.6762 16.5918 9.8318 16.5918 10.0183C16.5918 10.2048 16.7474 10.3604 16.9339 10.3604Z" fill="white"/>
<path d="M0.992693 10.3604C1.74372 10.3604 2.83636 10.3604 3.58739 10.3604C5.13614 10.3604 6.68489 10.3604 8.23362 10.3604C9.52351 10.3604 10.8134 10.3604 12.1033 10.3604C12.3211 10.3604 12.5389 10.3604 12.7567 10.3604C12.9431 10.3604 13.0987 10.2048 13.0987 10.0183C13.0987 9.83182 12.9431 9.67621 12.7567 9.67621C12.0056 9.67621 11.2546 9.67621 10.5035 9.67621C8.95479 9.67621 7.40606 9.67621 5.85731 9.67621C4.56742 9.67621 3.27753 9.67621 1.98764 9.67621C1.76985 9.67621 1.21124 9.67621 0.993451 9.67621C0.992188 9.66695 0.992188 9.83182 0.992188 10.0183C0.992188 10.2048 0.992188 10.3336 0.992693 10.3604Z" fill="white"/>
<path d="M14.8515 8.36934C14.9196 8.3699 14.9872 8.37332 15.055 8.37962C15.1641 8.38976 14.9892 8.36804 15.0966 8.38537C15.1293 8.39064 15.1617 8.39756 15.1941 8.40447C15.2582 8.41816 15.3212 8.43661 15.3836 8.45659C15.4146 8.46649 15.4451 8.47795 15.4755 8.48936C15.513 8.50441 15.5157 8.50527 15.4835 8.49195C15.5031 8.50065 15.5227 8.50967 15.542 8.519C15.658 8.57371 15.7669 8.64235 15.8701 8.71822C15.8141 8.67705 15.8965 8.74102 15.9005 8.74431C15.9249 8.76479 15.9483 8.78642 15.9717 8.80802C16.0263 8.85845 16.0769 8.91316 16.1255 8.96931C16.1288 8.9731 16.1937 9.05513 16.1516 8.99971C16.1709 9.02514 16.189 9.05146 16.2071 9.07778C16.2434 9.13058 16.2758 9.18592 16.3068 9.24193C16.3224 9.27008 16.3366 9.29894 16.3508 9.32779C16.3531 9.33241 16.3955 9.42934 16.3685 9.36418C16.3976 9.43443 16.4208 9.50692 16.4415 9.57999C16.4595 9.64349 16.4728 9.70827 16.4844 9.77319C16.5035 9.88029 16.4782 9.7059 16.4901 9.81478C16.4938 9.84838 16.4958 9.88215 16.4978 9.91589C16.5019 9.98414 16.5007 10.0526 16.4978 10.1208C16.4964 10.1546 16.4932 10.1883 16.4901 10.2219C16.4853 10.2635 16.4852 10.2664 16.4897 10.2306C16.4863 10.2525 16.4826 10.2744 16.4785 10.2962C16.4555 10.4252 16.4165 10.5509 16.3685 10.6725C16.3943 10.6071 16.353 10.7041 16.3508 10.7089C16.337 10.738 16.3219 10.7664 16.3068 10.7948C16.2717 10.8607 16.2312 10.9237 16.189 10.9853C16.1861 10.9894 16.123 11.073 16.1661 11.0182C16.1463 11.0433 16.1255 11.0674 16.1046 11.0915C16.0629 11.1397 16.0178 11.1847 15.9717 11.2287C15.9486 11.2507 15.9245 11.2715 15.9005 11.2924C15.8967 11.2957 15.8147 11.3606 15.8701 11.3185C15.8106 11.3637 15.7478 11.404 15.6837 11.4422C15.6285 11.4752 15.571 11.504 15.5129 11.5314C15.4175 11.5764 15.5739 11.5085 15.4755 11.5473C15.4452 11.5592 15.4144 11.5697 15.3836 11.5801C15.3215 11.6011 15.2579 11.6174 15.1941 11.6322C15.1618 11.6396 15.1292 11.6455 15.0966 11.6513C15.0555 11.6576 15.0528 11.6583 15.0884 11.6534C15.0661 11.656 15.0438 11.6583 15.0215 11.6601C14.8861 11.6728 14.7495 11.6682 14.6145 11.6534C14.6868 11.6613 14.5791 11.6464 14.5736 11.6455C14.5411 11.6396 14.5089 11.6322 14.4767 11.6248C14.4024 11.6076 14.3296 11.5844 14.2578 11.5587C14.2375 11.5513 14.2173 11.5435 14.1973 11.5354C14.2627 11.5613 14.1657 11.5199 14.1609 11.5177C14.1125 11.4948 14.0656 11.4688 14.0192 11.4422C13.9729 11.4156 13.9285 11.3861 13.8845 11.3559C13.8671 11.3437 13.8499 11.3312 13.8328 11.3185C13.8888 11.3596 13.8064 11.2957 13.8024 11.2924C13.721 11.2241 13.6469 11.1476 13.5774 11.0674C13.5636 11.0512 13.5501 11.0348 13.5368 11.0182C13.5807 11.0722 13.5169 10.9894 13.5139 10.9852C13.483 10.9418 13.4549 10.8964 13.4276 10.8506C13.4002 10.8046 13.3758 10.7569 13.3521 10.7089C13.3428 10.6895 13.3338 10.67 13.3251 10.6503C13.3541 10.7146 13.3129 10.6168 13.3111 10.612C13.2727 10.5096 13.2454 10.4034 13.2244 10.2961C13.2203 10.2744 13.2166 10.2525 13.2132 10.2306C13.2249 10.3027 13.2102 10.1936 13.2097 10.1883C13.2044 10.1318 13.203 10.075 13.2025 10.0183C13.202 9.96156 13.2054 9.90485 13.2097 9.8483C13.2115 9.82595 13.2138 9.80364 13.2165 9.78138C13.2085 9.85368 13.2234 9.746 13.2243 9.74052C13.2436 9.63286 13.2744 9.52757 13.3111 9.4247C13.3185 9.4044 13.3263 9.38424 13.3344 9.36418C13.3085 9.42966 13.3499 9.33258 13.3521 9.32779C13.375 9.27936 13.401 9.23247 13.4276 9.18607C13.4542 9.13984 13.4837 9.09537 13.5139 9.05144C13.5261 9.03399 13.5386 9.01676 13.5513 8.99971C13.5102 9.05569 13.5741 8.97324 13.5774 8.96931C13.6457 8.88792 13.7222 8.81381 13.8024 8.74431C13.8186 8.73053 13.835 8.717 13.8516 8.70373C13.7976 8.74754 13.8804 8.68376 13.8846 8.68081C13.928 8.6499 13.9734 8.62182 14.0192 8.5945C14.0652 8.56706 14.1129 8.54263 14.1609 8.519C14.1803 8.50967 14.1998 8.50065 14.2195 8.49195C14.1552 8.521 14.253 8.47978 14.2578 8.47795C14.3602 8.43951 14.4664 8.41222 14.5737 8.39123C14.5955 8.38715 14.6173 8.38344 14.6392 8.38009C14.5671 8.39172 14.6762 8.37701 14.6815 8.37652C14.738 8.37124 14.7947 8.36983 14.8515 8.36934C15.0379 8.36777 15.1935 8.21491 15.1935 8.02725C15.1935 7.84196 15.0379 7.6836 14.8515 7.68516C14.242 7.69029 13.6652 7.92592 13.2244 8.3462C12.7868 8.76337 12.5448 9.35057 12.5194 9.94986C12.4938 10.5577 12.734 11.1498 13.1357 11.5989C13.5388 12.0496 14.1189 12.3015 14.7151 12.3469C15.325 12.3932 15.9217 12.1641 16.3843 11.7761C16.8481 11.3871 17.1091 10.815 17.1743 10.2219C17.2416 9.61048 17.0238 9.01048 16.6499 8.53469C16.2794 8.06327 15.7092 7.77804 15.1216 7.70337C15.0318 7.69195 14.942 7.68597 14.8515 7.68519C14.665 7.68362 14.5094 7.84198 14.5094 8.02727C14.5094 8.21491 14.665 8.36777 14.8515 8.36934Z" fill="white"/>
<path d="M9.59992 2.67526C10.372 2.67526 11.1441 2.67526 11.9162 2.67526C13.475 2.67526 15.0338 2.67526 16.5927 2.67526C17.8022 2.67526 19.0117 2.67526 20.2211 2.67526C20.3528 2.67526 20.8266 2.67526 20.9583 2.67526C20.9583 2.67526 20.9583 2.51966 20.9583 2.33318C20.9583 2.14669 20.9583 2.00232 20.9583 2.00232C20.1862 2.00232 19.0721 1.99109 18.3 1.99109C16.7412 1.99109 15.1823 1.99109 13.6235 1.99109C12.414 1.99109 11.2045 1.99109 9.99501 1.99109C9.86331 1.99109 9.7316 1.99109 9.5999 1.99109C9.41341 1.99109 9.25781 2.14669 9.25781 2.33318C9.25781 2.51966 9.41344 2.67526 9.59992 2.67526Z" fill="white"/>
<path d="M0.991005 2.66675C2.20744 2.66675 3.76634 2.67526 4.98278 2.67526C5.12866 2.67526 5.27454 2.67526 5.42041 2.67526C5.6069 2.67526 5.7625 2.51966 5.7625 2.33318C5.7625 2.14669 5.6069 1.99109 5.42041 1.99109C4.20397 1.99109 2.98756 1.99109 1.77112 1.99109C1.62524 1.99109 1.13611 1.99109 0.990234 1.99109C0.990234 2.00006 0.991402 2.14669 0.991402 2.33318C0.991402 2.51966 0.991005 2.66675 0.991005 2.66675Z" fill="white"/>
<path d="M7.5155 0.684187C7.58362 0.684749 7.65126 0.68817 7.71909 0.694474C7.82814 0.704614 7.65326 0.682892 7.76066 0.700216C7.79335 0.705494 7.82577 0.712409 7.85815 0.719324C7.92229 0.733008 7.98531 0.751456 8.04772 0.771444C8.07867 0.78134 8.10912 0.7928 8.13954 0.804211C8.17705 0.819263 8.17971 0.820118 8.14753 0.806801C8.1672 0.8155 8.1867 0.824516 8.20608 0.83385C8.32205 0.88856 8.431 0.957197 8.53414 1.03307C8.47816 0.991895 8.5606 1.05587 8.56454 1.05916C8.58895 1.07964 8.61238 1.10127 8.63576 1.12287C8.69038 1.1733 8.74091 1.22801 8.78953 1.28416C8.79281 1.28795 8.85775 1.36997 8.81563 1.31456C8.83496 1.33999 8.85306 1.36631 8.87115 1.39263C8.90743 1.44543 8.93986 1.50077 8.97089 1.55678C8.98648 1.58493 9.00067 1.61379 9.01485 1.64264C9.01712 1.64726 9.05954 1.74419 9.03261 1.67903C9.06164 1.74928 9.08485 1.82178 9.1056 1.89484C9.12363 1.95834 9.13687 2.02312 9.14848 2.08804C9.16761 2.19514 9.14225 2.02075 9.15422 2.12963C9.15791 2.16323 9.15992 2.197 9.16192 2.23074C9.16595 2.29899 9.1648 2.36743 9.16192 2.43568C9.16048 2.46945 9.15735 2.50314 9.15422 2.53679C9.14941 2.5784 9.14926 2.58128 9.15378 2.54549C9.15043 2.5674 9.14672 2.58925 9.14264 2.61105C9.11962 2.74001 9.0806 2.86568 9.03264 2.98739C9.05846 2.92191 9.01714 3.01898 9.01487 3.02377C9.00114 3.05285 8.98601 3.08124 8.97091 3.10961C8.93578 3.17556 8.89538 3.23858 8.85309 3.30011C8.85025 3.30421 8.78711 3.38783 8.83017 3.33307C8.81047 3.35814 8.78958 3.38223 8.76871 3.40633C8.727 3.45449 8.6819 3.49959 8.63581 3.54353C8.61275 3.56552 8.58865 3.58639 8.56459 3.60723C8.5608 3.6105 8.47877 3.67545 8.53419 3.63333C8.47479 3.67851 8.41187 3.71885 8.34785 3.75704C8.29263 3.79 8.23511 3.81888 8.17698 3.8463C8.08163 3.89128 8.23799 3.82338 8.13959 3.86218C8.10936 3.87411 8.07855 3.88454 8.04776 3.89495C7.98565 3.91596 7.92205 3.93233 7.8582 3.94707C7.82592 3.95452 7.7933 3.96034 7.7607 3.96618C7.7196 3.97248 7.71687 3.97317 7.75252 3.96823C7.73023 3.97087 7.70792 3.97314 7.68559 3.97502C7.55017 3.98763 7.41358 3.98309 7.27861 3.96823C7.35091 3.97619 7.24322 3.96131 7.23775 3.96031C7.20523 3.95452 7.17302 3.94707 7.14084 3.93964C7.06651 3.92249 6.99372 3.8992 6.92193 3.87357C6.90162 3.86614 6.88147 3.85837 6.8614 3.85028C6.92689 3.87611 6.82981 3.83479 6.82502 3.83252C6.77659 3.80967 6.7297 3.7837 6.6833 3.75701C6.63707 3.73043 6.5926 3.70091 6.54866 3.67071C6.53122 3.65852 6.51399 3.64606 6.49693 3.6333C6.55291 3.67447 6.47047 3.6105 6.46654 3.6072C6.38514 3.53893 6.31103 3.4624 6.24154 3.38221C6.22776 3.36603 6.21422 3.34964 6.20095 3.33305C6.24477 3.387 6.18099 3.30426 6.17804 3.30008C6.14713 3.25664 6.11905 3.21124 6.09173 3.16547C6.06429 3.11949 6.03986 3.07179 6.01623 3.02375C6.00689 3.00437 5.99788 2.98487 5.98918 2.9652C6.01823 3.02944 5.97701 2.9317 5.97518 2.92684C5.93674 2.82446 5.90945 2.71822 5.88846 2.61102C5.88438 2.58922 5.88066 2.56738 5.87732 2.54546C5.88895 2.61759 5.87424 2.50854 5.87375 2.50321C5.86849 2.4467 5.86708 2.38991 5.86659 2.3332C5.8661 2.27643 5.86945 2.21972 5.87375 2.16318C5.87563 2.14082 5.8779 2.11851 5.88054 2.09625C5.87258 2.16855 5.88746 2.06087 5.88846 2.0554C5.90769 1.94774 5.93848 1.84245 5.97518 1.73958C5.98261 1.71927 5.99038 1.69911 5.99846 1.67905C5.97264 1.74454 6.01396 1.64746 6.01623 1.64267C6.03907 1.59424 6.06505 1.54735 6.09173 1.50095C6.11832 1.45472 6.14783 1.41024 6.17804 1.36631C6.19023 1.34886 6.20269 1.33164 6.21545 1.31458C6.17427 1.37056 6.23824 1.28812 6.24154 1.28418C6.30981 1.20277 6.38634 1.12866 6.46654 1.05919C6.48271 1.04541 6.49911 1.03187 6.5157 1.0186C6.46175 1.06241 6.54448 0.998639 6.54866 0.995682C6.59213 0.964772 6.63751 0.936696 6.6833 0.909378C6.72929 0.881938 6.77698 0.857503 6.82502 0.833875C6.84437 0.824541 6.8639 0.815524 6.88357 0.806825C6.81933 0.835878 6.91707 0.794657 6.9219 0.792824C7.02429 0.754388 7.13053 0.727094 7.23773 0.706105C7.25952 0.702024 7.28137 0.69831 7.30328 0.694963C7.23118 0.706594 7.3402 0.691884 7.34553 0.691395C7.402 0.686093 7.45879 0.684676 7.5155 0.684187C7.70196 0.682623 7.85759 0.529759 7.85759 0.342099C7.85759 0.15681 7.70199 -0.00155235 7.5155 1.14845e-05C6.906 0.0051428 6.32924 0.240768 5.88841 0.661047C5.45085 1.07822 5.2088 1.66542 5.18351 2.26471C5.15783 2.87255 5.39805 3.46465 5.79978 3.91379C6.20289 4.36444 6.78292 4.61634 7.37918 4.66171C7.98902 4.70812 8.5857 4.47899 9.04832 4.09097C9.51214 3.70194 9.77311 3.12987 9.83837 2.53674C9.90567 1.92533 9.68781 1.32533 9.3139 0.849513C8.94342 0.378092 8.37324 0.0928639 7.7857 0.018191C7.69583 0.00677992 7.6061 0.000793399 7.51552 1.14845e-05C7.32904 -0.00155235 7.17344 0.15681 7.17344 0.342099C7.17341 0.529783 7.32906 0.682623 7.5155 0.684187Z" fill="white"/>
</svg>
